<?xml version="1.0" encoding="utf-8" standalone="no"?>
<!DOCTYPE svg PUBLIC "-//W3C//DTD SVG 1.1//EN"
  "http://www.w3.org/Graphics/SVG/1.1/DTD/svg11.dtd">
<svg xmlns:xlink="http://www.w3.org/1999/xlink" width="492.48pt" height="210.4757pt" viewBox="0 0 492.48 210.4757" xmlns="http://www.w3.org/2000/svg" version="1.1">
 <metadata>
  <rdf:RDF xmlns:dc="http://purl.org/dc/elements/1.1/" xmlns:cc="http://creativecommons.org/ns#" xmlns:rdf="http://www.w3.org/1999/02/22-rdf-syntax-ns#">
   <cc:Work>
    <dc:type rdf:resource="http://purl.org/dc/dcmitype/StillImage"/>
    <dc:date>2026-01-29T13:28:30.239997</dc:date>
    <dc:format>image/svg+xml</dc:format>
    <dc:creator>
     <cc:Agent>
      <dc:title>Matplotlib v3.5.3, https://matplotlib.org/</dc:title>
     </cc:Agent>
    </dc:creator>
   </cc:Work>
  </rdf:RDF>
 </metadata>
 <defs>
  <style type="text/css">*{stroke-linejoin: round; stroke-linecap: butt}</style>
 </defs>
 <g id="figure_1">
  <g id="patch_1">
   <path d="M 0 210.4757 
L 492.48 210.4757 
L 492.48 0 
L 0 0 
z
" style="fill: #ffffff"/>
  </g>
  <g id="axes_1">
   <g id="patch_2">
    <path d="M 94.5328 175.5595 
L 485.28 175.5595 
L 485.28 13.1957 
L 94.5328 13.1957 
z
" style="fill: #ffffff"/>
   </g>
   <g id="matplotlib.axis_1">
    <g id="xtick_1">
     <g id="line2d_1">
      <defs>
       <path id="ma548115082" d="M 0 0 
L 0 8 
" style="stroke: #000000; stroke-width: 2"/>
      </defs>
      <g>
       <use xlink:href="#ma548115082" x="159.657333" y="175.5595" style="stroke: #000000; stroke-width: 2"/>
      </g>
     </g>
     <g id="text_1">
      <!-- No-Norm -->
      <g transform="translate(124.618083 199.4282)scale(0.1728 -0.1728)">
       <defs>
        <path id="ArialMT-4e" d="M 488 0 
L 488 4581 
L 1109 4581 
L 3516 984 
L 3516 4581 
L 4097 4581 
L 4097 0 
L 3475 0 
L 1069 3600 
L 1069 0 
L 488 0 
z
" transform="scale(0.015625)"/>
        <path id="ArialMT-6f" d="M 213 1659 
Q 213 2581 725 3025 
Q 1153 3394 1769 3394 
Q 2453 3394 2887 2945 
Q 3322 2497 3322 1706 
Q 3322 1066 3130 698 
Q 2938 331 2570 128 
Q 2203 -75 1769 -75 
Q 1072 -75 642 372 
Q 213 819 213 1659 
z
M 791 1659 
Q 791 1022 1069 705 
Q 1347 388 1769 388 
Q 2188 388 2466 706 
Q 2744 1025 2744 1678 
Q 2744 2294 2464 2611 
Q 2184 2928 1769 2928 
Q 1347 2928 1069 2612 
Q 791 2297 791 1659 
z
" transform="scale(0.015625)"/>
        <path id="ArialMT-2d" d="M 203 1375 
L 203 1941 
L 1931 1941 
L 1931 1375 
L 203 1375 
z
" transform="scale(0.015625)"/>
        <path id="ArialMT-72" d="M 416 0 
L 416 3319 
L 922 3319 
L 922 2816 
Q 1116 3169 1280 3281 
Q 1444 3394 1641 3394 
Q 1925 3394 2219 3213 
L 2025 2691 
Q 1819 2813 1613 2813 
Q 1428 2813 1281 2702 
Q 1134 2591 1072 2394 
Q 978 2094 978 1738 
L 978 0 
L 416 0 
z
" transform="scale(0.015625)"/>
        <path id="ArialMT-6d" d="M 422 0 
L 422 3319 
L 925 3319 
L 925 2853 
Q 1081 3097 1340 3245 
Q 1600 3394 1931 3394 
Q 2300 3394 2536 3241 
Q 2772 3088 2869 2813 
Q 3263 3394 3894 3394 
Q 4388 3394 4653 3120 
Q 4919 2847 4919 2278 
L 4919 0 
L 4359 0 
L 4359 2091 
Q 4359 2428 4304 2576 
Q 4250 2725 4106 2815 
Q 3963 2906 3769 2906 
Q 3419 2906 3187 2673 
Q 2956 2441 2956 1928 
L 2956 0 
L 2394 0 
L 2394 2156 
Q 2394 2531 2256 2718 
Q 2119 2906 1806 2906 
Q 1569 2906 1367 2781 
Q 1166 2656 1075 2415 
Q 984 2175 984 1722 
L 984 0 
L 422 0 
z
" transform="scale(0.015625)"/>
       </defs>
       <use xlink:href="#ArialMT-4e"/>
       <use xlink:href="#ArialMT-6f" x="72.216797"/>
       <use xlink:href="#ArialMT-2d" x="127.832031"/>
       <use xlink:href="#ArialMT-4e" x="161.132812"/>
       <use xlink:href="#ArialMT-6f" x="233.349609"/>
       <use xlink:href="#ArialMT-72" x="288.964844"/>
       <use xlink:href="#ArialMT-6d" x="322.265625"/>
      </g>
     </g>
    </g>
    <g id="xtick_2">
     <g id="line2d_2">
      <g>
       <use xlink:href="#ma548115082" x="289.9064" y="175.5595" style="stroke: #000000; stroke-width: 2"/>
      </g>
     </g>
     <g id="text_2">
      <!-- I-Norm (sub) -->
      <g transform="translate(241.4279 199.6388)scale(0.1728 -0.1728)">
       <defs>
        <path id="ArialMT-49" d="M 597 0 
L 597 4581 
L 1203 4581 
L 1203 0 
L 597 0 
z
" transform="scale(0.015625)"/>
        <path id="ArialMT-20" transform="scale(0.015625)"/>
        <path id="ArialMT-28" d="M 1497 -1347 
Q 1031 -759 709 28 
Q 388 816 388 1659 
Q 388 2403 628 3084 
Q 909 3875 1497 4659 
L 1900 4659 
Q 1522 4009 1400 3731 
Q 1209 3300 1100 2831 
Q 966 2247 966 1656 
Q 966 153 1900 -1347 
L 1497 -1347 
z
" transform="scale(0.015625)"/>
        <path id="ArialMT-73" d="M 197 991 
L 753 1078 
Q 800 744 1014 566 
Q 1228 388 1613 388 
Q 2000 388 2187 545 
Q 2375 703 2375 916 
Q 2375 1106 2209 1216 
Q 2094 1291 1634 1406 
Q 1016 1563 777 1677 
Q 538 1791 414 1992 
Q 291 2194 291 2438 
Q 291 2659 392 2848 
Q 494 3038 669 3163 
Q 800 3259 1026 3326 
Q 1253 3394 1513 3394 
Q 1903 3394 2198 3281 
Q 2494 3169 2634 2976 
Q 2775 2784 2828 2463 
L 2278 2388 
Q 2241 2644 2061 2787 
Q 1881 2931 1553 2931 
Q 1166 2931 1000 2803 
Q 834 2675 834 2503 
Q 834 2394 903 2306 
Q 972 2216 1119 2156 
Q 1203 2125 1616 2013 
Q 2213 1853 2448 1751 
Q 2684 1650 2818 1456 
Q 2953 1263 2953 975 
Q 2953 694 2789 445 
Q 2625 197 2315 61 
Q 2006 -75 1616 -75 
Q 969 -75 630 194 
Q 291 463 197 991 
z
" transform="scale(0.015625)"/>
        <path id="ArialMT-75" d="M 2597 0 
L 2597 488 
Q 2209 -75 1544 -75 
Q 1250 -75 995 37 
Q 741 150 617 320 
Q 494 491 444 738 
Q 409 903 409 1263 
L 409 3319 
L 972 3319 
L 972 1478 
Q 972 1038 1006 884 
Q 1059 663 1231 536 
Q 1403 409 1656 409 
Q 1909 409 2131 539 
Q 2353 669 2445 892 
Q 2538 1116 2538 1541 
L 2538 3319 
L 3100 3319 
L 3100 0 
L 2597 0 
z
" transform="scale(0.015625)"/>
        <path id="ArialMT-62" d="M 941 0 
L 419 0 
L 419 4581 
L 981 4581 
L 981 2947 
Q 1338 3394 1891 3394 
Q 2197 3394 2470 3270 
Q 2744 3147 2920 2923 
Q 3097 2700 3197 2384 
Q 3297 2069 3297 1709 
Q 3297 856 2875 390 
Q 2453 -75 1863 -75 
Q 1275 -75 941 416 
L 941 0 
z
M 934 1684 
Q 934 1088 1097 822 
Q 1363 388 1816 388 
Q 2184 388 2453 708 
Q 2722 1028 2722 1663 
Q 2722 2313 2464 2622 
Q 2206 2931 1841 2931 
Q 1472 2931 1203 2611 
Q 934 2291 934 1684 
z
" transform="scale(0.015625)"/>
        <path id="ArialMT-29" d="M 791 -1347 
L 388 -1347 
Q 1322 153 1322 1656 
Q 1322 2244 1188 2822 
Q 1081 3291 891 3722 
Q 769 4003 388 4659 
L 791 4659 
Q 1378 3875 1659 3084 
Q 1900 2403 1900 1659 
Q 1900 816 1576 28 
Q 1253 -759 791 -1347 
z
" transform="scale(0.015625)"/>
       </defs>
       <use xlink:href="#ArialMT-49"/>
       <use xlink:href="#ArialMT-2d" x="27.783203"/>
       <use xlink:href="#ArialMT-4e" x="61.083984"/>
       <use xlink:href="#ArialMT-6f" x="133.300781"/>
       <use xlink:href="#ArialMT-72" x="188.916016"/>
       <use xlink:href="#ArialMT-6d" x="222.216797"/>
       <use xlink:href="#ArialMT-20" x="305.517578"/>
       <use xlink:href="#ArialMT-28" x="333.300781"/>
       <use xlink:href="#ArialMT-73" x="366.601562"/>
       <use xlink:href="#ArialMT-75" x="416.601562"/>
       <use xlink:href="#ArialMT-62" x="472.216797"/>
       <use xlink:href="#ArialMT-29" x="527.832031"/>
      </g>
     </g>
    </g>
    <g id="xtick_3">
     <g id="line2d_3">
      <g>
       <use xlink:href="#ma548115082" x="420.155467" y="175.5595" style="stroke: #000000; stroke-width: 2"/>
      </g>
     </g>
     <g id="text_3">
      <!-- I-Norm -->
      <g transform="translate(393.760267 199.4282)scale(0.1728 -0.1728)">
       <use xlink:href="#ArialMT-49"/>
       <use xlink:href="#ArialMT-2d" x="27.783203"/>
       <use xlink:href="#ArialMT-4e" x="61.083984"/>
       <use xlink:href="#ArialMT-6f" x="133.300781"/>
       <use xlink:href="#ArialMT-72" x="188.916016"/>
       <use xlink:href="#ArialMT-6d" x="222.216797"/>
      </g>
     </g>
    </g>
   </g>
   <g id="matplotlib.axis_2">
    <g id="ytick_1">
     <g id="line2d_4">
      <defs>
       <path id="m52f75cf0bd" d="M 0 0 
L -8 0 
" style="stroke: #000000; stroke-width: 2"/>
      </defs>
      <g>
       <use xlink:href="#m52f75cf0bd" x="94.5328" y="102.135538" style="stroke: #000000; stroke-width: 2"/>
      </g>
     </g>
     <g id="text_4">
      <!-- 1.00 -->
      <g transform="translate(49.4043 108.319888)scale(0.1728 -0.1728)">
       <defs>
        <path id="ArialMT-31" d="M 2384 0 
L 1822 0 
L 1822 3584 
Q 1619 3391 1289 3197 
Q 959 3003 697 2906 
L 697 3450 
Q 1169 3672 1522 3987 
Q 1875 4303 2022 4600 
L 2384 4600 
L 2384 0 
z
" transform="scale(0.015625)"/>
        <path id="ArialMT-2e" d="M 581 0 
L 581 641 
L 1222 641 
L 1222 0 
L 581 0 
z
" transform="scale(0.015625)"/>
        <path id="ArialMT-30" d="M 266 2259 
Q 266 3072 433 3567 
Q 600 4063 929 4331 
Q 1259 4600 1759 4600 
Q 2128 4600 2406 4451 
Q 2684 4303 2865 4023 
Q 3047 3744 3150 3342 
Q 3253 2941 3253 2259 
Q 3253 1453 3087 958 
Q 2922 463 2592 192 
Q 2263 -78 1759 -78 
Q 1097 -78 719 397 
Q 266 969 266 2259 
z
M 844 2259 
Q 844 1131 1108 757 
Q 1372 384 1759 384 
Q 2147 384 2411 759 
Q 2675 1134 2675 2259 
Q 2675 3391 2411 3762 
Q 2147 4134 1753 4134 
Q 1366 4134 1134 3806 
Q 844 3388 844 2259 
z
" transform="scale(0.015625)"/>
       </defs>
       <use xlink:href="#ArialMT-31"/>
       <use xlink:href="#ArialMT-2e" x="55.615234"/>
       <use xlink:href="#ArialMT-30" x="83.398438"/>
       <use xlink:href="#ArialMT-30" x="139.013672"/>
      </g>
     </g>
    </g>
    <g id="ytick_2">
     <g id="line2d_5">
      <defs>
       <path id="m2c5dbae19e" d="M 0 0 
L -2 0 
" style="stroke: #000000; stroke-width: 0.6"/>
      </defs>
      <g>
       <use xlink:href="#m2c5dbae19e" x="94.5328" y="169.553473" style="stroke: #000000; stroke-width: 0.6"/>
      </g>
     </g>
    </g>
    <g id="ytick_3">
     <g id="line2d_6">
      <g>
       <use xlink:href="#m2c5dbae19e" x="94.5328" y="151.820237" style="stroke: #000000; stroke-width: 0.6"/>
      </g>
     </g>
     <g id="text_5">
      <!-- $\mathdefault{6\times10^{-1}}$ -->
      <g transform="translate(29.344 160.730237)scale(0.1728 -0.1728)">
       <defs>
        <path id="ArialMT-36" d="M 3184 3459 
L 2625 3416 
Q 2550 3747 2413 3897 
Q 2184 4138 1850 4138 
Q 1581 4138 1378 3988 
Q 1113 3794 959 3422 
Q 806 3050 800 2363 
Q 1003 2672 1297 2822 
Q 1591 2972 1913 2972 
Q 2475 2972 2870 2558 
Q 3266 2144 3266 1488 
Q 3266 1056 3080 686 
Q 2894 316 2569 119 
Q 2244 -78 1831 -78 
Q 1128 -78 684 439 
Q 241 956 241 2144 
Q 241 3472 731 4075 
Q 1159 4600 1884 4600 
Q 2425 4600 2770 4297 
Q 3116 3994 3184 3459 
z
M 888 1484 
Q 888 1194 1011 928 
Q 1134 663 1356 523 
Q 1578 384 1822 384 
Q 2178 384 2434 671 
Q 2691 959 2691 1453 
Q 2691 1928 2437 2201 
Q 2184 2475 1800 2475 
Q 1419 2475 1153 2201 
Q 888 1928 888 1484 
z
" transform="scale(0.015625)"/>
        <path id="ArialMT-d7" d="M 503 1278 
L 1488 2263 
L 506 3244 
L 888 3625 
L 1869 2644 
L 2847 3622 
L 3222 3244 
L 2247 2266 
L 3228 1284 
L 2847 903 
L 1866 1884 
L 881 900 
L 503 1278 
z
" transform="scale(0.015625)"/>
        <path id="ArialMT-2212" d="M 3381 1997 
L 356 1997 
L 356 2522 
L 3381 2522 
L 3381 1997 
z
" transform="scale(0.015625)"/>
       </defs>
       <use xlink:href="#ArialMT-36" transform="translate(0 0.99375)"/>
       <use xlink:href="#ArialMT-d7" transform="translate(72.275391 0.99375)"/>
       <use xlink:href="#ArialMT-31" transform="translate(147.333984 0.99375)"/>
       <use xlink:href="#ArialMT-30" transform="translate(202.949219 0.99375)"/>
       <use xlink:href="#ArialMT-2212" transform="translate(260.306797 70.6875)scale(0.7)"/>
       <use xlink:href="#ArialMT-31" transform="translate(301.185703 70.6875)scale(0.7)"/>
      </g>
     </g>
    </g>
    <g id="ytick_4">
     <g id="line2d_7">
      <g>
       <use xlink:href="#m2c5dbae19e" x="94.5328" y="136.826999" style="stroke: #000000; stroke-width: 0.6"/>
      </g>
     </g>
    </g>
    <g id="ytick_5">
     <g id="line2d_8">
      <g>
       <use xlink:href="#m2c5dbae19e" x="94.5328" y="123.839265" style="stroke: #000000; stroke-width: 0.6"/>
      </g>
     </g>
    </g>
    <g id="ytick_6">
     <g id="line2d_9">
      <g>
       <use xlink:href="#m2c5dbae19e" x="94.5328" y="112.383272" style="stroke: #000000; stroke-width: 0.6"/>
      </g>
     </g>
    </g>
    <g id="ytick_7">
     <g id="line2d_10">
      <g>
       <use xlink:href="#m2c5dbae19e" x="94.5328" y="34.717602" style="stroke: #000000; stroke-width: 0.6"/>
      </g>
     </g>
     <g id="text_6">
      <!-- $\mathdefault{2\times10^{0}}$ -->
      <g transform="translate(36.4288 43.627602)scale(0.1728 -0.1728)">
       <defs>
        <path id="ArialMT-32" d="M 3222 541 
L 3222 0 
L 194 0 
Q 188 203 259 391 
Q 375 700 629 1000 
Q 884 1300 1366 1694 
Q 2113 2306 2375 2664 
Q 2638 3022 2638 3341 
Q 2638 3675 2398 3904 
Q 2159 4134 1775 4134 
Q 1369 4134 1125 3890 
Q 881 3647 878 3216 
L 300 3275 
Q 359 3922 746 4261 
Q 1134 4600 1788 4600 
Q 2447 4600 2831 4234 
Q 3216 3869 3216 3328 
Q 3216 3053 3103 2787 
Q 2991 2522 2730 2228 
Q 2469 1934 1863 1422 
Q 1356 997 1212 845 
Q 1069 694 975 541 
L 3222 541 
z
" transform="scale(0.015625)"/>
       </defs>
       <use xlink:href="#ArialMT-32" transform="translate(0 0.99375)"/>
       <use xlink:href="#ArialMT-d7" transform="translate(72.275391 0.99375)"/>
       <use xlink:href="#ArialMT-31" transform="translate(147.333984 0.99375)"/>
       <use xlink:href="#ArialMT-30" transform="translate(202.949219 0.99375)"/>
       <use xlink:href="#ArialMT-30" transform="translate(260.306797 70.6875)scale(0.7)"/>
      </g>
     </g>
    </g>
    <g id="text_7">
     <!-- Second moment $\mathbb{E}[x^2]$ -->
     <g transform="translate(21.9096 181.5552)rotate(-90)scale(0.1728 -0.1728)">
      <defs>
       <path id="ArialMT-53" d="M 288 1472 
L 859 1522 
Q 900 1178 1048 958 
Q 1197 738 1509 602 
Q 1822 466 2213 466 
Q 2559 466 2825 569 
Q 3091 672 3220 851 
Q 3350 1031 3350 1244 
Q 3350 1459 3225 1620 
Q 3100 1781 2813 1891 
Q 2628 1963 1997 2114 
Q 1366 2266 1113 2400 
Q 784 2572 623 2826 
Q 463 3081 463 3397 
Q 463 3744 659 4045 
Q 856 4347 1234 4503 
Q 1613 4659 2075 4659 
Q 2584 4659 2973 4495 
Q 3363 4331 3572 4012 
Q 3781 3694 3797 3291 
L 3216 3247 
Q 3169 3681 2898 3903 
Q 2628 4125 2100 4125 
Q 1550 4125 1298 3923 
Q 1047 3722 1047 3438 
Q 1047 3191 1225 3031 
Q 1400 2872 2139 2705 
Q 2878 2538 3153 2413 
Q 3553 2228 3743 1945 
Q 3934 1663 3934 1294 
Q 3934 928 3725 604 
Q 3516 281 3123 101 
Q 2731 -78 2241 -78 
Q 1619 -78 1198 103 
Q 778 284 539 648 
Q 300 1013 288 1472 
z
" transform="scale(0.015625)"/>
       <path id="ArialMT-65" d="M 2694 1069 
L 3275 997 
Q 3138 488 2766 206 
Q 2394 -75 1816 -75 
Q 1088 -75 661 373 
Q 234 822 234 1631 
Q 234 2469 665 2931 
Q 1097 3394 1784 3394 
Q 2450 3394 2872 2941 
Q 3294 2488 3294 1666 
Q 3294 1616 3291 1516 
L 816 1516 
Q 847 969 1125 678 
Q 1403 388 1819 388 
Q 2128 388 2347 550 
Q 2566 713 2694 1069 
z
M 847 1978 
L 2700 1978 
Q 2663 2397 2488 2606 
Q 2219 2931 1791 2931 
Q 1403 2931 1139 2672 
Q 875 2413 847 1978 
z
" transform="scale(0.015625)"/>
       <path id="ArialMT-63" d="M 2588 1216 
L 3141 1144 
Q 3050 572 2676 248 
Q 2303 -75 1759 -75 
Q 1078 -75 664 370 
Q 250 816 250 1647 
Q 250 2184 428 2587 
Q 606 2991 970 3192 
Q 1334 3394 1763 3394 
Q 2303 3394 2647 3120 
Q 2991 2847 3088 2344 
L 2541 2259 
Q 2463 2594 2264 2762 
Q 2066 2931 1784 2931 
Q 1359 2931 1093 2626 
Q 828 2322 828 1663 
Q 828 994 1084 691 
Q 1341 388 1753 388 
Q 2084 388 2306 591 
Q 2528 794 2588 1216 
z
" transform="scale(0.015625)"/>
       <path id="ArialMT-6e" d="M 422 0 
L 422 3319 
L 928 3319 
L 928 2847 
Q 1294 3394 1984 3394 
Q 2284 3394 2536 3286 
Q 2788 3178 2913 3003 
Q 3038 2828 3088 2588 
Q 3119 2431 3119 2041 
L 3119 0 
L 2556 0 
L 2556 2019 
Q 2556 2363 2490 2533 
Q 2425 2703 2258 2804 
Q 2091 2906 1866 2906 
Q 1506 2906 1245 2678 
Q 984 2450 984 1813 
L 984 0 
L 422 0 
z
" transform="scale(0.015625)"/>
       <path id="ArialMT-64" d="M 2575 0 
L 2575 419 
Q 2259 -75 1647 -75 
Q 1250 -75 917 144 
Q 584 363 401 755 
Q 219 1147 219 1656 
Q 219 2153 384 2558 
Q 550 2963 881 3178 
Q 1213 3394 1622 3394 
Q 1922 3394 2156 3267 
Q 2391 3141 2538 2938 
L 2538 4581 
L 3097 4581 
L 3097 0 
L 2575 0 
z
M 797 1656 
Q 797 1019 1065 703 
Q 1334 388 1700 388 
Q 2069 388 2326 689 
Q 2584 991 2584 1609 
Q 2584 2291 2321 2609 
Q 2059 2928 1675 2928 
Q 1300 2928 1048 2622 
Q 797 2316 797 1656 
z
" transform="scale(0.015625)"/>
       <path id="ArialMT-74" d="M 1650 503 
L 1731 6 
Q 1494 -44 1306 -44 
Q 1000 -44 831 53 
Q 663 150 594 308 
Q 525 466 525 972 
L 525 2881 
L 113 2881 
L 113 3319 
L 525 3319 
L 525 4141 
L 1084 4478 
L 1084 3319 
L 1650 3319 
L 1650 2881 
L 1084 2881 
L 1084 941 
Q 1084 700 1114 631 
Q 1144 563 1211 522 
Q 1278 481 1403 481 
Q 1497 481 1650 503 
z
" transform="scale(0.015625)"/>
       <path id="STIXNonUnicode-Italic-e156" d="M 4250 4179 
L 4192 3942 
L 2150 3942 
L 1709 2266 
L 3514 2266 
L 3443 2029 
L 1645 2029 
L 1165 237 
L 3443 237 
L 3392 0 
L 109 0 
L 1229 4179 
L 4250 4179 
z
M 1914 3942 
L 1414 3942 
L 416 237 
L 928 237 
L 1914 3942 
z
" transform="scale(0.015625)"/>
       <path id="DejaVuSans-5b" d="M 550 4863 
L 1875 4863 
L 1875 4416 
L 1125 4416 
L 1125 -397 
L 1875 -397 
L 1875 -844 
L 550 -844 
L 550 4863 
z
" transform="scale(0.015625)"/>
       <path id="DejaVuSans-Oblique-78" d="M 3841 3500 
L 2234 1784 
L 3219 0 
L 2559 0 
L 1819 1388 
L 531 0 
L -166 0 
L 1556 1844 
L 641 3500 
L 1300 3500 
L 1972 2234 
L 3144 3500 
L 3841 3500 
z
" transform="scale(0.015625)"/>
       <path id="DejaVuSans-32" d="M 1228 531 
L 3431 531 
L 3431 0 
L 469 0 
L 469 531 
Q 828 903 1448 1529 
Q 2069 2156 2228 2338 
Q 2531 2678 2651 2914 
Q 2772 3150 2772 3378 
Q 2772 3750 2511 3984 
Q 2250 4219 1831 4219 
Q 1534 4219 1204 4116 
Q 875 4013 500 3803 
L 500 4441 
Q 881 4594 1212 4672 
Q 1544 4750 1819 4750 
Q 2544 4750 2975 4387 
Q 3406 4025 3406 3419 
Q 3406 3131 3298 2873 
Q 3191 2616 2906 2266 
Q 2828 2175 2409 1742 
Q 1991 1309 1228 531 
z
" transform="scale(0.015625)"/>
       <path id="DejaVuSans-5d" d="M 1947 4863 
L 1947 -844 
L 622 -844 
L 622 -397 
L 1369 -397 
L 1369 4416 
L 622 4416 
L 622 4863 
L 1947 4863 
z
" transform="scale(0.015625)"/>
      </defs>
      <use xlink:href="#ArialMT-53" transform="translate(0 0.765625)"/>
      <use xlink:href="#ArialMT-65" transform="translate(66.699219 0.765625)"/>
      <use xlink:href="#ArialMT-63" transform="translate(122.314453 0.765625)"/>
      <use xlink:href="#ArialMT-6f" transform="translate(172.314453 0.765625)"/>
      <use xlink:href="#ArialMT-6e" transform="translate(227.929688 0.765625)"/>
      <use xlink:href="#ArialMT-64" transform="translate(283.544922 0.765625)"/>
      <use xlink:href="#ArialMT-20" transform="translate(339.160156 0.765625)"/>
      <use xlink:href="#ArialMT-6d" transform="translate(366.943359 0.765625)"/>
      <use xlink:href="#ArialMT-6f" transform="translate(450.244141 0.765625)"/>
      <use xlink:href="#ArialMT-6d" transform="translate(505.859375 0.765625)"/>
      <use xlink:href="#ArialMT-65" transform="translate(589.160156 0.765625)"/>
      <use xlink:href="#ArialMT-6e" transform="translate(644.775391 0.765625)"/>
      <use xlink:href="#ArialMT-74" transform="translate(700.390625 0.765625)"/>
      <use xlink:href="#ArialMT-20" transform="translate(728.173828 0.765625)"/>
      <use xlink:href="#STIXNonUnicode-Italic-e156" transform="translate(755.957031 0.765625)"/>
      <use xlink:href="#DejaVuSans-5b" transform="translate(819.857025 0.765625)"/>
      <use xlink:href="#DejaVuSans-Oblique-78" transform="translate(858.870697 0.765625)"/>
      <use xlink:href="#DejaVuSans-32" transform="translate(922.51653 39.046875)scale(0.7)"/>
      <use xlink:href="#DejaVuSans-5d" transform="translate(969.787038 0.765625)"/>
     </g>
    </g>
   </g>
   <g id="patch_3">
    <path d="M 120.582613 105.808878 
L 198.732053 105.808878 
L 198.732053 52.311125 
L 120.582613 52.311125 
L 120.582613 105.808878 
z
" clip-path="url(#p0a336db5c2)" style="fill: #d3d3d3; stroke: #000000; stroke-width: 2.5; stroke-linejoin: miter"/>
   </g>
   <g id="line2d_11">
    <path d="M 159.657333 105.808878 
L 159.657333 168.179327 
" clip-path="url(#p0a336db5c2)" style="fill: none; stroke: #000000; stroke-width: 2.5; stroke-linecap: square"/>
   </g>
   <g id="line2d_12">
    <path d="M 159.657333 52.311125 
L 159.657333 20.575873 
" clip-path="url(#p0a336db5c2)" style="fill: none; stroke: #000000; stroke-width: 2.5; stroke-linecap: square"/>
   </g>
   <g id="line2d_13">
    <path d="M 140.119973 168.179327 
L 179.194693 168.179327 
" clip-path="url(#p0a336db5c2)" style="fill: none; stroke: #000000; stroke-width: 2.5; stroke-linecap: square"/>
   </g>
   <g id="line2d_14">
    <path d="M 140.119973 20.575873 
L 179.194693 20.575873 
" clip-path="url(#p0a336db5c2)" style="fill: none; stroke: #000000; stroke-width: 2.5; stroke-linecap: square"/>
   </g>
   <g id="patch_4">
    <path d="M 250.83168 123.983841 
L 328.98112 123.983841 
L 328.98112 114.369822 
L 250.83168 114.369822 
L 250.83168 123.983841 
z
" clip-path="url(#p0a336db5c2)" style="fill: #a9a9a9; stroke: #000000; stroke-width: 2.5; stroke-linejoin: miter"/>
   </g>
   <g id="line2d_15">
    <path d="M 289.9064 123.983841 
L 289.9064 129.355725 
" clip-path="url(#p0a336db5c2)" style="fill: none; stroke: #000000; stroke-width: 2.5; stroke-linecap: square"/>
   </g>
   <g id="line2d_16">
    <path d="M 289.9064 114.369822 
L 289.9064 113.412411 
" clip-path="url(#p0a336db5c2)" style="fill: none; stroke: #000000; stroke-width: 2.5; stroke-linecap: square"/>
   </g>
   <g id="line2d_17">
    <path d="M 270.36904 129.355725 
L 309.44376 129.355725 
" clip-path="url(#p0a336db5c2)" style="fill: none; stroke: #000000; stroke-width: 2.5; stroke-linecap: square"/>
   </g>
   <g id="line2d_18">
    <path d="M 270.36904 113.412411 
L 309.44376 113.412411 
" clip-path="url(#p0a336db5c2)" style="fill: none; stroke: #000000; stroke-width: 2.5; stroke-linecap: square"/>
   </g>
   <g id="patch_5">
    <path d="M 381.080747 104.781799 
L 459.230187 104.781799 
L 459.230187 102.652331 
L 381.080747 102.652331 
L 381.080747 104.781799 
z
" clip-path="url(#p0a336db5c2)" style="fill: #ffffff; stroke: #000000; stroke-width: 2.5; stroke-linejoin: miter"/>
   </g>
   <g id="line2d_19">
    <path d="M 420.155467 104.781799 
L 420.155467 105.566386 
" clip-path="url(#p0a336db5c2)" style="fill: none; stroke: #000000; stroke-width: 2.5; stroke-linecap: square"/>
   </g>
   <g id="line2d_20">
    <path d="M 420.155467 102.652331 
L 420.155467 100.504139 
" clip-path="url(#p0a336db5c2)" style="fill: none; stroke: #000000; stroke-width: 2.5; stroke-linecap: square"/>
   </g>
   <g id="line2d_21">
    <path d="M 400.618107 105.566386 
L 439.692827 105.566386 
" clip-path="url(#p0a336db5c2)" style="fill: none; stroke: #000000; stroke-width: 2.5; stroke-linecap: square"/>
   </g>
   <g id="line2d_22">
    <path d="M 400.618107 100.504139 
L 439.692827 100.504139 
" clip-path="url(#p0a336db5c2)" style="fill: none; stroke: #000000; stroke-width: 2.5; stroke-linecap: square"/>
   </g>
   <g id="line2d_23">
    <path d="M 94.5328 102.135538 
L 485.28 102.135538 
" clip-path="url(#p0a336db5c2)" style="fill: none; stroke-dasharray: 2.5,4.125; stroke-dashoffset: 0; stroke: #000000; stroke-width: 2.5"/>
   </g>
   <g id="line2d_24">
    <path d="M 120.582613 84.072035 
L 198.732053 84.072035 
" clip-path="url(#p0a336db5c2)" style="fill: none; stroke: #000000; stroke-width: 2.5; stroke-linecap: square"/>
   </g>
   <g id="line2d_25">
    <path d="M 250.83168 120.195045 
L 328.98112 120.195045 
" clip-path="url(#p0a336db5c2)" style="fill: none; stroke: #000000; stroke-width: 2.5; stroke-linecap: square"/>
   </g>
   <g id="line2d_26">
    <path d="M 381.080747 103.321256 
L 459.230187 103.321256 
" clip-path="url(#p0a336db5c2)" style="fill: none; stroke: #000000; stroke-width: 2.5; stroke-linecap: square"/>
   </g>
   <g id="patch_6">
    <path d="M 94.5328 175.5595 
L 94.5328 13.1957 
" style="fill: none; stroke: #000000; stroke-width: 2.5; stroke-linejoin: miter; stroke-linecap: square"/>
   </g>
   <g id="patch_7">
    <path d="M 94.5328 175.5595 
L 485.28 175.5595 
" style="fill: none; stroke: #000000; stroke-width: 2.5; stroke-linejoin: miter; stroke-linecap: square"/>
   </g>
  </g>
 </g>
 <defs>
  <clipPath id="p0a336db5c2">
   <rect x="94.5328" y="13.1957" width="390.7472" height="162.3638"/>
  </clipPath>
 </defs>
</svg>
