<?xml version="1.0" encoding="utf-8" standalone="no"?>
<!DOCTYPE svg PUBLIC "-//W3C//DTD SVG 1.1//EN"
  "http://www.w3.org/Graphics/SVG/1.1/DTD/svg11.dtd">
<svg xmlns:xlink="http://www.w3.org/1999/xlink" width="420.48pt" height="276.48pt" viewBox="0 0 420.48 276.48" xmlns="http://www.w3.org/2000/svg" version="1.1">
 <metadata>
  <rdf:RDF xmlns:dc="http://purl.org/dc/elements/1.1/" xmlns:cc="http://creativecommons.org/ns#" xmlns:rdf="http://www.w3.org/1999/02/22-rdf-syntax-ns#">
   <cc:Work>
    <dc:type rdf:resource="http://purl.org/dc/dcmitype/StillImage"/>
    <dc:date>2026-01-29T13:02:29.814960</dc:date>
    <dc:format>image/svg+xml</dc:format>
    <dc:creator>
     <cc:Agent>
      <dc:title>Matplotlib v3.5.3, https://matplotlib.org/</dc:title>
     </cc:Agent>
    </dc:creator>
   </cc:Work>
  </rdf:RDF>
 </metadata>
 <defs>
  <style type="text/css">*{stroke-linejoin: round; stroke-linecap: butt}</style>
 </defs>
 <g id="figure_1">
  <g id="patch_1">
   <path d="M 0 276.48 
L 420.48 276.48 
L 420.48 0 
L 0 0 
z
" style="fill: #ffffff"/>
  </g>
  <g id="axes_1">
   <g id="patch_2">
    <path d="M 74.4725 221.7337 
L 413.28 221.7337 
L 413.28 7.2 
L 74.4725 7.2 
z
" style="fill: #ffffff"/>
   </g>
   <g id="matplotlib.axis_1">
    <g id="xtick_1">
     <g id="line2d_1">
      <defs>
       <path id="mb88c1d75e6" d="M 0 0 
L 0 8 
" style="stroke: #000000; stroke-width: 2"/>
      </defs>
      <g>
       <use xlink:href="#mb88c1d75e6" x="127.046078" y="221.7337" style="stroke: #000000; stroke-width: 2"/>
      </g>
     </g>
     <g id="text_1">
      <!-- 0.0 -->
      <g transform="translate(115.036478 245.6024)scale(0.1728 -0.1728)">
       <defs>
        <path id="ArialMT-30" d="M 266 2259 
Q 266 3072 433 3567 
Q 600 4063 929 4331 
Q 1259 4600 1759 4600 
Q 2128 4600 2406 4451 
Q 2684 4303 2865 4023 
Q 3047 3744 3150 3342 
Q 3253 2941 3253 2259 
Q 3253 1453 3087 958 
Q 2922 463 2592 192 
Q 2263 -78 1759 -78 
Q 1097 -78 719 397 
Q 266 969 266 2259 
z
M 844 2259 
Q 844 1131 1108 757 
Q 1372 384 1759 384 
Q 2147 384 2411 759 
Q 2675 1134 2675 2259 
Q 2675 3391 2411 3762 
Q 2147 4134 1753 4134 
Q 1366 4134 1134 3806 
Q 844 3388 844 2259 
z
" transform="scale(0.015625)"/>
        <path id="ArialMT-2e" d="M 581 0 
L 581 641 
L 1222 641 
L 1222 0 
L 581 0 
z
" transform="scale(0.015625)"/>
       </defs>
       <use xlink:href="#ArialMT-30"/>
       <use xlink:href="#ArialMT-2e" x="55.615234"/>
       <use xlink:href="#ArialMT-30" x="83.398438"/>
      </g>
     </g>
    </g>
    <g id="xtick_2">
     <g id="line2d_2">
      <g>
       <use xlink:href="#mb88c1d75e6" x="204.932859" y="221.7337" style="stroke: #000000; stroke-width: 2"/>
      </g>
     </g>
     <g id="text_2">
      <!-- 0.25 -->
      <g transform="translate(188.118609 245.6024)scale(0.1728 -0.1728)">
       <defs>
        <path id="ArialMT-32" d="M 3222 541 
L 3222 0 
L 194 0 
Q 188 203 259 391 
Q 375 700 629 1000 
Q 884 1300 1366 1694 
Q 2113 2306 2375 2664 
Q 2638 3022 2638 3341 
Q 2638 3675 2398 3904 
Q 2159 4134 1775 4134 
Q 1369 4134 1125 3890 
Q 881 3647 878 3216 
L 300 3275 
Q 359 3922 746 4261 
Q 1134 4600 1788 4600 
Q 2447 4600 2831 4234 
Q 3216 3869 3216 3328 
Q 3216 3053 3103 2787 
Q 2991 2522 2730 2228 
Q 2469 1934 1863 1422 
Q 1356 997 1212 845 
Q 1069 694 975 541 
L 3222 541 
z
" transform="scale(0.015625)"/>
        <path id="ArialMT-35" d="M 266 1200 
L 856 1250 
Q 922 819 1161 601 
Q 1400 384 1738 384 
Q 2144 384 2425 690 
Q 2706 997 2706 1503 
Q 2706 1984 2436 2262 
Q 2166 2541 1728 2541 
Q 1456 2541 1237 2417 
Q 1019 2294 894 2097 
L 366 2166 
L 809 4519 
L 3088 4519 
L 3088 3981 
L 1259 3981 
L 1013 2750 
Q 1425 3038 1878 3038 
Q 2478 3038 2890 2622 
Q 3303 2206 3303 1553 
Q 3303 931 2941 478 
Q 2500 -78 1738 -78 
Q 1113 -78 717 272 
Q 322 622 266 1200 
z
" transform="scale(0.015625)"/>
       </defs>
       <use xlink:href="#ArialMT-30"/>
       <use xlink:href="#ArialMT-2e" x="55.615234"/>
       <use xlink:href="#ArialMT-32" x="83.398438"/>
       <use xlink:href="#ArialMT-35" x="139.013672"/>
      </g>
     </g>
    </g>
    <g id="xtick_3">
     <g id="line2d_3">
      <g>
       <use xlink:href="#mb88c1d75e6" x="282.819641" y="221.7337" style="stroke: #000000; stroke-width: 2"/>
      </g>
     </g>
     <g id="text_3">
      <!-- 0.5 -->
      <g transform="translate(270.810041 245.6024)scale(0.1728 -0.1728)">
       <use xlink:href="#ArialMT-30"/>
       <use xlink:href="#ArialMT-2e" x="55.615234"/>
       <use xlink:href="#ArialMT-35" x="83.398438"/>
      </g>
     </g>
    </g>
    <g id="xtick_4">
     <g id="line2d_4">
      <g>
       <use xlink:href="#mb88c1d75e6" x="360.706422" y="221.7337" style="stroke: #000000; stroke-width: 2"/>
      </g>
     </g>
     <g id="text_4">
      <!-- 0.75 -->
      <g transform="translate(343.892172 245.6024)scale(0.1728 -0.1728)">
       <defs>
        <path id="ArialMT-37" d="M 303 3981 
L 303 4522 
L 3269 4522 
L 3269 4084 
Q 2831 3619 2401 2847 
Q 1972 2075 1738 1259 
Q 1569 684 1522 0 
L 944 0 
Q 953 541 1156 1306 
Q 1359 2072 1739 2783 
Q 2119 3494 2547 3981 
L 303 3981 
z
" transform="scale(0.015625)"/>
       </defs>
       <use xlink:href="#ArialMT-30"/>
       <use xlink:href="#ArialMT-2e" x="55.615234"/>
       <use xlink:href="#ArialMT-37" x="83.398438"/>
       <use xlink:href="#ArialMT-35" x="139.013672"/>
      </g>
     </g>
    </g>
    <g id="text_5">
     <!-- Luminosity range $\epsilon$ -->
     <g transform="translate(170.95465 265.4784)scale(0.1728 -0.1728)">
      <defs>
       <path id="ArialMT-4c" d="M 469 0 
L 469 4581 
L 1075 4581 
L 1075 541 
L 3331 541 
L 3331 0 
L 469 0 
z
" transform="scale(0.015625)"/>
       <path id="ArialMT-75" d="M 2597 0 
L 2597 488 
Q 2209 -75 1544 -75 
Q 1250 -75 995 37 
Q 741 150 617 320 
Q 494 491 444 738 
Q 409 903 409 1263 
L 409 3319 
L 972 3319 
L 972 1478 
Q 972 1038 1006 884 
Q 1059 663 1231 536 
Q 1403 409 1656 409 
Q 1909 409 2131 539 
Q 2353 669 2445 892 
Q 2538 1116 2538 1541 
L 2538 3319 
L 3100 3319 
L 3100 0 
L 2597 0 
z
" transform="scale(0.015625)"/>
       <path id="ArialMT-6d" d="M 422 0 
L 422 3319 
L 925 3319 
L 925 2853 
Q 1081 3097 1340 3245 
Q 1600 3394 1931 3394 
Q 2300 3394 2536 3241 
Q 2772 3088 2869 2813 
Q 3263 3394 3894 3394 
Q 4388 3394 4653 3120 
Q 4919 2847 4919 2278 
L 4919 0 
L 4359 0 
L 4359 2091 
Q 4359 2428 4304 2576 
Q 4250 2725 4106 2815 
Q 3963 2906 3769 2906 
Q 3419 2906 3187 2673 
Q 2956 2441 2956 1928 
L 2956 0 
L 2394 0 
L 2394 2156 
Q 2394 2531 2256 2718 
Q 2119 2906 1806 2906 
Q 1569 2906 1367 2781 
Q 1166 2656 1075 2415 
Q 984 2175 984 1722 
L 984 0 
L 422 0 
z
" transform="scale(0.015625)"/>
       <path id="ArialMT-69" d="M 425 3934 
L 425 4581 
L 988 4581 
L 988 3934 
L 425 3934 
z
M 425 0 
L 425 3319 
L 988 3319 
L 988 0 
L 425 0 
z
" transform="scale(0.015625)"/>
       <path id="ArialMT-6e" d="M 422 0 
L 422 3319 
L 928 3319 
L 928 2847 
Q 1294 3394 1984 3394 
Q 2284 3394 2536 3286 
Q 2788 3178 2913 3003 
Q 3038 2828 3088 2588 
Q 3119 2431 3119 2041 
L 3119 0 
L 2556 0 
L 2556 2019 
Q 2556 2363 2490 2533 
Q 2425 2703 2258 2804 
Q 2091 2906 1866 2906 
Q 1506 2906 1245 2678 
Q 984 2450 984 1813 
L 984 0 
L 422 0 
z
" transform="scale(0.015625)"/>
       <path id="ArialMT-6f" d="M 213 1659 
Q 213 2581 725 3025 
Q 1153 3394 1769 3394 
Q 2453 3394 2887 2945 
Q 3322 2497 3322 1706 
Q 3322 1066 3130 698 
Q 2938 331 2570 128 
Q 2203 -75 1769 -75 
Q 1072 -75 642 372 
Q 213 819 213 1659 
z
M 791 1659 
Q 791 1022 1069 705 
Q 1347 388 1769 388 
Q 2188 388 2466 706 
Q 2744 1025 2744 1678 
Q 2744 2294 2464 2611 
Q 2184 2928 1769 2928 
Q 1347 2928 1069 2612 
Q 791 2297 791 1659 
z
" transform="scale(0.015625)"/>
       <path id="ArialMT-73" d="M 197 991 
L 753 1078 
Q 800 744 1014 566 
Q 1228 388 1613 388 
Q 2000 388 2187 545 
Q 2375 703 2375 916 
Q 2375 1106 2209 1216 
Q 2094 1291 1634 1406 
Q 1016 1563 777 1677 
Q 538 1791 414 1992 
Q 291 2194 291 2438 
Q 291 2659 392 2848 
Q 494 3038 669 3163 
Q 800 3259 1026 3326 
Q 1253 3394 1513 3394 
Q 1903 3394 2198 3281 
Q 2494 3169 2634 2976 
Q 2775 2784 2828 2463 
L 2278 2388 
Q 2241 2644 2061 2787 
Q 1881 2931 1553 2931 
Q 1166 2931 1000 2803 
Q 834 2675 834 2503 
Q 834 2394 903 2306 
Q 972 2216 1119 2156 
Q 1203 2125 1616 2013 
Q 2213 1853 2448 1751 
Q 2684 1650 2818 1456 
Q 2953 1263 2953 975 
Q 2953 694 2789 445 
Q 2625 197 2315 61 
Q 2006 -75 1616 -75 
Q 969 -75 630 194 
Q 291 463 197 991 
z
" transform="scale(0.015625)"/>
       <path id="ArialMT-74" d="M 1650 503 
L 1731 6 
Q 1494 -44 1306 -44 
Q 1000 -44 831 53 
Q 663 150 594 308 
Q 525 466 525 972 
L 525 2881 
L 113 2881 
L 113 3319 
L 525 3319 
L 525 4141 
L 1084 4478 
L 1084 3319 
L 1650 3319 
L 1650 2881 
L 1084 2881 
L 1084 941 
Q 1084 700 1114 631 
Q 1144 563 1211 522 
Q 1278 481 1403 481 
Q 1497 481 1650 503 
z
" transform="scale(0.015625)"/>
       <path id="ArialMT-79" d="M 397 -1278 
L 334 -750 
Q 519 -800 656 -800 
Q 844 -800 956 -737 
Q 1069 -675 1141 -563 
Q 1194 -478 1313 -144 
Q 1328 -97 1363 -6 
L 103 3319 
L 709 3319 
L 1400 1397 
Q 1534 1031 1641 628 
Q 1738 1016 1872 1384 
L 2581 3319 
L 3144 3319 
L 1881 -56 
Q 1678 -603 1566 -809 
Q 1416 -1088 1222 -1217 
Q 1028 -1347 759 -1347 
Q 597 -1347 397 -1278 
z
" transform="scale(0.015625)"/>
       <path id="ArialMT-20" transform="scale(0.015625)"/>
       <path id="ArialMT-72" d="M 416 0 
L 416 3319 
L 922 3319 
L 922 2816 
Q 1116 3169 1280 3281 
Q 1444 3394 1641 3394 
Q 1925 3394 2219 3213 
L 2025 2691 
Q 1819 2813 1613 2813 
Q 1428 2813 1281 2702 
Q 1134 2591 1072 2394 
Q 978 2094 978 1738 
L 978 0 
L 416 0 
z
" transform="scale(0.015625)"/>
       <path id="ArialMT-61" d="M 2588 409 
Q 2275 144 1986 34 
Q 1697 -75 1366 -75 
Q 819 -75 525 192 
Q 231 459 231 875 
Q 231 1119 342 1320 
Q 453 1522 633 1644 
Q 813 1766 1038 1828 
Q 1203 1872 1538 1913 
Q 2219 1994 2541 2106 
Q 2544 2222 2544 2253 
Q 2544 2597 2384 2738 
Q 2169 2928 1744 2928 
Q 1347 2928 1158 2789 
Q 969 2650 878 2297 
L 328 2372 
Q 403 2725 575 2942 
Q 747 3159 1072 3276 
Q 1397 3394 1825 3394 
Q 2250 3394 2515 3294 
Q 2781 3194 2906 3042 
Q 3031 2891 3081 2659 
Q 3109 2516 3109 2141 
L 3109 1391 
Q 3109 606 3145 398 
Q 3181 191 3288 0 
L 2700 0 
Q 2613 175 2588 409 
z
M 2541 1666 
Q 2234 1541 1622 1453 
Q 1275 1403 1131 1340 
Q 988 1278 909 1158 
Q 831 1038 831 891 
Q 831 666 1001 516 
Q 1172 366 1500 366 
Q 1825 366 2078 508 
Q 2331 650 2450 897 
Q 2541 1088 2541 1459 
L 2541 1666 
z
" transform="scale(0.015625)"/>
       <path id="ArialMT-67" d="M 319 -275 
L 866 -356 
Q 900 -609 1056 -725 
Q 1266 -881 1628 -881 
Q 2019 -881 2231 -725 
Q 2444 -569 2519 -288 
Q 2563 -116 2559 434 
Q 2191 0 1641 0 
Q 956 0 581 494 
Q 206 988 206 1678 
Q 206 2153 378 2554 
Q 550 2956 876 3175 
Q 1203 3394 1644 3394 
Q 2231 3394 2613 2919 
L 2613 3319 
L 3131 3319 
L 3131 450 
Q 3131 -325 2973 -648 
Q 2816 -972 2473 -1159 
Q 2131 -1347 1631 -1347 
Q 1038 -1347 672 -1080 
Q 306 -813 319 -275 
z
M 784 1719 
Q 784 1066 1043 766 
Q 1303 466 1694 466 
Q 2081 466 2343 764 
Q 2606 1063 2606 1700 
Q 2606 2309 2336 2618 
Q 2066 2928 1684 2928 
Q 1309 2928 1046 2623 
Q 784 2319 784 1719 
z
" transform="scale(0.015625)"/>
       <path id="ArialMT-65" d="M 2694 1069 
L 3275 997 
Q 3138 488 2766 206 
Q 2394 -75 1816 -75 
Q 1088 -75 661 373 
Q 234 822 234 1631 
Q 234 2469 665 2931 
Q 1097 3394 1784 3394 
Q 2450 3394 2872 2941 
Q 3294 2488 3294 1666 
Q 3294 1616 3291 1516 
L 816 1516 
Q 847 969 1125 678 
Q 1403 388 1819 388 
Q 2128 388 2347 550 
Q 2566 713 2694 1069 
z
M 847 1978 
L 2700 1978 
Q 2663 2397 2488 2606 
Q 2219 2931 1791 2931 
Q 1403 2931 1139 2672 
Q 875 2413 847 1978 
z
" transform="scale(0.015625)"/>
       <path id="DejaVuSans-Oblique-3b5" d="M 1263 1888 
Q 925 1963 778 2166 
Q 669 2309 669 2503 
Q 669 3034 1175 3344 
Q 1575 3588 2188 3588 
Q 2425 3588 2684 3550 
Q 2944 3513 3234 3438 
L 3134 2916 
Q 2847 3006 2606 3047 
Q 2359 3088 2138 3088 
Q 1766 3088 1522 2944 
Q 1228 2772 1228 2522 
Q 1228 2356 1381 2241 
Q 1563 2103 1925 2103 
L 2409 2103 
L 2319 1628 
L 1856 1628 
Q 1425 1628 1172 1469 
Q 828 1253 828 916 
Q 828 703 1013 563 
Q 1244 388 1716 388 
Q 2006 388 2284 444 
Q 2563 503 2806 619 
L 2700 84 
Q 2403 -3 2131 -47 
Q 1859 -91 1609 -91 
Q 866 -91 516 194 
Q 250 413 250 781 
Q 250 1278 600 1584 
Q 859 1813 1263 1888 
z
" transform="scale(0.015625)"/>
      </defs>
      <use xlink:href="#ArialMT-4c" transform="translate(0 0.421875)"/>
      <use xlink:href="#ArialMT-75" transform="translate(55.615234 0.421875)"/>
      <use xlink:href="#ArialMT-6d" transform="translate(111.230469 0.421875)"/>
      <use xlink:href="#ArialMT-69" transform="translate(194.53125 0.421875)"/>
      <use xlink:href="#ArialMT-6e" transform="translate(216.748047 0.421875)"/>
      <use xlink:href="#ArialMT-6f" transform="translate(272.363281 0.421875)"/>
      <use xlink:href="#ArialMT-73" transform="translate(327.978516 0.421875)"/>
      <use xlink:href="#ArialMT-69" transform="translate(377.978516 0.421875)"/>
      <use xlink:href="#ArialMT-74" transform="translate(400.195312 0.421875)"/>
      <use xlink:href="#ArialMT-79" transform="translate(427.978516 0.421875)"/>
      <use xlink:href="#ArialMT-20" transform="translate(477.978516 0.421875)"/>
      <use xlink:href="#ArialMT-72" transform="translate(505.761719 0.421875)"/>
      <use xlink:href="#ArialMT-61" transform="translate(539.0625 0.421875)"/>
      <use xlink:href="#ArialMT-6e" transform="translate(594.677734 0.421875)"/>
      <use xlink:href="#ArialMT-67" transform="translate(650.292969 0.421875)"/>
      <use xlink:href="#ArialMT-65" transform="translate(705.908203 0.421875)"/>
      <use xlink:href="#ArialMT-20" transform="translate(761.523438 0.421875)"/>
      <use xlink:href="#DejaVuSans-Oblique-3b5" transform="translate(789.306641 0.421875)"/>
     </g>
    </g>
   </g>
   <g id="matplotlib.axis_2">
    <g id="ytick_1">
     <g id="line2d_5">
      <defs>
       <path id="m7ead976db4" d="M 0 0 
L -8 0 
" style="stroke: #000000; stroke-width: 2"/>
      </defs>
      <g>
       <use xlink:href="#m7ead976db4" x="74.4725" y="155.076411" style="stroke: #000000; stroke-width: 2"/>
      </g>
     </g>
     <g id="text_6">
      <!-- 1.00 -->
      <g transform="translate(29.344 161.260761)scale(0.1728 -0.1728)">
       <defs>
        <path id="ArialMT-31" d="M 2384 0 
L 1822 0 
L 1822 3584 
Q 1619 3391 1289 3197 
Q 959 3003 697 2906 
L 697 3450 
Q 1169 3672 1522 3987 
Q 1875 4303 2022 4600 
L 2384 4600 
L 2384 0 
z
" transform="scale(0.015625)"/>
       </defs>
       <use xlink:href="#ArialMT-31"/>
       <use xlink:href="#ArialMT-2e" x="55.615234"/>
       <use xlink:href="#ArialMT-30" x="83.398438"/>
       <use xlink:href="#ArialMT-30" x="139.013672"/>
      </g>
     </g>
    </g>
    <g id="ytick_2">
     <g id="line2d_6">
      <defs>
       <path id="md005c03dba" d="M 0 0 
L -2 0 
" style="stroke: #000000; stroke-width: 0.6"/>
      </defs>
      <g>
       <use xlink:href="#md005c03dba" x="74.4725" y="213.166183" style="stroke: #000000; stroke-width: 0.6"/>
      </g>
     </g>
    </g>
    <g id="ytick_3">
     <g id="line2d_7">
      <g>
       <use xlink:href="#md005c03dba" x="74.4725" y="197.886574" style="stroke: #000000; stroke-width: 0.6"/>
      </g>
     </g>
    </g>
    <g id="ytick_4">
     <g id="line2d_8">
      <g>
       <use xlink:href="#md005c03dba" x="74.4725" y="184.967849" style="stroke: #000000; stroke-width: 0.6"/>
      </g>
     </g>
    </g>
    <g id="ytick_5">
     <g id="line2d_9">
      <g>
       <use xlink:href="#md005c03dba" x="74.4725" y="173.77714" style="stroke: #000000; stroke-width: 0.6"/>
      </g>
     </g>
    </g>
    <g id="ytick_6">
     <g id="line2d_10">
      <g>
       <use xlink:href="#md005c03dba" x="74.4725" y="163.906236" style="stroke: #000000; stroke-width: 0.6"/>
      </g>
     </g>
    </g>
    <g id="ytick_7">
     <g id="line2d_11">
      <g>
       <use xlink:href="#md005c03dba" x="74.4725" y="96.986639" style="stroke: #000000; stroke-width: 0.6"/>
      </g>
     </g>
    </g>
    <g id="ytick_8">
     <g id="line2d_12">
      <g>
       <use xlink:href="#md005c03dba" x="74.4725" y="63.0063" style="stroke: #000000; stroke-width: 0.6"/>
      </g>
     </g>
    </g>
    <g id="ytick_9">
     <g id="line2d_13">
      <g>
       <use xlink:href="#md005c03dba" x="74.4725" y="38.896866" style="stroke: #000000; stroke-width: 0.6"/>
      </g>
     </g>
    </g>
    <g id="ytick_10">
     <g id="line2d_14">
      <g>
       <use xlink:href="#md005c03dba" x="74.4725" y="20.196137" style="stroke: #000000; stroke-width: 0.6"/>
      </g>
     </g>
    </g>
    <g id="text_7">
     <!-- Second moment $\mathbb{E}[x^2]$ -->
     <g transform="translate(21.9096 201.64445)rotate(-90)scale(0.1728 -0.1728)">
      <defs>
       <path id="ArialMT-53" d="M 288 1472 
L 859 1522 
Q 900 1178 1048 958 
Q 1197 738 1509 602 
Q 1822 466 2213 466 
Q 2559 466 2825 569 
Q 3091 672 3220 851 
Q 3350 1031 3350 1244 
Q 3350 1459 3225 1620 
Q 3100 1781 2813 1891 
Q 2628 1963 1997 2114 
Q 1366 2266 1113 2400 
Q 784 2572 623 2826 
Q 463 3081 463 3397 
Q 463 3744 659 4045 
Q 856 4347 1234 4503 
Q 1613 4659 2075 4659 
Q 2584 4659 2973 4495 
Q 3363 4331 3572 4012 
Q 3781 3694 3797 3291 
L 3216 3247 
Q 3169 3681 2898 3903 
Q 2628 4125 2100 4125 
Q 1550 4125 1298 3923 
Q 1047 3722 1047 3438 
Q 1047 3191 1225 3031 
Q 1400 2872 2139 2705 
Q 2878 2538 3153 2413 
Q 3553 2228 3743 1945 
Q 3934 1663 3934 1294 
Q 3934 928 3725 604 
Q 3516 281 3123 101 
Q 2731 -78 2241 -78 
Q 1619 -78 1198 103 
Q 778 284 539 648 
Q 300 1013 288 1472 
z
" transform="scale(0.015625)"/>
       <path id="ArialMT-63" d="M 2588 1216 
L 3141 1144 
Q 3050 572 2676 248 
Q 2303 -75 1759 -75 
Q 1078 -75 664 370 
Q 250 816 250 1647 
Q 250 2184 428 2587 
Q 606 2991 970 3192 
Q 1334 3394 1763 3394 
Q 2303 3394 2647 3120 
Q 2991 2847 3088 2344 
L 2541 2259 
Q 2463 2594 2264 2762 
Q 2066 2931 1784 2931 
Q 1359 2931 1093 2626 
Q 828 2322 828 1663 
Q 828 994 1084 691 
Q 1341 388 1753 388 
Q 2084 388 2306 591 
Q 2528 794 2588 1216 
z
" transform="scale(0.015625)"/>
       <path id="ArialMT-64" d="M 2575 0 
L 2575 419 
Q 2259 -75 1647 -75 
Q 1250 -75 917 144 
Q 584 363 401 755 
Q 219 1147 219 1656 
Q 219 2153 384 2558 
Q 550 2963 881 3178 
Q 1213 3394 1622 3394 
Q 1922 3394 2156 3267 
Q 2391 3141 2538 2938 
L 2538 4581 
L 3097 4581 
L 3097 0 
L 2575 0 
z
M 797 1656 
Q 797 1019 1065 703 
Q 1334 388 1700 388 
Q 2069 388 2326 689 
Q 2584 991 2584 1609 
Q 2584 2291 2321 2609 
Q 2059 2928 1675 2928 
Q 1300 2928 1048 2622 
Q 797 2316 797 1656 
z
" transform="scale(0.015625)"/>
       <path id="STIXNonUnicode-Italic-e156" d="M 4250 4179 
L 4192 3942 
L 2150 3942 
L 1709 2266 
L 3514 2266 
L 3443 2029 
L 1645 2029 
L 1165 237 
L 3443 237 
L 3392 0 
L 109 0 
L 1229 4179 
L 4250 4179 
z
M 1914 3942 
L 1414 3942 
L 416 237 
L 928 237 
L 1914 3942 
z
" transform="scale(0.015625)"/>
       <path id="DejaVuSans-5b" d="M 550 4863 
L 1875 4863 
L 1875 4416 
L 1125 4416 
L 1125 -397 
L 1875 -397 
L 1875 -844 
L 550 -844 
L 550 4863 
z
" transform="scale(0.015625)"/>
       <path id="DejaVuSans-Oblique-78" d="M 3841 3500 
L 2234 1784 
L 3219 0 
L 2559 0 
L 1819 1388 
L 531 0 
L -166 0 
L 1556 1844 
L 641 3500 
L 1300 3500 
L 1972 2234 
L 3144 3500 
L 3841 3500 
z
" transform="scale(0.015625)"/>
       <path id="DejaVuSans-32" d="M 1228 531 
L 3431 531 
L 3431 0 
L 469 0 
L 469 531 
Q 828 903 1448 1529 
Q 2069 2156 2228 2338 
Q 2531 2678 2651 2914 
Q 2772 3150 2772 3378 
Q 2772 3750 2511 3984 
Q 2250 4219 1831 4219 
Q 1534 4219 1204 4116 
Q 875 4013 500 3803 
L 500 4441 
Q 881 4594 1212 4672 
Q 1544 4750 1819 4750 
Q 2544 4750 2975 4387 
Q 3406 4025 3406 3419 
Q 3406 3131 3298 2873 
Q 3191 2616 2906 2266 
Q 2828 2175 2409 1742 
Q 1991 1309 1228 531 
z
" transform="scale(0.015625)"/>
       <path id="DejaVuSans-5d" d="M 1947 4863 
L 1947 -844 
L 622 -844 
L 622 -397 
L 1369 -397 
L 1369 4416 
L 622 4416 
L 622 4863 
L 1947 4863 
z
" transform="scale(0.015625)"/>
      </defs>
      <use xlink:href="#ArialMT-53" transform="translate(0 0.765625)"/>
      <use xlink:href="#ArialMT-65" transform="translate(66.699219 0.765625)"/>
      <use xlink:href="#ArialMT-63" transform="translate(122.314453 0.765625)"/>
      <use xlink:href="#ArialMT-6f" transform="translate(172.314453 0.765625)"/>
      <use xlink:href="#ArialMT-6e" transform="translate(227.929688 0.765625)"/>
      <use xlink:href="#ArialMT-64" transform="translate(283.544922 0.765625)"/>
      <use xlink:href="#ArialMT-20" transform="translate(339.160156 0.765625)"/>
      <use xlink:href="#ArialMT-6d" transform="translate(366.943359 0.765625)"/>
      <use xlink:href="#ArialMT-6f" transform="translate(450.244141 0.765625)"/>
      <use xlink:href="#ArialMT-6d" transform="translate(505.859375 0.765625)"/>
      <use xlink:href="#ArialMT-65" transform="translate(589.160156 0.765625)"/>
      <use xlink:href="#ArialMT-6e" transform="translate(644.775391 0.765625)"/>
      <use xlink:href="#ArialMT-74" transform="translate(700.390625 0.765625)"/>
      <use xlink:href="#ArialMT-20" transform="translate(728.173828 0.765625)"/>
      <use xlink:href="#STIXNonUnicode-Italic-e156" transform="translate(755.957031 0.765625)"/>
      <use xlink:href="#DejaVuSans-5b" transform="translate(819.857025 0.765625)"/>
      <use xlink:href="#DejaVuSans-Oblique-78" transform="translate(858.870697 0.765625)"/>
      <use xlink:href="#DejaVuSans-32" transform="translate(922.51653 39.046875)scale(0.7)"/>
      <use xlink:href="#DejaVuSans-5d" transform="translate(969.787038 0.765625)"/>
     </g>
    </g>
   </g>
   <g id="patch_3">
    <path d="M 99.785704 156.270385 
L 127.046078 156.270385 
L 127.046078 155.298119 
L 99.785704 155.298119 
L 99.785704 156.270385 
z
" clip-path="url(#p5cc73f2fc1)" style="fill: #ffffff; stroke: #000000; stroke-linejoin: miter"/>
   </g>
   <g id="line2d_15">
    <path d="M 113.415891 156.270385 
L 113.415891 156.270385 
" clip-path="url(#p5cc73f2fc1)" style="fill: none; stroke: #000000; stroke-linecap: square"/>
   </g>
   <g id="line2d_16">
    <path d="M 113.415891 155.298119 
L 113.415891 155.298119 
" clip-path="url(#p5cc73f2fc1)" style="fill: none; stroke: #000000; stroke-linecap: square"/>
   </g>
   <g id="line2d_17">
    <path d="M 106.600797 156.270385 
L 120.230984 156.270385 
" clip-path="url(#p5cc73f2fc1)" style="fill: none; stroke: #000000; stroke-linecap: square"/>
   </g>
   <g id="line2d_18">
    <path d="M 106.600797 155.298119 
L 120.230984 155.298119 
" clip-path="url(#p5cc73f2fc1)" style="fill: none; stroke: #000000; stroke-linecap: square"/>
   </g>
   <g id="line2d_19"/>
   <g id="patch_4">
    <path d="M 177.672486 155.654996 
L 204.932859 155.654996 
L 204.932859 155.521699 
L 177.672486 155.521699 
L 177.672486 155.654996 
z
" clip-path="url(#p5cc73f2fc1)" style="fill: #ffffff; stroke: #000000; stroke-linejoin: miter"/>
   </g>
   <g id="line2d_20">
    <path d="M 191.302672 155.654996 
L 191.302672 155.654996 
" clip-path="url(#p5cc73f2fc1)" style="fill: none; stroke: #000000; stroke-linecap: square"/>
   </g>
   <g id="line2d_21">
    <path d="M 191.302672 155.521699 
L 191.302672 155.521699 
" clip-path="url(#p5cc73f2fc1)" style="fill: none; stroke: #000000; stroke-linecap: square"/>
   </g>
   <g id="line2d_22">
    <path d="M 184.487579 155.654996 
L 198.117766 155.654996 
" clip-path="url(#p5cc73f2fc1)" style="fill: none; stroke: #000000; stroke-linecap: square"/>
   </g>
   <g id="line2d_23">
    <path d="M 184.487579 155.521699 
L 198.117766 155.521699 
" clip-path="url(#p5cc73f2fc1)" style="fill: none; stroke: #000000; stroke-linecap: square"/>
   </g>
   <g id="line2d_24">
    <defs>
     <path id="m1eb3a93b7f" d="M 0 2 
C 0.530406 2 1.03916 1.789267 1.414214 1.414214 
C 1.789267 1.03916 2 0.530406 2 0 
C 2 -0.530406 1.789267 -1.03916 1.414214 -1.414214 
C 1.03916 -1.789267 0.530406 -2 0 -2 
C -0.530406 -2 -1.03916 -1.789267 -1.414214 -1.414214 
C -1.789267 -1.03916 -2 -0.530406 -2 0 
C -2 0.530406 -1.789267 1.03916 -1.414214 1.414214 
C -1.03916 1.789267 -0.530406 2 0 2 
z
" style="stroke: #000000; stroke-opacity: 0.5"/>
    </defs>
    <g clip-path="url(#p5cc73f2fc1)">
     <use xlink:href="#m1eb3a93b7f" x="191.302672" y="157.13239" style="fill-opacity: 0; stroke: #000000; stroke-opacity: 0.5"/>
     <use xlink:href="#m1eb3a93b7f" x="191.302672" y="157.13239" style="fill-opacity: 0; stroke: #000000; stroke-opacity: 0.5"/>
    </g>
   </g>
   <g id="patch_5">
    <path d="M 255.559267 156.598205 
L 282.819641 156.598205 
L 282.819641 155.926107 
L 255.559267 155.926107 
L 255.559267 156.598205 
z
" clip-path="url(#p5cc73f2fc1)" style="fill: #ffffff; stroke: #000000; stroke-linejoin: miter"/>
   </g>
   <g id="line2d_25">
    <path d="M 269.189454 156.598205 
L 269.189454 156.598205 
" clip-path="url(#p5cc73f2fc1)" style="fill: none; stroke: #000000; stroke-linecap: square"/>
   </g>
   <g id="line2d_26">
    <path d="M 269.189454 155.926107 
L 269.189454 155.926107 
" clip-path="url(#p5cc73f2fc1)" style="fill: none; stroke: #000000; stroke-linecap: square"/>
   </g>
   <g id="line2d_27">
    <path d="M 262.374361 156.598205 
L 276.004547 156.598205 
" clip-path="url(#p5cc73f2fc1)" style="fill: none; stroke: #000000; stroke-linecap: square"/>
   </g>
   <g id="line2d_28">
    <path d="M 262.374361 155.926107 
L 276.004547 155.926107 
" clip-path="url(#p5cc73f2fc1)" style="fill: none; stroke: #000000; stroke-linecap: square"/>
   </g>
   <g id="line2d_29">
    <g clip-path="url(#p5cc73f2fc1)">
     <use xlink:href="#m1eb3a93b7f" x="269.189454" y="153.670738" style="fill-opacity: 0; stroke: #000000; stroke-opacity: 0.5"/>
     <use xlink:href="#m1eb3a93b7f" x="269.189454" y="153.670738" style="fill-opacity: 0; stroke: #000000; stroke-opacity: 0.5"/>
    </g>
   </g>
   <g id="patch_6">
    <path d="M 333.446049 210.583003 
L 360.706422 210.583003 
L 360.706422 158.032556 
L 333.446049 158.032556 
L 333.446049 210.583003 
z
" clip-path="url(#p5cc73f2fc1)" style="fill: #ffffff; stroke: #000000; stroke-linejoin: miter"/>
   </g>
   <g id="line2d_30">
    <path d="M 347.076236 210.583003 
L 347.076236 210.583003 
" clip-path="url(#p5cc73f2fc1)" style="fill: none; stroke: #000000; stroke-linecap: square"/>
   </g>
   <g id="line2d_31">
    <path d="M 347.076236 158.032556 
L 347.076236 158.032556 
" clip-path="url(#p5cc73f2fc1)" style="fill: none; stroke: #000000; stroke-linecap: square"/>
   </g>
   <g id="line2d_32">
    <path d="M 340.261142 210.583003 
L 353.891329 210.583003 
" clip-path="url(#p5cc73f2fc1)" style="fill: none; stroke: #000000; stroke-linecap: square"/>
   </g>
   <g id="line2d_33">
    <path d="M 340.261142 158.032556 
L 353.891329 158.032556 
" clip-path="url(#p5cc73f2fc1)" style="fill: none; stroke: #000000; stroke-linecap: square"/>
   </g>
   <g id="line2d_34"/>
   <g id="line2d_35"/>
   <g id="patch_7">
    <path d="M 127.046078 173.341041 
L 154.306451 173.341041 
L 154.306451 117.750591 
L 127.046078 117.750591 
L 127.046078 173.341041 
z
" clip-path="url(#p5cc73f2fc1)" style="fill: #808080; stroke: #000000; stroke-linejoin: miter"/>
   </g>
   <g id="line2d_36">
    <path d="M 140.676264 173.341041 
L 140.676264 199.831644 
" clip-path="url(#p5cc73f2fc1)" style="fill: none; stroke: #000000; stroke-linecap: square"/>
   </g>
   <g id="line2d_37">
    <path d="M 140.676264 117.750591 
L 140.676264 84.9945 
" clip-path="url(#p5cc73f2fc1)" style="fill: none; stroke: #000000; stroke-linecap: square"/>
   </g>
   <g id="line2d_38">
    <path d="M 133.861171 199.831644 
L 147.491358 199.831644 
" clip-path="url(#p5cc73f2fc1)" style="fill: none; stroke: #000000; stroke-linecap: square"/>
   </g>
   <g id="line2d_39">
    <path d="M 133.861171 84.9945 
L 147.491358 84.9945 
" clip-path="url(#p5cc73f2fc1)" style="fill: none; stroke: #000000; stroke-linecap: square"/>
   </g>
   <g id="line2d_40"/>
   <g id="patch_8">
    <path d="M 204.932859 187.89019 
L 232.193233 187.89019 
L 232.193233 141.70545 
L 204.932859 141.70545 
L 204.932859 187.89019 
z
" clip-path="url(#p5cc73f2fc1)" style="fill: #808080; stroke: #000000; stroke-linejoin: miter"/>
   </g>
   <g id="line2d_41">
    <path d="M 218.563046 187.89019 
L 218.563046 211.982168 
" clip-path="url(#p5cc73f2fc1)" style="fill: none; stroke: #000000; stroke-linecap: square"/>
   </g>
   <g id="line2d_42">
    <path d="M 218.563046 141.70545 
L 218.563046 112.317381 
" clip-path="url(#p5cc73f2fc1)" style="fill: none; stroke: #000000; stroke-linecap: square"/>
   </g>
   <g id="line2d_43">
    <path d="M 211.747953 211.982168 
L 225.378139 211.982168 
" clip-path="url(#p5cc73f2fc1)" style="fill: none; stroke: #000000; stroke-linecap: square"/>
   </g>
   <g id="line2d_44">
    <path d="M 211.747953 112.317381 
L 225.378139 112.317381 
" clip-path="url(#p5cc73f2fc1)" style="fill: none; stroke: #000000; stroke-linecap: square"/>
   </g>
   <g id="line2d_45">
    <g clip-path="url(#p5cc73f2fc1)">
     <use xlink:href="#m1eb3a93b7f" x="218.563046" y="85.543063" style="fill-opacity: 0; stroke: #000000; stroke-opacity: 0.5"/>
    </g>
   </g>
   <g id="patch_9">
    <path d="M 282.819641 168.937748 
L 310.080014 168.937748 
L 310.080014 116.695124 
L 282.819641 116.695124 
L 282.819641 168.937748 
z
" clip-path="url(#p5cc73f2fc1)" style="fill: #808080; stroke: #000000; stroke-linejoin: miter"/>
   </g>
   <g id="line2d_46">
    <path d="M 296.449828 168.937748 
L 296.449828 189.290173 
" clip-path="url(#p5cc73f2fc1)" style="fill: none; stroke: #000000; stroke-linecap: square"/>
   </g>
   <g id="line2d_47">
    <path d="M 296.449828 116.695124 
L 296.449828 106.936693 
" clip-path="url(#p5cc73f2fc1)" style="fill: none; stroke: #000000; stroke-linecap: square"/>
   </g>
   <g id="line2d_48">
    <path d="M 289.634734 189.290173 
L 303.264921 189.290173 
" clip-path="url(#p5cc73f2fc1)" style="fill: none; stroke: #000000; stroke-linecap: square"/>
   </g>
   <g id="line2d_49">
    <path d="M 289.634734 106.936693 
L 303.264921 106.936693 
" clip-path="url(#p5cc73f2fc1)" style="fill: none; stroke: #000000; stroke-linecap: square"/>
   </g>
   <g id="line2d_50">
    <g clip-path="url(#p5cc73f2fc1)">
     <use xlink:href="#m1eb3a93b7f" x="296.449828" y="16.951532" style="fill-opacity: 0; stroke: #000000; stroke-opacity: 0.5"/>
    </g>
   </g>
   <g id="patch_10">
    <path d="M 360.706422 123.967062 
L 387.966796 123.967062 
L 387.966796 85.885334 
L 360.706422 85.885334 
L 360.706422 123.967062 
z
" clip-path="url(#p5cc73f2fc1)" style="fill: #808080; stroke: #000000; stroke-linejoin: miter"/>
   </g>
   <g id="line2d_51">
    <path d="M 374.336609 123.967062 
L 374.336609 150.41733 
" clip-path="url(#p5cc73f2fc1)" style="fill: none; stroke: #000000; stroke-linecap: square"/>
   </g>
   <g id="line2d_52">
    <path d="M 374.336609 85.885334 
L 374.336609 57.976187 
" clip-path="url(#p5cc73f2fc1)" style="fill: none; stroke: #000000; stroke-linecap: square"/>
   </g>
   <g id="line2d_53">
    <path d="M 367.521516 150.41733 
L 381.151703 150.41733 
" clip-path="url(#p5cc73f2fc1)" style="fill: none; stroke: #000000; stroke-linecap: square"/>
   </g>
   <g id="line2d_54">
    <path d="M 367.521516 57.976187 
L 381.151703 57.976187 
" clip-path="url(#p5cc73f2fc1)" style="fill: none; stroke: #000000; stroke-linecap: square"/>
   </g>
   <g id="line2d_55"/>
   <g id="line2d_56"/>
   <g id="line2d_57">
    <path d="M 74.4725 155.076411 
L 413.28 155.076411 
" clip-path="url(#p5cc73f2fc1)" style="fill: none; stroke-dasharray: 1.2,1.98; stroke-dashoffset: 0; stroke: #000000; stroke-width: 1.2"/>
   </g>
   <g id="line2d_58">
    <path d="M 99.785704 155.418035 
L 127.046078 155.418035 
" clip-path="url(#p5cc73f2fc1)" style="fill: none; stroke: #ff0000; stroke-linecap: square"/>
   </g>
   <g id="line2d_59">
    <path d="M 177.672486 155.654996 
L 204.932859 155.654996 
" clip-path="url(#p5cc73f2fc1)" style="fill: none; stroke: #ff0000; stroke-linecap: square"/>
   </g>
   <g id="line2d_60">
    <path d="M 255.559267 155.926107 
L 282.819641 155.926107 
" clip-path="url(#p5cc73f2fc1)" style="fill: none; stroke: #ff0000; stroke-linecap: square"/>
   </g>
   <g id="line2d_61">
    <path d="M 333.446049 209.172697 
L 360.706422 209.172697 
" clip-path="url(#p5cc73f2fc1)" style="fill: none; stroke: #ff0000; stroke-linecap: square"/>
   </g>
   <g id="line2d_62">
    <path d="M 127.046078 139.73846 
L 154.306451 139.73846 
" clip-path="url(#p5cc73f2fc1)" style="fill: none; stroke: #000000; stroke-linecap: square"/>
   </g>
   <g id="line2d_63">
    <path d="M 204.932859 153.95741 
L 232.193233 153.95741 
" clip-path="url(#p5cc73f2fc1)" style="fill: none; stroke: #000000; stroke-linecap: square"/>
   </g>
   <g id="line2d_64">
    <path d="M 282.819641 138.961672 
L 310.080014 138.961672 
" clip-path="url(#p5cc73f2fc1)" style="fill: none; stroke: #000000; stroke-linecap: square"/>
   </g>
   <g id="line2d_65">
    <path d="M 360.706422 109.701626 
L 387.966796 109.701626 
" clip-path="url(#p5cc73f2fc1)" style="fill: none; stroke: #000000; stroke-linecap: square"/>
   </g>
   <g id="patch_11">
    <path d="M 74.4725 221.7337 
L 74.4725 7.2 
" style="fill: none; stroke: #000000; stroke-width: 1.5; stroke-linejoin: miter; stroke-linecap: square"/>
   </g>
   <g id="patch_12">
    <path d="M 74.4725 221.7337 
L 413.28 221.7337 
" style="fill: none; stroke: #000000; stroke-width: 1.5; stroke-linejoin: miter; stroke-linecap: square"/>
   </g>
   <g id="legend_1">
    <g id="line2d_66">
     <defs>
      <path id="m3225fece50" d="M -5 5 
L 5 5 
L 5 -5 
L -5 -5 
z
" style="stroke: #000000; stroke-width: 2.5; stroke-linejoin: miter"/>
     </defs>
     <g>
      <use xlink:href="#m3225fece50" x="107.3045" y="29.0727" style="fill: #ffffff; stroke: #000000; stroke-width: 2.5; stroke-linejoin: miter"/>
     </g>
    </g>
    <g id="text_8">
     <!-- I-Norm -->
     <g transform="translate(138.4085 35.1207)scale(0.1728 -0.1728)">
      <defs>
       <path id="ArialMT-49" d="M 597 0 
L 597 4581 
L 1203 4581 
L 1203 0 
L 597 0 
z
" transform="scale(0.015625)"/>
       <path id="ArialMT-2d" d="M 203 1375 
L 203 1941 
L 1931 1941 
L 1931 1375 
L 203 1375 
z
" transform="scale(0.015625)"/>
       <path id="ArialMT-4e" d="M 488 0 
L 488 4581 
L 1109 4581 
L 3516 984 
L 3516 4581 
L 4097 4581 
L 4097 0 
L 3475 0 
L 1069 3600 
L 1069 0 
L 488 0 
z
" transform="scale(0.015625)"/>
      </defs>
      <use xlink:href="#ArialMT-49"/>
      <use xlink:href="#ArialMT-2d" x="27.783203"/>
      <use xlink:href="#ArialMT-4e" x="61.083984"/>
      <use xlink:href="#ArialMT-6f" x="133.300781"/>
      <use xlink:href="#ArialMT-72" x="188.916016"/>
      <use xlink:href="#ArialMT-6d" x="222.216797"/>
     </g>
    </g>
    <g id="line2d_67">
     <defs>
      <path id="m424bab5878" d="M -5 5 
L 5 5 
L 5 -5 
L -5 -5 
z
" style="stroke: #000000; stroke-width: 2.5; stroke-linejoin: miter"/>
     </defs>
     <g>
      <use xlink:href="#m424bab5878" x="107.3045" y="53.5158" style="fill: #808080; stroke: #000000; stroke-width: 2.5; stroke-linejoin: miter"/>
     </g>
    </g>
    <g id="text_9">
     <!-- No-Norm -->
     <g transform="translate(138.4085 59.5638)scale(0.1728 -0.1728)">
      <use xlink:href="#ArialMT-4e"/>
      <use xlink:href="#ArialMT-6f" x="72.216797"/>
      <use xlink:href="#ArialMT-2d" x="127.832031"/>
      <use xlink:href="#ArialMT-4e" x="161.132812"/>
      <use xlink:href="#ArialMT-6f" x="233.349609"/>
      <use xlink:href="#ArialMT-72" x="288.964844"/>
      <use xlink:href="#ArialMT-6d" x="322.265625"/>
     </g>
    </g>
   </g>
  </g>
 </g>
 <defs>
  <clipPath id="p5cc73f2fc1">
   <rect x="74.4725" y="7.2" width="338.8075" height="214.5337"/>
  </clipPath>
 </defs>
</svg>
