<?xml version="1.0" encoding="utf-8" standalone="no"?>
<!DOCTYPE svg PUBLIC "-//W3C//DTD SVG 1.1//EN"
  "http://www.w3.org/Graphics/SVG/1.1/DTD/svg11.dtd">
<svg xmlns:xlink="http://www.w3.org/1999/xlink" width="420.473655pt" height="172.087pt" viewBox="0 0 420.473655 172.087" xmlns="http://www.w3.org/2000/svg" version="1.1">
 <metadata>
  <rdf:RDF xmlns:dc="http://purl.org/dc/elements/1.1/" xmlns:cc="http://creativecommons.org/ns#" xmlns:rdf="http://www.w3.org/1999/02/22-rdf-syntax-ns#">
   <cc:Work>
    <dc:type rdf:resource="http://purl.org/dc/dcmitype/StillImage"/>
    <dc:date>2025-11-17T10:10:39.337149</dc:date>
    <dc:format>image/svg+xml</dc:format>
    <dc:creator>
     <cc:Agent>
      <dc:title>Matplotlib v3.5.3, https://matplotlib.org/</dc:title>
     </cc:Agent>
    </dc:creator>
   </cc:Work>
  </rdf:RDF>
 </metadata>
 <defs>
  <style type="text/css">*{stroke-linejoin: round; stroke-linecap: butt}</style>
 </defs>
 <g id="figure_1">
  <g id="patch_1">
   <path d="M 0 172.087 
L 420.473655 172.087 
L 420.473655 0 
L 0 0 
z
" style="fill: #ffffff"/>
  </g>
  <g id="axes_1">
   <g id="patch_2">
    <path d="M 82.1648 117.7808 
L 412.552331 117.7808 
L 412.552331 29.1757 
L 82.1648 29.1757 
z
" style="fill: #ffffff"/>
   </g>
   <g id="PolyCollection_1">
    <defs>
     <path id="ma27619f661" d="M 97.182415 -138.811535 
L 97.182415 -137.219834 
L 103.312054 -136.519664 
L 109.441693 -136.133502 
L 115.571331 -136.011815 
L 121.70097 -135.94849 
L 127.830609 -135.936727 
L 133.960248 -135.98458 
L 140.089887 -135.971163 
L 146.219525 -136.015336 
L 152.349164 -136.017576 
L 158.478803 -136.061935 
L 164.608442 -136.063856 
L 170.738081 -136.028513 
L 176.867719 -136.087889 
L 182.997358 -136.059588 
L 189.126997 -136.079007 
L 195.256636 -136.12598 
L 201.386275 -136.069057 
L 207.515914 -136.119471 
L 213.645552 -136.092931 
L 219.775191 -136.175381 
L 225.90483 -136.160656 
L 232.034469 -136.216912 
L 238.164108 -136.259511 
L 244.293746 -136.251349 
L 250.423385 -136.261618 
L 256.553024 -136.309552 
L 262.682663 -136.312406 
L 268.812302 -136.341961 
L 274.94194 -136.364047 
L 281.071579 -136.386373 
L 287.201218 -136.402191 
L 293.330857 -136.486641 
L 299.460496 -136.474318 
L 305.590134 -136.512569 
L 311.719773 -136.531241 
L 317.849412 -136.585896 
L 323.979051 -136.575306 
L 330.10869 -136.612784 
L 336.238328 -136.663384 
L 342.367967 -136.671893 
L 348.497606 -136.706223 
L 354.627245 -136.71916 
L 360.756884 -136.727162 
L 366.886522 -136.739619 
L 373.016161 -136.752129 
L 379.1458 -136.805958 
L 385.275439 -136.786699 
L 391.405078 -136.82583 
L 397.534716 -136.834606 
L 397.534716 -137.346243 
L 397.534716 -137.346243 
L 391.405078 -137.351578 
L 385.275439 -137.342802 
L 379.1458 -137.360754 
L 373.016161 -137.430774 
L 366.886522 -137.432294 
L 360.756884 -137.460435 
L 354.627245 -137.490657 
L 348.497606 -137.503221 
L 342.367967 -137.516318 
L 336.238328 -137.530988 
L 330.10869 -137.566758 
L 323.979051 -137.583216 
L 317.849412 -137.588898 
L 311.719773 -137.617306 
L 305.590134 -137.63147 
L 299.460496 -137.636458 
L 293.330857 -137.656037 
L 287.201218 -137.680124 
L 281.071579 -137.691994 
L 274.94194 -137.717574 
L 268.812302 -137.741234 
L 262.682663 -137.735179 
L 256.553024 -137.744995 
L 250.423385 -137.771616 
L 244.293746 -137.769322 
L 238.164108 -137.782659 
L 232.034469 -137.811147 
L 225.90483 -137.810987 
L 219.775191 -137.826485 
L 213.645552 -137.854973 
L 207.515914 -137.891756 
L 201.386275 -137.893357 
L 195.256636 -137.92638 
L 189.126997 -137.943718 
L 182.997358 -137.968631 
L 176.867719 -137.972899 
L 170.738081 -138.016031 
L 164.608442 -138.038865 
L 158.478803 -138.043933 
L 152.349164 -138.071834 
L 146.219525 -138.095014 
L 140.089887 -138.140706 
L 133.960248 -138.178717 
L 127.830609 -138.2127 
L 121.70097 -138.268769 
L 115.571331 -138.326492 
L 109.441693 -138.458609 
L 103.312054 -138.603823 
L 97.182415 -138.811535 
z
" style="stroke: #595c79; stroke-opacity: 0.15; stroke-width: 2.5"/>
    </defs>
    <g clip-path="url(#p69f5849ee1)">
     <use xlink:href="#ma27619f661" x="0" y="172.087" style="fill: #595c79; fill-opacity: 0.15; stroke: #595c79; stroke-opacity: 0.15; stroke-width: 2.5"/>
    </g>
   </g>
   <g id="PolyCollection_2">
    <defs>
     <path id="m8c2bd780b8" d="M 97.182415 -138.883795 
L 97.182415 -135.855317 
L 103.312054 -134.668343 
L 109.441693 -134.081672 
L 115.571331 -134.032298 
L 121.70097 -134.045982 
L 127.830609 -133.453708 
L 133.960248 -133.633946 
L 140.089887 -132.567433 
L 146.219525 -133.761795 
L 152.349164 -133.643549 
L 158.478803 -131.952646 
L 164.608442 -133.308548 
L 170.738081 -133.49636 
L 176.867719 -132.577329 
L 182.997358 -133.276352 
L 189.126997 -132.5685 
L 195.256636 -133.061492 
L 201.386275 -132.323977 
L 207.515914 -133.583185 
L 213.645552 -132.836442 
L 219.775191 -133.081497 
L 225.90483 -132.828679 
L 232.034469 -133.63696 
L 238.164108 -133.362349 
L 244.293746 -132.304879 
L 250.423385 -133.638747 
L 256.553024 -133.040099 
L 262.682663 -133.401 
L 268.812302 -133.922614 
L 274.94194 -134.00581 
L 281.071579 -133.700018 
L 287.201218 -133.269657 
L 293.330857 -134.028804 
L 299.460496 -133.309721 
L 305.590134 -133.711568 
L 311.719773 -133.815544 
L 317.849412 -133.681266 
L 323.979051 -134.37018 
L 330.10869 -133.618421 
L 336.238328 -133.694443 
L 342.367967 -133.764222 
L 348.497606 -134.163935 
L 354.627245 -134.61054 
L 360.756884 -134.254307 
L 366.886522 -134.16887 
L 373.016161 -133.228925 
L 379.1458 -134.390585 
L 385.275439 -134.569729 
L 391.405078 -134.379889 
L 397.534716 -133.788949 
L 397.534716 -136.971818 
L 397.534716 -136.971818 
L 391.405078 -137.110017 
L 385.275439 -136.999612 
L 379.1458 -137.108603 
L 373.016161 -137.116312 
L 366.886522 -137.068325 
L 360.756884 -137.210045 
L 354.627245 -137.187985 
L 348.497606 -137.134397 
L 342.367967 -137.193907 
L 336.238328 -137.302898 
L 330.10869 -137.204256 
L 323.979051 -137.244028 
L 317.849412 -137.284679 
L 311.719773 -137.258752 
L 305.590134 -137.254751 
L 299.460496 -137.27505 
L 293.330857 -137.341869 
L 287.201218 -137.398871 
L 281.071579 -137.368783 
L 274.94194 -137.37041 
L 268.812302 -137.356113 
L 262.682663 -137.442003 
L 256.553024 -137.446698 
L 250.423385 -137.45302 
L 244.293746 -137.479961 
L 238.164108 -137.443577 
L 232.034469 -137.504874 
L 225.90483 -137.514824 
L 219.775191 -137.485562 
L 213.645552 -137.575321 
L 207.515914 -137.594153 
L 201.386275 -137.51149 
L 195.256636 -137.52464 
L 189.126997 -137.638992 
L 182.997358 -137.685272 
L 176.867719 -137.584657 
L 170.738081 -137.631657 
L 164.608442 -137.756358 
L 158.478803 -137.691007 
L 152.349164 -137.797277 
L 146.219525 -137.810027 
L 140.089887 -137.76044 
L 133.960248 -137.809573 
L 127.830609 -137.9271 
L 121.70097 -138.155431 
L 115.571331 -138.326492 
L 109.441693 -138.448313 
L 103.312054 -138.637166 
L 97.182415 -138.883795 
z
" style="stroke: #7f909f; stroke-opacity: 0.15; stroke-width: 2.5"/>
    </defs>
    <g clip-path="url(#p69f5849ee1)">
     <use xlink:href="#m8c2bd780b8" x="0" y="172.087" style="fill: #7f909f; fill-opacity: 0.15; stroke: #7f909f; stroke-opacity: 0.15; stroke-width: 2.5"/>
    </g>
   </g>
   <g id="PolyCollection_3">
    <defs>
     <path id="ma4bdbdd68b" d="M 97.182415 -138.563145 
L 97.182415 -129.658828 
L 103.312054 -126.234398 
L 109.441693 -126.551528 
L 115.571331 -128.712562 
L 121.70097 -128.043974 
L 127.830609 -128.950309 
L 133.960248 -130.032053 
L 140.089887 -127.113392 
L 146.219525 -130.004472 
L 152.349164 -130.105114 
L 158.478803 -127.144121 
L 164.608442 -129.236923 
L 170.738081 -131.139378 
L 176.867719 -130.436327 
L 182.997358 -129.983826 
L 189.126997 -128.030183 
L 195.256636 -130.003458 
L 201.386275 -128.460571 
L 207.515914 -130.332537 
L 213.645552 -128.807575 
L 219.775191 -129.16813 
L 225.90483 -130.006472 
L 232.034469 -130.386819 
L 238.164108 -129.684622 
L 244.293746 -128.406583 
L 250.423385 -130.084094 
L 256.553024 -129.800388 
L 262.682663 -129.815139 
L 268.812302 -130.431632 
L 274.94194 -131.370189 
L 281.071579 -130.761325 
L 287.201218 -129.806336 
L 293.330857 -130.854738 
L 299.460496 -130.038028 
L 305.590134 -130.386259 
L 311.719773 -130.972504 
L 317.849412 -130.851563 
L 323.979051 -131.365948 
L 330.10869 -130.012688 
L 336.238328 -130.42507 
L 342.367967 -130.014848 
L 348.497606 -130.751215 
L 354.627245 -131.696975 
L 360.756884 -130.776636 
L 366.886522 -130.533661 
L 373.016161 -129.86614 
L 379.1458 -130.918622 
L 385.275439 -131.823063 
L 391.405078 -131.204569 
L 397.534716 -130.516376 
L 397.534716 -136.5282 
L 397.534716 -136.5282 
L 391.405078 -137.007001 
L 385.275439 -136.827857 
L 379.1458 -136.892569 
L 373.016161 -136.710171 
L 366.886522 -136.984301 
L 360.756884 -136.968323 
L 354.627245 -136.970697 
L 348.497606 -137.014096 
L 342.367967 -136.743594 
L 336.238328 -137.173581 
L 330.10869 -137.100761 
L 323.979051 -136.957147 
L 317.849412 -137.104869 
L 311.719773 -137.119966 
L 305.590134 -136.956694 
L 299.460496 -136.796889 
L 293.330857 -136.926312 
L 287.201218 -136.956187 
L 281.071579 -137.076594 
L 274.94194 -136.92167 
L 268.812302 -137.117032 
L 262.682663 -137.166966 
L 256.553024 -136.94485 
L 250.423385 -137.125168 
L 244.293746 -137.113244 
L 238.164108 -137.123007 
L 232.034469 -136.994624 
L 225.90483 -137.150348 
L 219.775191 -137.075954 
L 213.645552 -137.155496 
L 207.515914 -137.377345 
L 201.386275 -137.196041 
L 195.256636 -137.199508 
L 189.126997 -137.191773 
L 182.997358 -137.377238 
L 176.867719 -137.332533 
L 170.738081 -137.299563 
L 164.608442 -137.560357 
L 158.478803 -137.349471 
L 152.349164 -137.558356 
L 146.219525 -137.543392 
L 140.089887 -137.319782 
L 133.960248 -137.670681 
L 127.830609 -137.757665 
L 121.70097 -138.032809 
L 115.571331 -138.143507 
L 109.441693 -138.101362 
L 103.312054 -138.236227 
L 97.182415 -138.563145 
z
" style="stroke: #a4c2c3; stroke-opacity: 0.15; stroke-width: 2.5"/>
    </defs>
    <g clip-path="url(#p69f5849ee1)">
     <use xlink:href="#ma4bdbdd68b" x="0" y="172.087" style="fill: #a4c2c3; fill-opacity: 0.15; stroke: #a4c2c3; stroke-opacity: 0.15; stroke-width: 2.5"/>
    </g>
   </g>
   <g id="PolyCollection_4">
    <defs>
     <path id="m5230c7f2b3" d="M 97.182415 -137.850572 
L 97.182415 -100.723945 
L 103.312054 -91.096064 
L 109.441693 -81.251056 
L 115.571331 -90.745112 
L 121.70097 -86.206502 
L 127.830609 -90.347507 
L 133.960248 -91.396282 
L 140.089887 -93.022392 
L 146.219525 -93.588098 
L 152.349164 -95.30098 
L 158.478803 -58.333705 
L 164.608442 -97.299115 
L 170.738081 -98.446504 
L 176.867719 -99.879281 
L 182.997358 -88.709233 
L 189.126997 -88.609872 
L 195.256636 -86.837827 
L 201.386275 -104.464463 
L 207.515914 -101.494668 
L 213.645552 -107.946723 
L 219.775191 -101.92719 
L 225.90483 -103.596699 
L 232.034469 -90.427129 
L 238.164108 -102.056186 
L 244.293746 -93.947453 
L 250.423385 -104.242481 
L 256.553024 -99.039258 
L 262.682663 -107.242711 
L 268.812302 -91.988795 
L 274.94194 -112.166736 
L 281.071579 -98.861021 
L 287.201218 -110.585838 
L 293.330857 -95.784449 
L 299.460496 -113.48572 
L 305.590134 -110.527635 
L 311.719773 -105.250578 
L 317.849412 -108.154408 
L 323.979051 -98.94139 
L 330.10869 -106.470014 
L 336.238328 -109.393663 
L 342.367967 -101.169697 
L 348.497606 -104.011136 
L 354.627245 -105.989105 
L 360.756884 -109.993751 
L 366.886522 -91.890954 
L 373.016161 -104.686979 
L 379.1458 -107.51092 
L 385.275439 -112.279541 
L 391.405078 -113.167417 
L 397.534716 -100.423274 
L 397.534716 -135.549871 
L 397.534716 -135.549871 
L 391.405078 -136.465382 
L 385.275439 -136.11275 
L 379.1458 -136.056254 
L 373.016161 -136.168285 
L 366.886522 -136.123793 
L 360.756884 -136.317821 
L 354.627245 -136.420916 
L 348.497606 -136.178848 
L 342.367967 -136.102907 
L 336.238328 -136.737272 
L 330.10869 -136.30515 
L 323.979051 -136.195199 
L 317.849412 -136.486961 
L 311.719773 -136.605075 
L 305.590134 -136.269514 
L 299.460496 -135.9128 
L 293.330857 -135.967695 
L 287.201218 -135.799168 
L 281.071579 -136.299282 
L 274.94194 -136.262072 
L 268.812302 -136.186317 
L 262.682663 -136.393308 
L 256.553024 -136.199814 
L 250.423385 -136.284531 
L 244.293746 -136.212564 
L 238.164108 -136.295894 
L 232.034469 -136.078607 
L 225.90483 -136.39931 
L 219.775191 -136.305924 
L 213.645552 -136.278209 
L 207.515914 -136.697981 
L 201.386275 -136.601367 
L 195.256636 -135.901357 
L 189.126997 -136.098559 
L 182.997358 -136.512222 
L 176.867719 -136.586776 
L 170.738081 -136.602914 
L 164.608442 -137.08521 
L 158.478803 -136.348603 
L 152.349164 -137.060616 
L 146.219525 -136.983128 
L 140.089887 -136.50694 
L 133.960248 -137.129569 
L 127.830609 -137.242267 
L 121.70097 -137.552541 
L 115.571331 -137.869484 
L 109.441693 -137.428826 
L 103.312054 -137.360674 
L 97.182415 -137.850572 
z
" style="stroke: #dde9e9; stroke-opacity: 0.15; stroke-width: 2.5"/>
    </defs>
    <g clip-path="url(#p69f5849ee1)">
     <use xlink:href="#m5230c7f2b3" x="0" y="172.087" style="fill: #dde9e9; fill-opacity: 0.15; stroke: #dde9e9; stroke-opacity: 0.15; stroke-width: 2.5"/>
    </g>
   </g>
   <g id="matplotlib.axis_1">
    <g id="xtick_1">
     <g id="line2d_1">
      <defs>
       <path id="m98dfa51f8c" d="M 0 0 
L 0 8 
" style="stroke: #000000; stroke-width: 2"/>
      </defs>
      <g>
       <use xlink:href="#m98dfa51f8c" x="97.182415" y="117.7808" style="stroke: #000000; stroke-width: 2"/>
      </g>
     </g>
     <g id="text_1">
      <!-- 0 -->
      <g transform="translate(92.377765 141.6495)scale(0.1728 -0.1728)">
       <defs>
        <path id="ArialMT-30" d="M 266 2259 
Q 266 3072 433 3567 
Q 600 4063 929 4331 
Q 1259 4600 1759 4600 
Q 2128 4600 2406 4451 
Q 2684 4303 2865 4023 
Q 3047 3744 3150 3342 
Q 3253 2941 3253 2259 
Q 3253 1453 3087 958 
Q 2922 463 2592 192 
Q 2263 -78 1759 -78 
Q 1097 -78 719 397 
Q 266 969 266 2259 
z
M 844 2259 
Q 844 1131 1108 757 
Q 1372 384 1759 384 
Q 2147 384 2411 759 
Q 2675 1134 2675 2259 
Q 2675 3391 2411 3762 
Q 2147 4134 1753 4134 
Q 1366 4134 1134 3806 
Q 844 3388 844 2259 
z
" transform="scale(0.015625)"/>
       </defs>
       <use xlink:href="#ArialMT-30"/>
      </g>
     </g>
    </g>
    <g id="xtick_2">
     <g id="line2d_2">
      <g>
       <use xlink:href="#m98dfa51f8c" x="158.478803" y="117.7808" style="stroke: #000000; stroke-width: 2"/>
      </g>
     </g>
     <g id="text_2">
      <!-- 10 -->
      <g transform="translate(148.869503 141.6495)scale(0.1728 -0.1728)">
       <defs>
        <path id="ArialMT-31" d="M 2384 0 
L 1822 0 
L 1822 3584 
Q 1619 3391 1289 3197 
Q 959 3003 697 2906 
L 697 3450 
Q 1169 3672 1522 3987 
Q 1875 4303 2022 4600 
L 2384 4600 
L 2384 0 
z
" transform="scale(0.015625)"/>
       </defs>
       <use xlink:href="#ArialMT-31"/>
       <use xlink:href="#ArialMT-30" x="55.615234"/>
      </g>
     </g>
    </g>
    <g id="xtick_3">
     <g id="line2d_3">
      <g>
       <use xlink:href="#m98dfa51f8c" x="219.775191" y="117.7808" style="stroke: #000000; stroke-width: 2"/>
      </g>
     </g>
     <g id="text_3">
      <!-- 20 -->
      <g transform="translate(210.165891 141.6495)scale(0.1728 -0.1728)">
       <defs>
        <path id="ArialMT-32" d="M 3222 541 
L 3222 0 
L 194 0 
Q 188 203 259 391 
Q 375 700 629 1000 
Q 884 1300 1366 1694 
Q 2113 2306 2375 2664 
Q 2638 3022 2638 3341 
Q 2638 3675 2398 3904 
Q 2159 4134 1775 4134 
Q 1369 4134 1125 3890 
Q 881 3647 878 3216 
L 300 3275 
Q 359 3922 746 4261 
Q 1134 4600 1788 4600 
Q 2447 4600 2831 4234 
Q 3216 3869 3216 3328 
Q 3216 3053 3103 2787 
Q 2991 2522 2730 2228 
Q 2469 1934 1863 1422 
Q 1356 997 1212 845 
Q 1069 694 975 541 
L 3222 541 
z
" transform="scale(0.015625)"/>
       </defs>
       <use xlink:href="#ArialMT-32"/>
       <use xlink:href="#ArialMT-30" x="55.615234"/>
      </g>
     </g>
    </g>
    <g id="xtick_4">
     <g id="line2d_4">
      <g>
       <use xlink:href="#m98dfa51f8c" x="281.071579" y="117.7808" style="stroke: #000000; stroke-width: 2"/>
      </g>
     </g>
     <g id="text_4">
      <!-- 30 -->
      <g transform="translate(271.462279 141.6495)scale(0.1728 -0.1728)">
       <defs>
        <path id="ArialMT-33" d="M 269 1209 
L 831 1284 
Q 928 806 1161 595 
Q 1394 384 1728 384 
Q 2125 384 2398 659 
Q 2672 934 2672 1341 
Q 2672 1728 2419 1979 
Q 2166 2231 1775 2231 
Q 1616 2231 1378 2169 
L 1441 2663 
Q 1497 2656 1531 2656 
Q 1891 2656 2178 2843 
Q 2466 3031 2466 3422 
Q 2466 3731 2256 3934 
Q 2047 4138 1716 4138 
Q 1388 4138 1169 3931 
Q 950 3725 888 3313 
L 325 3413 
Q 428 3978 793 4289 
Q 1159 4600 1703 4600 
Q 2078 4600 2393 4439 
Q 2709 4278 2876 4000 
Q 3044 3722 3044 3409 
Q 3044 3113 2884 2869 
Q 2725 2625 2413 2481 
Q 2819 2388 3044 2092 
Q 3269 1797 3269 1353 
Q 3269 753 2831 336 
Q 2394 -81 1725 -81 
Q 1122 -81 723 278 
Q 325 638 269 1209 
z
" transform="scale(0.015625)"/>
       </defs>
       <use xlink:href="#ArialMT-33"/>
       <use xlink:href="#ArialMT-30" x="55.615234"/>
      </g>
     </g>
    </g>
    <g id="xtick_5">
     <g id="line2d_5">
      <g>
       <use xlink:href="#m98dfa51f8c" x="342.367967" y="117.7808" style="stroke: #000000; stroke-width: 2"/>
      </g>
     </g>
     <g id="text_5">
      <!-- 40 -->
      <g transform="translate(332.758667 141.6495)scale(0.1728 -0.1728)">
       <defs>
        <path id="ArialMT-34" d="M 2069 0 
L 2069 1097 
L 81 1097 
L 81 1613 
L 2172 4581 
L 2631 4581 
L 2631 1613 
L 3250 1613 
L 3250 1097 
L 2631 1097 
L 2631 0 
L 2069 0 
z
M 2069 1613 
L 2069 3678 
L 634 1613 
L 2069 1613 
z
" transform="scale(0.015625)"/>
       </defs>
       <use xlink:href="#ArialMT-34"/>
       <use xlink:href="#ArialMT-30" x="55.615234"/>
      </g>
     </g>
    </g>
    <g id="xtick_6">
     <g id="line2d_6">
      <g>
       <use xlink:href="#m98dfa51f8c" x="403.664355" y="117.7808" style="stroke: #000000; stroke-width: 2"/>
      </g>
     </g>
     <g id="text_6">
      <!-- 50 -->
      <g transform="translate(394.055055 141.6495)scale(0.1728 -0.1728)">
       <defs>
        <path id="ArialMT-35" d="M 266 1200 
L 856 1250 
Q 922 819 1161 601 
Q 1400 384 1738 384 
Q 2144 384 2425 690 
Q 2706 997 2706 1503 
Q 2706 1984 2436 2262 
Q 2166 2541 1728 2541 
Q 1456 2541 1237 2417 
Q 1019 2294 894 2097 
L 366 2166 
L 809 4519 
L 3088 4519 
L 3088 3981 
L 1259 3981 
L 1013 2750 
Q 1425 3038 1878 3038 
Q 2478 3038 2890 2622 
Q 3303 2206 3303 1553 
Q 3303 931 2941 478 
Q 2500 -78 1738 -78 
Q 1113 -78 717 272 
Q 322 622 266 1200 
z
" transform="scale(0.015625)"/>
       </defs>
       <use xlink:href="#ArialMT-35"/>
       <use xlink:href="#ArialMT-30" x="55.615234"/>
      </g>
     </g>
    </g>
    <g id="text_7">
     <!-- Epoch -->
     <g transform="translate(222.861466 161.4526)scale(0.1728 -0.1728)">
      <defs>
       <path id="ArialMT-45" d="M 506 0 
L 506 4581 
L 3819 4581 
L 3819 4041 
L 1113 4041 
L 1113 2638 
L 3647 2638 
L 3647 2100 
L 1113 2100 
L 1113 541 
L 3925 541 
L 3925 0 
L 506 0 
z
" transform="scale(0.015625)"/>
       <path id="ArialMT-70" d="M 422 -1272 
L 422 3319 
L 934 3319 
L 934 2888 
Q 1116 3141 1344 3267 
Q 1572 3394 1897 3394 
Q 2322 3394 2647 3175 
Q 2972 2956 3137 2557 
Q 3303 2159 3303 1684 
Q 3303 1175 3120 767 
Q 2938 359 2589 142 
Q 2241 -75 1856 -75 
Q 1575 -75 1351 44 
Q 1128 163 984 344 
L 984 -1272 
L 422 -1272 
z
M 931 1641 
Q 931 1000 1190 694 
Q 1450 388 1819 388 
Q 2194 388 2461 705 
Q 2728 1022 2728 1688 
Q 2728 2322 2467 2637 
Q 2206 2953 1844 2953 
Q 1484 2953 1207 2617 
Q 931 2281 931 1641 
z
" transform="scale(0.015625)"/>
       <path id="ArialMT-6f" d="M 213 1659 
Q 213 2581 725 3025 
Q 1153 3394 1769 3394 
Q 2453 3394 2887 2945 
Q 3322 2497 3322 1706 
Q 3322 1066 3130 698 
Q 2938 331 2570 128 
Q 2203 -75 1769 -75 
Q 1072 -75 642 372 
Q 213 819 213 1659 
z
M 791 1659 
Q 791 1022 1069 705 
Q 1347 388 1769 388 
Q 2188 388 2466 706 
Q 2744 1025 2744 1678 
Q 2744 2294 2464 2611 
Q 2184 2928 1769 2928 
Q 1347 2928 1069 2612 
Q 791 2297 791 1659 
z
" transform="scale(0.015625)"/>
       <path id="ArialMT-63" d="M 2588 1216 
L 3141 1144 
Q 3050 572 2676 248 
Q 2303 -75 1759 -75 
Q 1078 -75 664 370 
Q 250 816 250 1647 
Q 250 2184 428 2587 
Q 606 2991 970 3192 
Q 1334 3394 1763 3394 
Q 2303 3394 2647 3120 
Q 2991 2847 3088 2344 
L 2541 2259 
Q 2463 2594 2264 2762 
Q 2066 2931 1784 2931 
Q 1359 2931 1093 2626 
Q 828 2322 828 1663 
Q 828 994 1084 691 
Q 1341 388 1753 388 
Q 2084 388 2306 591 
Q 2528 794 2588 1216 
z
" transform="scale(0.015625)"/>
       <path id="ArialMT-68" d="M 422 0 
L 422 4581 
L 984 4581 
L 984 2938 
Q 1378 3394 1978 3394 
Q 2347 3394 2619 3248 
Q 2891 3103 3008 2847 
Q 3125 2591 3125 2103 
L 3125 0 
L 2563 0 
L 2563 2103 
Q 2563 2525 2380 2717 
Q 2197 2909 1863 2909 
Q 1613 2909 1392 2779 
Q 1172 2650 1078 2428 
Q 984 2206 984 1816 
L 984 0 
L 422 0 
z
" transform="scale(0.015625)"/>
      </defs>
      <use xlink:href="#ArialMT-45"/>
      <use xlink:href="#ArialMT-70" x="66.699219"/>
      <use xlink:href="#ArialMT-6f" x="122.314453"/>
      <use xlink:href="#ArialMT-63" x="177.929688"/>
      <use xlink:href="#ArialMT-68" x="227.929688"/>
     </g>
    </g>
   </g>
   <g id="matplotlib.axis_2">
    <g id="ytick_1">
     <g id="line2d_7">
      <defs>
       <path id="m55496df0b2" d="M 0 0 
L -8 0 
" style="stroke: #000000; stroke-width: 2"/>
      </defs>
      <g>
       <use xlink:href="#m55496df0b2" x="82.1648" y="99.560195" style="stroke: #000000; stroke-width: 2"/>
      </g>
     </g>
     <g id="text_8">
      <!-- 0.995 -->
      <g transform="translate(27.427 105.744545)scale(0.1728 -0.1728)">
       <defs>
        <path id="ArialMT-2e" d="M 581 0 
L 581 641 
L 1222 641 
L 1222 0 
L 581 0 
z
" transform="scale(0.015625)"/>
        <path id="ArialMT-39" d="M 350 1059 
L 891 1109 
Q 959 728 1153 556 
Q 1347 384 1650 384 
Q 1909 384 2104 503 
Q 2300 622 2425 820 
Q 2550 1019 2634 1356 
Q 2719 1694 2719 2044 
Q 2719 2081 2716 2156 
Q 2547 1888 2255 1720 
Q 1963 1553 1622 1553 
Q 1053 1553 659 1965 
Q 266 2378 266 3053 
Q 266 3750 677 4175 
Q 1088 4600 1706 4600 
Q 2153 4600 2523 4359 
Q 2894 4119 3086 3673 
Q 3278 3228 3278 2384 
Q 3278 1506 3087 986 
Q 2897 466 2520 194 
Q 2144 -78 1638 -78 
Q 1100 -78 759 220 
Q 419 519 350 1059 
z
M 2653 3081 
Q 2653 3566 2395 3850 
Q 2138 4134 1775 4134 
Q 1400 4134 1122 3828 
Q 844 3522 844 3034 
Q 844 2597 1108 2323 
Q 1372 2050 1759 2050 
Q 2150 2050 2401 2323 
Q 2653 2597 2653 3081 
z
" transform="scale(0.015625)"/>
       </defs>
       <use xlink:href="#ArialMT-30"/>
       <use xlink:href="#ArialMT-2e" x="55.615234"/>
       <use xlink:href="#ArialMT-39" x="83.398438"/>
       <use xlink:href="#ArialMT-39" x="139.013672"/>
       <use xlink:href="#ArialMT-35" x="194.628906"/>
      </g>
     </g>
    </g>
    <g id="ytick_2">
     <g id="line2d_8">
      <g>
       <use xlink:href="#m55496df0b2" x="82.1648" y="32.432454" style="stroke: #000000; stroke-width: 2"/>
      </g>
     </g>
     <g id="text_9">
      <!-- 1.000 -->
      <g transform="translate(27.427 38.616804)scale(0.1728 -0.1728)">
       <use xlink:href="#ArialMT-31"/>
       <use xlink:href="#ArialMT-2e" x="55.615234"/>
       <use xlink:href="#ArialMT-30" x="83.398438"/>
       <use xlink:href="#ArialMT-30" x="139.013672"/>
       <use xlink:href="#ArialMT-30" x="194.628906"/>
      </g>
     </g>
    </g>
    <g id="text_10">
     <!-- Output Alignment -->
     <g transform="translate(19.7901 139.7565)rotate(-90)scale(0.1728 -0.1728)">
      <defs>
       <path id="ArialMT-4f" d="M 309 2231 
Q 309 3372 921 4017 
Q 1534 4663 2503 4663 
Q 3138 4663 3647 4359 
Q 4156 4056 4423 3514 
Q 4691 2972 4691 2284 
Q 4691 1588 4409 1038 
Q 4128 488 3612 205 
Q 3097 -78 2500 -78 
Q 1853 -78 1343 234 
Q 834 547 571 1087 
Q 309 1628 309 2231 
z
M 934 2222 
Q 934 1394 1379 917 
Q 1825 441 2497 441 
Q 3181 441 3623 922 
Q 4066 1403 4066 2288 
Q 4066 2847 3877 3264 
Q 3688 3681 3323 3911 
Q 2959 4141 2506 4141 
Q 1863 4141 1398 3698 
Q 934 3256 934 2222 
z
" transform="scale(0.015625)"/>
       <path id="ArialMT-75" d="M 2597 0 
L 2597 488 
Q 2209 -75 1544 -75 
Q 1250 -75 995 37 
Q 741 150 617 320 
Q 494 491 444 738 
Q 409 903 409 1263 
L 409 3319 
L 972 3319 
L 972 1478 
Q 972 1038 1006 884 
Q 1059 663 1231 536 
Q 1403 409 1656 409 
Q 1909 409 2131 539 
Q 2353 669 2445 892 
Q 2538 1116 2538 1541 
L 2538 3319 
L 3100 3319 
L 3100 0 
L 2597 0 
z
" transform="scale(0.015625)"/>
       <path id="ArialMT-74" d="M 1650 503 
L 1731 6 
Q 1494 -44 1306 -44 
Q 1000 -44 831 53 
Q 663 150 594 308 
Q 525 466 525 972 
L 525 2881 
L 113 2881 
L 113 3319 
L 525 3319 
L 525 4141 
L 1084 4478 
L 1084 3319 
L 1650 3319 
L 1650 2881 
L 1084 2881 
L 1084 941 
Q 1084 700 1114 631 
Q 1144 563 1211 522 
Q 1278 481 1403 481 
Q 1497 481 1650 503 
z
" transform="scale(0.015625)"/>
       <path id="ArialMT-20" transform="scale(0.015625)"/>
       <path id="ArialMT-41" d="M -9 0 
L 1750 4581 
L 2403 4581 
L 4278 0 
L 3588 0 
L 3053 1388 
L 1138 1388 
L 634 0 
L -9 0 
z
M 1313 1881 
L 2866 1881 
L 2388 3150 
Q 2169 3728 2063 4100 
Q 1975 3659 1816 3225 
L 1313 1881 
z
" transform="scale(0.015625)"/>
       <path id="ArialMT-6c" d="M 409 0 
L 409 4581 
L 972 4581 
L 972 0 
L 409 0 
z
" transform="scale(0.015625)"/>
       <path id="ArialMT-69" d="M 425 3934 
L 425 4581 
L 988 4581 
L 988 3934 
L 425 3934 
z
M 425 0 
L 425 3319 
L 988 3319 
L 988 0 
L 425 0 
z
" transform="scale(0.015625)"/>
       <path id="ArialMT-67" d="M 319 -275 
L 866 -356 
Q 900 -609 1056 -725 
Q 1266 -881 1628 -881 
Q 2019 -881 2231 -725 
Q 2444 -569 2519 -288 
Q 2563 -116 2559 434 
Q 2191 0 1641 0 
Q 956 0 581 494 
Q 206 988 206 1678 
Q 206 2153 378 2554 
Q 550 2956 876 3175 
Q 1203 3394 1644 3394 
Q 2231 3394 2613 2919 
L 2613 3319 
L 3131 3319 
L 3131 450 
Q 3131 -325 2973 -648 
Q 2816 -972 2473 -1159 
Q 2131 -1347 1631 -1347 
Q 1038 -1347 672 -1080 
Q 306 -813 319 -275 
z
M 784 1719 
Q 784 1066 1043 766 
Q 1303 466 1694 466 
Q 2081 466 2343 764 
Q 2606 1063 2606 1700 
Q 2606 2309 2336 2618 
Q 2066 2928 1684 2928 
Q 1309 2928 1046 2623 
Q 784 2319 784 1719 
z
" transform="scale(0.015625)"/>
       <path id="ArialMT-6e" d="M 422 0 
L 422 3319 
L 928 3319 
L 928 2847 
Q 1294 3394 1984 3394 
Q 2284 3394 2536 3286 
Q 2788 3178 2913 3003 
Q 3038 2828 3088 2588 
Q 3119 2431 3119 2041 
L 3119 0 
L 2556 0 
L 2556 2019 
Q 2556 2363 2490 2533 
Q 2425 2703 2258 2804 
Q 2091 2906 1866 2906 
Q 1506 2906 1245 2678 
Q 984 2450 984 1813 
L 984 0 
L 422 0 
z
" transform="scale(0.015625)"/>
       <path id="ArialMT-6d" d="M 422 0 
L 422 3319 
L 925 3319 
L 925 2853 
Q 1081 3097 1340 3245 
Q 1600 3394 1931 3394 
Q 2300 3394 2536 3241 
Q 2772 3088 2869 2813 
Q 3263 3394 3894 3394 
Q 4388 3394 4653 3120 
Q 4919 2847 4919 2278 
L 4919 0 
L 4359 0 
L 4359 2091 
Q 4359 2428 4304 2576 
Q 4250 2725 4106 2815 
Q 3963 2906 3769 2906 
Q 3419 2906 3187 2673 
Q 2956 2441 2956 1928 
L 2956 0 
L 2394 0 
L 2394 2156 
Q 2394 2531 2256 2718 
Q 2119 2906 1806 2906 
Q 1569 2906 1367 2781 
Q 1166 2656 1075 2415 
Q 984 2175 984 1722 
L 984 0 
L 422 0 
z
" transform="scale(0.015625)"/>
       <path id="ArialMT-65" d="M 2694 1069 
L 3275 997 
Q 3138 488 2766 206 
Q 2394 -75 1816 -75 
Q 1088 -75 661 373 
Q 234 822 234 1631 
Q 234 2469 665 2931 
Q 1097 3394 1784 3394 
Q 2450 3394 2872 2941 
Q 3294 2488 3294 1666 
Q 3294 1616 3291 1516 
L 816 1516 
Q 847 969 1125 678 
Q 1403 388 1819 388 
Q 2128 388 2347 550 
Q 2566 713 2694 1069 
z
M 847 1978 
L 2700 1978 
Q 2663 2397 2488 2606 
Q 2219 2931 1791 2931 
Q 1403 2931 1139 2672 
Q 875 2413 847 1978 
z
" transform="scale(0.015625)"/>
      </defs>
      <use xlink:href="#ArialMT-4f"/>
      <use xlink:href="#ArialMT-75" x="77.783203"/>
      <use xlink:href="#ArialMT-74" x="133.398438"/>
      <use xlink:href="#ArialMT-70" x="161.181641"/>
      <use xlink:href="#ArialMT-75" x="216.796875"/>
      <use xlink:href="#ArialMT-74" x="272.412109"/>
      <use xlink:href="#ArialMT-20" x="300.195312"/>
      <use xlink:href="#ArialMT-41" x="322.478516"/>
      <use xlink:href="#ArialMT-6c" x="389.177734"/>
      <use xlink:href="#ArialMT-69" x="411.394531"/>
      <use xlink:href="#ArialMT-67" x="433.611328"/>
      <use xlink:href="#ArialMT-6e" x="489.226562"/>
      <use xlink:href="#ArialMT-6d" x="544.841797"/>
      <use xlink:href="#ArialMT-65" x="628.142578"/>
      <use xlink:href="#ArialMT-6e" x="683.757812"/>
      <use xlink:href="#ArialMT-74" x="739.373047"/>
     </g>
    </g>
   </g>
   <g id="line2d_9">
    <path d="M 97.182415 34.071315 
L 103.312054 34.525256 
L 109.441693 34.790944 
L 115.571331 34.917847 
L 121.70097 34.97837 
L 127.830609 35.012287 
L 133.960248 35.005351 
L 140.089887 35.031065 
L 146.219525 35.031825 
L 152.349164 35.042295 
L 158.478803 35.034066 
L 164.608442 35.03564 
L 170.738081 35.064728 
L 176.867719 35.056606 
L 182.997358 35.07289 
L 189.126997 35.075638 
L 195.256636 35.06082 
L 201.386275 35.105793 
L 207.515914 35.081386 
L 213.645552 35.113048 
L 219.775191 35.086067 
L 225.90483 35.101178 
L 232.034469 35.07297 
L 238.164108 35.065915 
L 244.293746 35.076665 
L 250.423385 35.070383 
L 256.553024 35.059727 
L 262.682663 35.063208 
L 268.812302 35.045403 
L 274.94194 35.046189 
L 281.071579 35.047817 
L 287.201218 35.045843 
L 293.330857 35.015661 
L 299.460496 35.031612 
L 305.590134 35.014981 
L 311.719773 35.012727 
L 317.849412 34.999603 
L 323.979051 35.007739 
L 330.10869 34.997229 
L 336.238328 34.989814 
L 342.367967 34.992894 
L 348.497606 34.982278 
L 354.627245 34.982091 
L 360.756884 34.993201 
L 366.886522 35.001043 
L 373.016161 34.995549 
L 379.1458 35.003644 
L 385.275439 35.022249 
L 391.405078 34.998296 
L 397.534716 34.996576 
" clip-path="url(#p69f5849ee1)" style="fill: none; stroke-dasharray: 20,10; stroke-dashoffset: 0; stroke: #595c79; stroke-width: 2.5"/>
   </g>
   <g id="line2d_10">
    <path d="M 97.182415 34.717444 
L 103.312054 35.434245 
L 109.441693 35.822008 
L 115.571331 35.907605 
L 121.70097 35.986294 
L 127.830609 36.396596 
L 133.960248 36.36524 
L 140.089887 36.923064 
L 146.219525 36.301089 
L 152.349164 36.366587 
L 158.478803 37.265173 
L 164.608442 36.554547 
L 170.738081 36.522991 
L 176.867719 37.006007 
L 182.997358 36.606188 
L 189.126997 36.983254 
L 195.256636 36.793934 
L 201.386275 37.169266 
L 207.515914 36.498331 
L 213.645552 36.881119 
L 219.775191 36.80347 
L 225.90483 36.915248 
L 232.034469 36.516083 
L 238.164108 36.684037 
L 244.293746 37.19458 
L 250.423385 36.541117 
L 256.553024 36.843602 
L 262.682663 36.665498 
L 268.812302 36.447637 
L 274.94194 36.39889 
L 281.071579 36.5526 
L 287.201218 36.752736 
L 293.330857 36.401664 
L 299.460496 36.794614 
L 305.590134 36.603841 
L 311.719773 36.549852 
L 317.849412 36.604028 
L 323.979051 36.279896 
L 330.10869 36.675661 
L 336.238328 36.58833 
L 342.367967 36.607935 
L 348.497606 36.437834 
L 354.627245 36.187737 
L 360.756884 36.354824 
L 366.886522 36.468403 
L 373.016161 36.914381 
L 379.1458 36.337406 
L 385.275439 36.302329 
L 391.405078 36.342047 
L 397.534716 36.706616 
" clip-path="url(#p69f5849ee1)" style="fill: none; stroke-dasharray: 20,10; stroke-dashoffset: 0; stroke: #7f909f; stroke-width: 2.5"/>
   </g>
   <g id="line2d_11">
    <path d="M 97.182415 37.976013 
L 103.312054 39.851687 
L 109.441693 39.760555 
L 115.571331 38.658965 
L 121.70097 39.048608 
L 127.830609 38.733013 
L 133.960248 38.235633 
L 140.089887 39.870413 
L 146.219525 38.313068 
L 152.349164 38.255265 
L 158.478803 39.840204 
L 164.608442 38.68836 
L 170.738081 37.867529 
L 176.867719 38.20257 
L 182.997358 38.406468 
L 189.126997 39.476022 
L 195.256636 38.485517 
L 201.386275 39.258694 
L 207.515914 38.232059 
L 213.645552 39.105464 
L 219.775191 38.964958 
L 225.90483 38.50859 
L 232.034469 38.396278 
L 238.164108 38.683186 
L 244.293746 39.327087 
L 250.423385 38.482369 
L 256.553024 38.714381 
L 262.682663 38.595948 
L 268.812302 38.312668 
L 274.94194 37.94107 
L 281.071579 38.168041 
L 287.201218 38.705739 
L 293.330857 38.196475 
L 299.460496 38.669542 
L 305.590134 38.415524 
L 311.719773 38.040765 
L 317.849412 38.108784 
L 323.979051 37.925452 
L 330.10869 38.530276 
L 336.238328 38.287674 
L 342.367967 38.707779 
L 348.497606 38.204344 
L 354.627245 37.753164 
L 360.756884 38.21452 
L 366.886522 38.328019 
L 373.016161 38.798845 
L 379.1458 38.181404 
L 385.275439 37.76154 
L 391.405078 37.981215 
L 397.534716 38.564712 
" clip-path="url(#p69f5849ee1)" style="fill: none; stroke-dasharray: 20,10; stroke-dashoffset: 0; stroke: #a4c2c3; stroke-width: 2.5"/>
   </g>
   <g id="line2d_12">
    <path d="M 97.182415 52.799742 
L 103.312054 57.858631 
L 109.441693 62.747059 
L 115.571331 57.779702 
L 121.70097 60.207478 
L 127.830609 58.292113 
L 133.960248 57.824075 
L 140.089887 57.322334 
L 146.219525 56.801387 
L 152.349164 55.906202 
L 158.478803 74.745846 
L 164.608442 54.894838 
L 170.738081 54.562291 
L 176.867719 53.853972 
L 182.997358 59.476273 
L 189.126997 59.732785 
L 195.256636 60.717408 
L 201.386275 51.554085 
L 207.515914 52.990676 
L 213.645552 49.974534 
L 219.775191 52.970443 
L 225.90483 52.088995 
L 232.034469 58.834132 
L 238.164108 52.91096 
L 244.293746 57.006992 
L 250.423385 51.823494 
L 256.553024 54.467464 
L 262.682663 50.26899 
L 268.812302 57.999444 
L 274.94194 47.872596 
L 281.071579 54.506849 
L 287.201218 48.894497 
L 293.330857 56.210928 
L 299.460496 47.38774 
L 305.590134 48.688426 
L 311.719773 51.159174 
L 317.849412 49.766315 
L 323.979051 54.518705 
L 330.10869 50.699418 
L 336.238328 49.021533 
L 342.367967 53.450698 
L 348.497606 51.992008 
L 354.627245 50.881989 
L 360.756884 48.931214 
L 366.886522 58.079627 
L 373.016161 51.659368 
L 379.1458 50.303413 
L 385.275439 47.890855 
L 391.405078 47.2706 
L 397.534716 54.100428 
" clip-path="url(#p69f5849ee1)" style="fill: none; stroke-dasharray: 20,10; stroke-dashoffset: 0; stroke: #dde9e9; stroke-width: 2.5"/>
   </g>
   <g id="patch_3">
    <path d="M 82.1648 117.7808 
L 82.1648 29.1757 
" style="fill: none; stroke: #000000; stroke-width: 1.5; stroke-linejoin: miter; stroke-linecap: square"/>
   </g>
   <g id="patch_4">
    <path d="M 82.1648 117.7808 
L 412.552331 117.7808 
" style="fill: none; stroke: #000000; stroke-width: 1.5; stroke-linejoin: miter; stroke-linecap: square"/>
   </g>
   <g id="text_11">
    <!-- I-Norm /w GradNorm -->
    <g transform="translate(167.198266 23.1757)scale(0.1728 -0.1728)">
     <defs>
      <path id="ArialMT-49" d="M 597 0 
L 597 4581 
L 1203 4581 
L 1203 0 
L 597 0 
z
" transform="scale(0.015625)"/>
      <path id="ArialMT-2d" d="M 203 1375 
L 203 1941 
L 1931 1941 
L 1931 1375 
L 203 1375 
z
" transform="scale(0.015625)"/>
      <path id="ArialMT-4e" d="M 488 0 
L 488 4581 
L 1109 4581 
L 3516 984 
L 3516 4581 
L 4097 4581 
L 4097 0 
L 3475 0 
L 1069 3600 
L 1069 0 
L 488 0 
z
" transform="scale(0.015625)"/>
      <path id="ArialMT-72" d="M 416 0 
L 416 3319 
L 922 3319 
L 922 2816 
Q 1116 3169 1280 3281 
Q 1444 3394 1641 3394 
Q 1925 3394 2219 3213 
L 2025 2691 
Q 1819 2813 1613 2813 
Q 1428 2813 1281 2702 
Q 1134 2591 1072 2394 
Q 978 2094 978 1738 
L 978 0 
L 416 0 
z
" transform="scale(0.015625)"/>
      <path id="ArialMT-2f" d="M 0 -78 
L 1328 4659 
L 1778 4659 
L 453 -78 
L 0 -78 
z
" transform="scale(0.015625)"/>
      <path id="ArialMT-77" d="M 1034 0 
L 19 3319 
L 600 3319 
L 1128 1403 
L 1325 691 
Q 1338 744 1497 1375 
L 2025 3319 
L 2603 3319 
L 3100 1394 
L 3266 759 
L 3456 1400 
L 4025 3319 
L 4572 3319 
L 3534 0 
L 2950 0 
L 2422 1988 
L 2294 2553 
L 1622 0 
L 1034 0 
z
" transform="scale(0.015625)"/>
      <path id="ArialMT-47" d="M 2638 1797 
L 2638 2334 
L 4578 2338 
L 4578 638 
Q 4131 281 3656 101 
Q 3181 -78 2681 -78 
Q 2006 -78 1454 211 
Q 903 500 622 1047 
Q 341 1594 341 2269 
Q 341 2938 620 3517 
Q 900 4097 1425 4378 
Q 1950 4659 2634 4659 
Q 3131 4659 3532 4498 
Q 3934 4338 4162 4050 
Q 4391 3763 4509 3300 
L 3963 3150 
Q 3859 3500 3706 3700 
Q 3553 3900 3268 4020 
Q 2984 4141 2638 4141 
Q 2222 4141 1919 4014 
Q 1616 3888 1430 3681 
Q 1244 3475 1141 3228 
Q 966 2803 966 2306 
Q 966 1694 1177 1281 
Q 1388 869 1791 669 
Q 2194 469 2647 469 
Q 3041 469 3416 620 
Q 3791 772 3984 944 
L 3984 1797 
L 2638 1797 
z
" transform="scale(0.015625)"/>
      <path id="ArialMT-61" d="M 2588 409 
Q 2275 144 1986 34 
Q 1697 -75 1366 -75 
Q 819 -75 525 192 
Q 231 459 231 875 
Q 231 1119 342 1320 
Q 453 1522 633 1644 
Q 813 1766 1038 1828 
Q 1203 1872 1538 1913 
Q 2219 1994 2541 2106 
Q 2544 2222 2544 2253 
Q 2544 2597 2384 2738 
Q 2169 2928 1744 2928 
Q 1347 2928 1158 2789 
Q 969 2650 878 2297 
L 328 2372 
Q 403 2725 575 2942 
Q 747 3159 1072 3276 
Q 1397 3394 1825 3394 
Q 2250 3394 2515 3294 
Q 2781 3194 2906 3042 
Q 3031 2891 3081 2659 
Q 3109 2516 3109 2141 
L 3109 1391 
Q 3109 606 3145 398 
Q 3181 191 3288 0 
L 2700 0 
Q 2613 175 2588 409 
z
M 2541 1666 
Q 2234 1541 1622 1453 
Q 1275 1403 1131 1340 
Q 988 1278 909 1158 
Q 831 1038 831 891 
Q 831 666 1001 516 
Q 1172 366 1500 366 
Q 1825 366 2078 508 
Q 2331 650 2450 897 
Q 2541 1088 2541 1459 
L 2541 1666 
z
" transform="scale(0.015625)"/>
      <path id="ArialMT-64" d="M 2575 0 
L 2575 419 
Q 2259 -75 1647 -75 
Q 1250 -75 917 144 
Q 584 363 401 755 
Q 219 1147 219 1656 
Q 219 2153 384 2558 
Q 550 2963 881 3178 
Q 1213 3394 1622 3394 
Q 1922 3394 2156 3267 
Q 2391 3141 2538 2938 
L 2538 4581 
L 3097 4581 
L 3097 0 
L 2575 0 
z
M 797 1656 
Q 797 1019 1065 703 
Q 1334 388 1700 388 
Q 2069 388 2326 689 
Q 2584 991 2584 1609 
Q 2584 2291 2321 2609 
Q 2059 2928 1675 2928 
Q 1300 2928 1048 2622 
Q 797 2316 797 1656 
z
" transform="scale(0.015625)"/>
     </defs>
     <use xlink:href="#ArialMT-49"/>
     <use xlink:href="#ArialMT-2d" x="27.783203"/>
     <use xlink:href="#ArialMT-4e" x="61.083984"/>
     <use xlink:href="#ArialMT-6f" x="133.300781"/>
     <use xlink:href="#ArialMT-72" x="188.916016"/>
     <use xlink:href="#ArialMT-6d" x="222.216797"/>
     <use xlink:href="#ArialMT-20" x="305.517578"/>
     <use xlink:href="#ArialMT-2f" x="333.300781"/>
     <use xlink:href="#ArialMT-77" x="361.083984"/>
     <use xlink:href="#ArialMT-20" x="433.300781"/>
     <use xlink:href="#ArialMT-47" x="461.083984"/>
     <use xlink:href="#ArialMT-72" x="538.867188"/>
     <use xlink:href="#ArialMT-61" x="572.167969"/>
     <use xlink:href="#ArialMT-64" x="627.783203"/>
     <use xlink:href="#ArialMT-4e" x="683.398438"/>
     <use xlink:href="#ArialMT-6f" x="755.615234"/>
     <use xlink:href="#ArialMT-72" x="811.230469"/>
     <use xlink:href="#ArialMT-6d" x="844.53125"/>
    </g>
   </g>
  </g>
 </g>
 <defs>
  <clipPath id="p69f5849ee1">
   <rect x="82.1648" y="29.1757" width="330.387531" height="88.6051"/>
  </clipPath>
 </defs>
</svg>
