<?xml version="1.0" encoding="utf-8" standalone="no"?>
<!DOCTYPE svg PUBLIC "-//W3C//DTD SVG 1.1//EN"
  "http://www.w3.org/Graphics/SVG/1.1/DTD/svg11.dtd">
<svg xmlns:xlink="http://www.w3.org/1999/xlink" width="420.466952pt" height="179.2879pt" viewBox="0 0 420.466952 179.2879" xmlns="http://www.w3.org/2000/svg" version="1.1">
 <metadata>
  <rdf:RDF xmlns:dc="http://purl.org/dc/elements/1.1/" xmlns:cc="http://creativecommons.org/ns#" xmlns:rdf="http://www.w3.org/1999/02/22-rdf-syntax-ns#">
   <cc:Work>
    <dc:type rdf:resource="http://purl.org/dc/dcmitype/StillImage"/>
    <dc:date>2025-11-17T10:09:12.861714</dc:date>
    <dc:format>image/svg+xml</dc:format>
    <dc:creator>
     <cc:Agent>
      <dc:title>Matplotlib v3.5.3, https://matplotlib.org/</dc:title>
     </cc:Agent>
    </dc:creator>
   </cc:Work>
  </rdf:RDF>
 </metadata>
 <defs>
  <style type="text/css">*{stroke-linejoin: round; stroke-linecap: butt}</style>
 </defs>
 <g id="figure_1">
  <g id="patch_1">
   <path d="M 0 179.2879 
L 420.466952 179.2879 
L 420.466952 0 
L 0 0 
z
" style="fill: #ffffff"/>
  </g>
  <g id="axes_1">
   <g id="patch_2">
    <path d="M 72.5447 124.9817 
L 412.811395 124.9817 
L 412.811395 36.3766 
L 72.5447 36.3766 
z
" style="fill: #ffffff"/>
   </g>
   <g id="PolyCollection_1">
    <defs>
     <path id="mb6f693a59a" d="M 88.011368 -129.177513 
L 88.011368 -127.054072 
L 94.324294 -128.903793 
L 100.637219 -129.57902 
L 106.950145 -130.73421 
L 113.263071 -131.812411 
L 119.575996 -132.363684 
L 125.888922 -132.540278 
L 132.201848 -132.504706 
L 138.514773 -132.470486 
L 144.827699 -132.416766 
L 151.140625 -132.655534 
L 157.45355 -132.617513 
L 163.766476 -132.451229 
L 170.079402 -133.097881 
L 176.392328 -132.853234 
L 182.705253 -132.534385 
L 189.018179 -133.341163 
L 195.331105 -132.789848 
L 201.64403 -132.542183 
L 207.956956 -132.367691 
L 214.269882 -132.56963 
L 220.582807 -132.827926 
L 226.895733 -132.958308 
L 233.208659 -132.955131 
L 239.521584 -132.89038 
L 245.83451 -132.954698 
L 252.147436 -133.00095 
L 258.460361 -133.001933 
L 264.773287 -133.168786 
L 271.086213 -132.843447 
L 277.399139 -133.411905 
L 283.712064 -133.00246 
L 290.02499 -133.874339 
L 296.337916 -133.671007 
L 302.650841 -133.598136 
L 308.963767 -134.265467 
L 315.276693 -133.339533 
L 321.589618 -134.340201 
L 327.902544 -133.86368 
L 334.21547 -134.356724 
L 340.528395 -134.482863 
L 346.841321 -134.049255 
L 353.154247 -134.883988 
L 359.467172 -134.984706 
L 365.780098 -134.832611 
L 372.093024 -134.608908 
L 378.40595 -135.567642 
L 384.718875 -135.202493 
L 391.031801 -135.110919 
L 397.344727 -135.22742 
L 397.344727 -137.123692 
L 397.344727 -137.123692 
L 391.031801 -136.514758 
L 384.718875 -137.000241 
L 378.40595 -137.183938 
L 372.093024 -137.360089 
L 365.780098 -137.253664 
L 359.467172 -137.21711 
L 353.154247 -137.47596 
L 346.841321 -136.70233 
L 340.528395 -137.034065 
L 334.21547 -137.667418 
L 327.902544 -137.944231 
L 321.589618 -137.861294 
L 315.276693 -137.731564 
L 308.963767 -137.821497 
L 302.650841 -138.050511 
L 296.337916 -137.992706 
L 290.02499 -138.196708 
L 283.712064 -138.2969 
L 277.399139 -138.409655 
L 271.086213 -138.773924 
L 264.773287 -138.627167 
L 258.460361 -138.522681 
L 252.147436 -138.404294 
L 245.83451 -138.392452 
L 239.521584 -138.22423 
L 233.208659 -138.200845 
L 226.895733 -138.347406 
L 220.582807 -138.185622 
L 214.269882 -138.590357 
L 207.956956 -138.164263 
L 201.64403 -138.292922 
L 195.331105 -138.324342 
L 189.018179 -138.050166 
L 182.705253 -138.042815 
L 176.392328 -138.14283 
L 170.079402 -138.16008 
L 163.766476 -137.884781 
L 157.45355 -137.962808 
L 151.140625 -137.78356 
L 144.827699 -137.688031 
L 138.514773 -137.049964 
L 132.201848 -136.735465 
L 125.888922 -136.656641 
L 119.575996 -135.98263 
L 113.263071 -135.862864 
L 106.950145 -134.542462 
L 100.637219 -133.151937 
L 94.324294 -131.250312 
L 88.011368 -129.177513 
z
" style="stroke: #595c79; stroke-opacity: 0.15; stroke-width: 2.5"/>
    </defs>
    <g clip-path="url(#pf306522fe8)">
     <use xlink:href="#mb6f693a59a" x="0" y="179.2879" style="fill: #595c79; fill-opacity: 0.15; stroke: #595c79; stroke-opacity: 0.15; stroke-width: 2.5"/>
    </g>
   </g>
   <g id="PolyCollection_2">
    <defs>
     <path id="maea984dd7d" d="M 88.011368 -131.820596 
L 88.011368 -121.054815 
L 94.324294 -119.645433 
L 100.637219 -120.007116 
L 106.950145 -127.10462 
L 113.263071 -129.492864 
L 119.575996 -130.601414 
L 125.888922 -129.907536 
L 132.201848 -127.703631 
L 138.514773 -129.796933 
L 144.827699 -129.914826 
L 151.140625 -127.307053 
L 157.45355 -130.400509 
L 163.766476 -131.567094 
L 170.079402 -126.889586 
L 176.392328 -129.698963 
L 182.705253 -128.85488 
L 189.018179 -130.02126 
L 195.331105 -128.80662 
L 201.64403 -132.111039 
L 207.956956 -129.561523 
L 214.269882 -131.448204 
L 220.582807 -128.544169 
L 226.895733 -130.330415 
L 233.208659 -130.469062 
L 239.521584 -129.781159 
L 245.83451 -131.628435 
L 252.147436 -129.180792 
L 258.460361 -130.429675 
L 264.773287 -131.955702 
L 271.086213 -131.846697 
L 277.399139 -130.547536 
L 283.712064 -129.448842 
L 290.02499 -130.346445 
L 296.337916 -130.908819 
L 302.650841 -131.347476 
L 308.963767 -129.309591 
L 315.276693 -130.36908 
L 321.589618 -130.930037 
L 327.902544 -131.338411 
L 334.21547 -130.380968 
L 340.528395 -130.341213 
L 346.841321 -130.209126 
L 353.154247 -132.426474 
L 359.467172 -131.244238 
L 365.780098 -130.994136 
L 372.093024 -130.642017 
L 378.40595 -132.883486 
L 384.718875 -131.796489 
L 391.031801 -131.32991 
L 397.344727 -130.160973 
L 397.344727 -137.065174 
L 397.344727 -137.065174 
L 391.031801 -136.522411 
L 384.718875 -136.732302 
L 378.40595 -137.267993 
L 372.093024 -137.045604 
L 365.780098 -136.869183 
L 359.467172 -136.954561 
L 353.154247 -137.634172 
L 346.841321 -137.311917 
L 340.528395 -137.877589 
L 334.21547 -138.002642 
L 327.902544 -137.60461 
L 321.589618 -137.931602 
L 315.276693 -137.479612 
L 308.963767 -137.418132 
L 302.650841 -137.831634 
L 296.337916 -137.827796 
L 290.02499 -137.960731 
L 283.712064 -137.682781 
L 277.399139 -137.682707 
L 271.086213 -138.377881 
L 264.773287 -137.71082 
L 258.460361 -138.491046 
L 252.147436 -137.995156 
L 245.83451 -137.858676 
L 239.521584 -138.061649 
L 233.208659 -138.180185 
L 226.895733 -138.510848 
L 220.582807 -137.862687 
L 214.269882 -137.758531 
L 207.956956 -138.265992 
L 201.64403 -138.320173 
L 195.331105 -138.236859 
L 189.018179 -138.202522 
L 182.705253 -137.965617 
L 176.392328 -138.664243 
L 170.079402 -137.777313 
L 163.766476 -138.239057 
L 157.45355 -138.080977 
L 151.140625 -137.660198 
L 144.827699 -137.838235 
L 138.514773 -137.712408 
L 132.201848 -136.92008 
L 125.888922 -136.833957 
L 119.575996 -137.272391 
L 113.263071 -137.026621 
L 106.950145 -136.767091 
L 100.637219 -135.714333 
L 94.324294 -134.705872 
L 88.011368 -131.820596 
z
" style="stroke: #7f909f; stroke-opacity: 0.15; stroke-width: 2.5"/>
    </defs>
    <g clip-path="url(#pf306522fe8)">
     <use xlink:href="#maea984dd7d" x="0" y="179.2879" style="fill: #7f909f; fill-opacity: 0.15; stroke: #7f909f; stroke-opacity: 0.15; stroke-width: 2.5"/>
    </g>
   </g>
   <g id="PolyCollection_3">
    <defs>
     <path id="mcf0c2d77f5" d="M 88.011368 -134.544003 
L 88.011368 -101.207453 
L 94.324294 -97.977908 
L 100.637219 -104.389447 
L 106.950145 -122.008122 
L 113.263071 -122.168411 
L 119.575996 -128.739055 
L 125.888922 -128.159236 
L 132.201848 -119.096997 
L 138.514773 -128.601802 
L 144.827699 -128.956376 
L 151.140625 -124.123149 
L 157.45355 -129.790825 
L 163.766476 -129.487264 
L 170.079402 -127.518616 
L 176.392328 -127.577632 
L 182.705253 -125.977417 
L 189.018179 -127.736594 
L 195.331105 -126.691928 
L 201.64403 -129.867777 
L 207.956956 -124.35241 
L 214.269882 -126.769238 
L 220.582807 -124.729931 
L 226.895733 -128.397436 
L 233.208659 -126.541021 
L 239.521584 -126.567978 
L 245.83451 -127.598795 
L 252.147436 -126.267329 
L 258.460361 -127.423497 
L 264.773287 -128.487789 
L 271.086213 -128.70988 
L 277.399139 -127.920002 
L 283.712064 -126.501499 
L 290.02499 -127.314166 
L 296.337916 -127.57889 
L 302.650841 -127.592469 
L 308.963767 -127.069999 
L 315.276693 -125.72262 
L 321.589618 -128.858463 
L 327.902544 -127.291671 
L 334.21547 -126.338867 
L 340.528395 -127.822214 
L 346.841321 -125.268617 
L 353.154247 -125.22427 
L 359.467172 -127.146298 
L 365.780098 -126.810156 
L 372.093024 -128.946286 
L 378.40595 -128.068701 
L 384.718875 -127.663262 
L 391.031801 -127.273172 
L 397.344727 -129.003398 
L 397.344727 -136.927408 
L 397.344727 -136.927408 
L 391.031801 -136.698995 
L 384.718875 -136.596456 
L 378.40595 -137.109223 
L 372.093024 -137.238343 
L 365.780098 -137.166017 
L 359.467172 -137.429554 
L 353.154247 -137.134219 
L 346.841321 -136.77358 
L 340.528395 -136.936012 
L 334.21547 -137.558329 
L 327.902544 -137.666235 
L 321.589618 -137.504614 
L 315.276693 -137.989021 
L 308.963767 -137.342275 
L 302.650841 -137.318313 
L 296.337916 -137.71729 
L 290.02499 -137.323917 
L 283.712064 -137.788167 
L 277.399139 -137.981721 
L 271.086213 -137.232301 
L 264.773287 -137.612282 
L 258.460361 -137.641341 
L 252.147436 -137.551654 
L 245.83451 -138.073565 
L 239.521584 -138.123027 
L 233.208659 -138.12578 
L 226.895733 -137.734987 
L 220.582807 -137.941692 
L 214.269882 -137.766762 
L 207.956956 -137.640451 
L 201.64403 -137.670087 
L 195.331105 -137.808929 
L 189.018179 -137.870629 
L 182.705253 -137.742063 
L 176.392328 -138.03586 
L 170.079402 -137.893133 
L 163.766476 -137.693891 
L 157.45355 -138.017353 
L 151.140625 -136.987272 
L 144.827699 -137.628507 
L 138.514773 -137.355868 
L 132.201848 -136.544119 
L 125.888922 -135.909383 
L 119.575996 -137.634036 
L 113.263071 -138.468062 
L 106.950145 -137.830442 
L 100.637219 -136.394968 
L 94.324294 -135.694796 
L 88.011368 -134.544003 
z
" style="stroke: #a4c2c3; stroke-opacity: 0.15; stroke-width: 2.5"/>
    </defs>
    <g clip-path="url(#pf306522fe8)">
     <use xlink:href="#mcf0c2d77f5" x="0" y="179.2879" style="fill: #a4c2c3; fill-opacity: 0.15; stroke: #a4c2c3; stroke-opacity: 0.15; stroke-width: 2.5"/>
    </g>
   </g>
   <g id="PolyCollection_4">
    <defs>
     <path id="mabec4fb9a6" d="M 88.011368 -134.576724 
L 88.011368 -65.204784 
L 94.324294 -58.333705 
L 100.637219 -67.646092 
L 106.950145 -90.835144 
L 113.263071 -90.450481 
L 119.575996 -104.573251 
L 125.888922 -113.724939 
L 132.201848 -92.360025 
L 138.514773 -109.636465 
L 144.827699 -110.484647 
L 151.140625 -104.328772 
L 157.45355 -118.789272 
L 163.766476 -122.817569 
L 170.079402 -119.315157 
L 176.392328 -117.635959 
L 182.705253 -118.766907 
L 189.018179 -121.020022 
L 195.331105 -121.16976 
L 201.64403 -125.553284 
L 207.956956 -120.998249 
L 214.269882 -122.256714 
L 220.582807 -122.910028 
L 226.895733 -122.386836 
L 233.208659 -122.237736 
L 239.521584 -119.036485 
L 245.83451 -124.232471 
L 252.147436 -119.634393 
L 258.460361 -123.602375 
L 264.773287 -122.974649 
L 271.086213 -126.47217 
L 277.399139 -122.655468 
L 283.712064 -123.757046 
L 290.02499 -124.438952 
L 296.337916 -124.893532 
L 302.650841 -121.622625 
L 308.963767 -123.976207 
L 315.276693 -124.034077 
L 321.589618 -121.264781 
L 327.902544 -122.119288 
L 334.21547 -124.595827 
L 340.528395 -121.960476 
L 346.841321 -120.899124 
L 353.154247 -122.7693 
L 359.467172 -123.030181 
L 365.780098 -122.21212 
L 372.093024 -125.654743 
L 378.40595 -121.970813 
L 384.718875 -122.945693 
L 391.031801 -124.885776 
L 397.344727 -122.17319 
L 397.344727 -135.583876 
L 397.344727 -135.583876 
L 391.031801 -136.626535 
L 384.718875 -136.520334 
L 378.40595 -136.635632 
L 372.093024 -136.537197 
L 365.780098 -136.198819 
L 359.467172 -136.289438 
L 353.154247 -137.411684 
L 346.841321 -136.790825 
L 340.528395 -136.797151 
L 334.21547 -137.858513 
L 327.902544 -136.924445 
L 321.589618 -136.113432 
L 315.276693 -136.773212 
L 308.963767 -137.190078 
L 302.650841 -137.027227 
L 296.337916 -136.207111 
L 290.02499 -136.681848 
L 283.712064 -135.850906 
L 277.399139 -136.83698 
L 271.086213 -136.314654 
L 264.773287 -137.119848 
L 258.460361 -136.438463 
L 252.147436 -136.625803 
L 245.83451 -136.60731 
L 239.521584 -137.20347 
L 233.208659 -137.015427 
L 226.895733 -136.704031 
L 220.582807 -137.298929 
L 214.269882 -136.836328 
L 207.956956 -136.833086 
L 201.64403 -137.623159 
L 195.331105 -137.52661 
L 189.018179 -135.829804 
L 182.705253 -136.080204 
L 176.392328 -136.827999 
L 170.079402 -137.324289 
L 163.766476 -137.22106 
L 157.45355 -138.139779 
L 151.140625 -136.514073 
L 144.827699 -137.083015 
L 138.514773 -136.87911 
L 132.201848 -134.908938 
L 125.888922 -136.572731 
L 119.575996 -138.014143 
L 113.263071 -138.883795 
L 106.950145 -138.471714 
L 100.637219 -135.823343 
L 94.324294 -135.11732 
L 88.011368 -134.576724 
z
" style="stroke: #dde9e9; stroke-opacity: 0.15; stroke-width: 2.5"/>
    </defs>
    <g clip-path="url(#pf306522fe8)">
     <use xlink:href="#mabec4fb9a6" x="0" y="179.2879" style="fill: #dde9e9; fill-opacity: 0.15; stroke: #dde9e9; stroke-opacity: 0.15; stroke-width: 2.5"/>
    </g>
   </g>
   <g id="matplotlib.axis_1">
    <g id="xtick_1">
     <g id="line2d_1">
      <defs>
       <path id="m724edc7260" d="M 0 0 
L 0 8 
" style="stroke: #000000; stroke-width: 2"/>
      </defs>
      <g>
       <use xlink:href="#m724edc7260" x="88.011368" y="124.9817" style="stroke: #000000; stroke-width: 2"/>
      </g>
     </g>
     <g id="text_1">
      <!-- 0 -->
      <g transform="translate(83.206718 148.8504)scale(0.1728 -0.1728)">
       <defs>
        <path id="ArialMT-30" d="M 266 2259 
Q 266 3072 433 3567 
Q 600 4063 929 4331 
Q 1259 4600 1759 4600 
Q 2128 4600 2406 4451 
Q 2684 4303 2865 4023 
Q 3047 3744 3150 3342 
Q 3253 2941 3253 2259 
Q 3253 1453 3087 958 
Q 2922 463 2592 192 
Q 2263 -78 1759 -78 
Q 1097 -78 719 397 
Q 266 969 266 2259 
z
M 844 2259 
Q 844 1131 1108 757 
Q 1372 384 1759 384 
Q 2147 384 2411 759 
Q 2675 1134 2675 2259 
Q 2675 3391 2411 3762 
Q 2147 4134 1753 4134 
Q 1366 4134 1134 3806 
Q 844 3388 844 2259 
z
" transform="scale(0.015625)"/>
       </defs>
       <use xlink:href="#ArialMT-30"/>
      </g>
     </g>
    </g>
    <g id="xtick_2">
     <g id="line2d_2">
      <g>
       <use xlink:href="#m724edc7260" x="151.140625" y="124.9817" style="stroke: #000000; stroke-width: 2"/>
      </g>
     </g>
     <g id="text_2">
      <!-- 10 -->
      <g transform="translate(141.531325 148.8504)scale(0.1728 -0.1728)">
       <defs>
        <path id="ArialMT-31" d="M 2384 0 
L 1822 0 
L 1822 3584 
Q 1619 3391 1289 3197 
Q 959 3003 697 2906 
L 697 3450 
Q 1169 3672 1522 3987 
Q 1875 4303 2022 4600 
L 2384 4600 
L 2384 0 
z
" transform="scale(0.015625)"/>
       </defs>
       <use xlink:href="#ArialMT-31"/>
       <use xlink:href="#ArialMT-30" x="55.615234"/>
      </g>
     </g>
    </g>
    <g id="xtick_3">
     <g id="line2d_3">
      <g>
       <use xlink:href="#m724edc7260" x="214.269882" y="124.9817" style="stroke: #000000; stroke-width: 2"/>
      </g>
     </g>
     <g id="text_3">
      <!-- 20 -->
      <g transform="translate(204.660582 148.8504)scale(0.1728 -0.1728)">
       <defs>
        <path id="ArialMT-32" d="M 3222 541 
L 3222 0 
L 194 0 
Q 188 203 259 391 
Q 375 700 629 1000 
Q 884 1300 1366 1694 
Q 2113 2306 2375 2664 
Q 2638 3022 2638 3341 
Q 2638 3675 2398 3904 
Q 2159 4134 1775 4134 
Q 1369 4134 1125 3890 
Q 881 3647 878 3216 
L 300 3275 
Q 359 3922 746 4261 
Q 1134 4600 1788 4600 
Q 2447 4600 2831 4234 
Q 3216 3869 3216 3328 
Q 3216 3053 3103 2787 
Q 2991 2522 2730 2228 
Q 2469 1934 1863 1422 
Q 1356 997 1212 845 
Q 1069 694 975 541 
L 3222 541 
z
" transform="scale(0.015625)"/>
       </defs>
       <use xlink:href="#ArialMT-32"/>
       <use xlink:href="#ArialMT-30" x="55.615234"/>
      </g>
     </g>
    </g>
    <g id="xtick_4">
     <g id="line2d_4">
      <g>
       <use xlink:href="#m724edc7260" x="277.399139" y="124.9817" style="stroke: #000000; stroke-width: 2"/>
      </g>
     </g>
     <g id="text_4">
      <!-- 30 -->
      <g transform="translate(267.789839 148.8504)scale(0.1728 -0.1728)">
       <defs>
        <path id="ArialMT-33" d="M 269 1209 
L 831 1284 
Q 928 806 1161 595 
Q 1394 384 1728 384 
Q 2125 384 2398 659 
Q 2672 934 2672 1341 
Q 2672 1728 2419 1979 
Q 2166 2231 1775 2231 
Q 1616 2231 1378 2169 
L 1441 2663 
Q 1497 2656 1531 2656 
Q 1891 2656 2178 2843 
Q 2466 3031 2466 3422 
Q 2466 3731 2256 3934 
Q 2047 4138 1716 4138 
Q 1388 4138 1169 3931 
Q 950 3725 888 3313 
L 325 3413 
Q 428 3978 793 4289 
Q 1159 4600 1703 4600 
Q 2078 4600 2393 4439 
Q 2709 4278 2876 4000 
Q 3044 3722 3044 3409 
Q 3044 3113 2884 2869 
Q 2725 2625 2413 2481 
Q 2819 2388 3044 2092 
Q 3269 1797 3269 1353 
Q 3269 753 2831 336 
Q 2394 -81 1725 -81 
Q 1122 -81 723 278 
Q 325 638 269 1209 
z
" transform="scale(0.015625)"/>
       </defs>
       <use xlink:href="#ArialMT-33"/>
       <use xlink:href="#ArialMT-30" x="55.615234"/>
      </g>
     </g>
    </g>
    <g id="xtick_5">
     <g id="line2d_5">
      <g>
       <use xlink:href="#m724edc7260" x="340.528395" y="124.9817" style="stroke: #000000; stroke-width: 2"/>
      </g>
     </g>
     <g id="text_5">
      <!-- 40 -->
      <g transform="translate(330.919095 148.8504)scale(0.1728 -0.1728)">
       <defs>
        <path id="ArialMT-34" d="M 2069 0 
L 2069 1097 
L 81 1097 
L 81 1613 
L 2172 4581 
L 2631 4581 
L 2631 1613 
L 3250 1613 
L 3250 1097 
L 2631 1097 
L 2631 0 
L 2069 0 
z
M 2069 1613 
L 2069 3678 
L 634 1613 
L 2069 1613 
z
" transform="scale(0.015625)"/>
       </defs>
       <use xlink:href="#ArialMT-34"/>
       <use xlink:href="#ArialMT-30" x="55.615234"/>
      </g>
     </g>
    </g>
    <g id="xtick_6">
     <g id="line2d_6">
      <g>
       <use xlink:href="#m724edc7260" x="403.657652" y="124.9817" style="stroke: #000000; stroke-width: 2"/>
      </g>
     </g>
     <g id="text_6">
      <!-- 50 -->
      <g transform="translate(394.048352 148.8504)scale(0.1728 -0.1728)">
       <defs>
        <path id="ArialMT-35" d="M 266 1200 
L 856 1250 
Q 922 819 1161 601 
Q 1400 384 1738 384 
Q 2144 384 2425 690 
Q 2706 997 2706 1503 
Q 2706 1984 2436 2262 
Q 2166 2541 1728 2541 
Q 1456 2541 1237 2417 
Q 1019 2294 894 2097 
L 366 2166 
L 809 4519 
L 3088 4519 
L 3088 3981 
L 1259 3981 
L 1013 2750 
Q 1425 3038 1878 3038 
Q 2478 3038 2890 2622 
Q 3303 2206 3303 1553 
Q 3303 931 2941 478 
Q 2500 -78 1738 -78 
Q 1113 -78 717 272 
Q 322 622 266 1200 
z
" transform="scale(0.015625)"/>
       </defs>
       <use xlink:href="#ArialMT-35"/>
       <use xlink:href="#ArialMT-30" x="55.615234"/>
      </g>
     </g>
    </g>
    <g id="text_7">
     <!-- Epoch -->
     <g transform="translate(218.180947 168.6535)scale(0.1728 -0.1728)">
      <defs>
       <path id="ArialMT-45" d="M 506 0 
L 506 4581 
L 3819 4581 
L 3819 4041 
L 1113 4041 
L 1113 2638 
L 3647 2638 
L 3647 2100 
L 1113 2100 
L 1113 541 
L 3925 541 
L 3925 0 
L 506 0 
z
" transform="scale(0.015625)"/>
       <path id="ArialMT-70" d="M 422 -1272 
L 422 3319 
L 934 3319 
L 934 2888 
Q 1116 3141 1344 3267 
Q 1572 3394 1897 3394 
Q 2322 3394 2647 3175 
Q 2972 2956 3137 2557 
Q 3303 2159 3303 1684 
Q 3303 1175 3120 767 
Q 2938 359 2589 142 
Q 2241 -75 1856 -75 
Q 1575 -75 1351 44 
Q 1128 163 984 344 
L 984 -1272 
L 422 -1272 
z
M 931 1641 
Q 931 1000 1190 694 
Q 1450 388 1819 388 
Q 2194 388 2461 705 
Q 2728 1022 2728 1688 
Q 2728 2322 2467 2637 
Q 2206 2953 1844 2953 
Q 1484 2953 1207 2617 
Q 931 2281 931 1641 
z
" transform="scale(0.015625)"/>
       <path id="ArialMT-6f" d="M 213 1659 
Q 213 2581 725 3025 
Q 1153 3394 1769 3394 
Q 2453 3394 2887 2945 
Q 3322 2497 3322 1706 
Q 3322 1066 3130 698 
Q 2938 331 2570 128 
Q 2203 -75 1769 -75 
Q 1072 -75 642 372 
Q 213 819 213 1659 
z
M 791 1659 
Q 791 1022 1069 705 
Q 1347 388 1769 388 
Q 2188 388 2466 706 
Q 2744 1025 2744 1678 
Q 2744 2294 2464 2611 
Q 2184 2928 1769 2928 
Q 1347 2928 1069 2612 
Q 791 2297 791 1659 
z
" transform="scale(0.015625)"/>
       <path id="ArialMT-63" d="M 2588 1216 
L 3141 1144 
Q 3050 572 2676 248 
Q 2303 -75 1759 -75 
Q 1078 -75 664 370 
Q 250 816 250 1647 
Q 250 2184 428 2587 
Q 606 2991 970 3192 
Q 1334 3394 1763 3394 
Q 2303 3394 2647 3120 
Q 2991 2847 3088 2344 
L 2541 2259 
Q 2463 2594 2264 2762 
Q 2066 2931 1784 2931 
Q 1359 2931 1093 2626 
Q 828 2322 828 1663 
Q 828 994 1084 691 
Q 1341 388 1753 388 
Q 2084 388 2306 591 
Q 2528 794 2588 1216 
z
" transform="scale(0.015625)"/>
       <path id="ArialMT-68" d="M 422 0 
L 422 4581 
L 984 4581 
L 984 2938 
Q 1378 3394 1978 3394 
Q 2347 3394 2619 3248 
Q 2891 3103 3008 2847 
Q 3125 2591 3125 2103 
L 3125 0 
L 2563 0 
L 2563 2103 
Q 2563 2525 2380 2717 
Q 2197 2909 1863 2909 
Q 1613 2909 1392 2779 
Q 1172 2650 1078 2428 
Q 984 2206 984 1816 
L 984 0 
L 422 0 
z
" transform="scale(0.015625)"/>
      </defs>
      <use xlink:href="#ArialMT-45"/>
      <use xlink:href="#ArialMT-70" x="66.699219"/>
      <use xlink:href="#ArialMT-6f" x="122.314453"/>
      <use xlink:href="#ArialMT-63" x="177.929688"/>
      <use xlink:href="#ArialMT-68" x="227.929688"/>
     </g>
    </g>
   </g>
   <g id="matplotlib.axis_2">
    <g id="ytick_1">
     <g id="line2d_7">
      <defs>
       <path id="m1a636a3eb7" d="M 0 0 
L -8 0 
" style="stroke: #000000; stroke-width: 2"/>
      </defs>
      <g>
       <use xlink:href="#m1a636a3eb7" x="72.5447" y="83.959623" style="stroke: #000000; stroke-width: 2"/>
      </g>
     </g>
     <g id="text_8">
      <!-- 0.98 -->
      <g transform="translate(27.4162 90.143973)scale(0.1728 -0.1728)">
       <defs>
        <path id="ArialMT-2e" d="M 581 0 
L 581 641 
L 1222 641 
L 1222 0 
L 581 0 
z
" transform="scale(0.015625)"/>
        <path id="ArialMT-39" d="M 350 1059 
L 891 1109 
Q 959 728 1153 556 
Q 1347 384 1650 384 
Q 1909 384 2104 503 
Q 2300 622 2425 820 
Q 2550 1019 2634 1356 
Q 2719 1694 2719 2044 
Q 2719 2081 2716 2156 
Q 2547 1888 2255 1720 
Q 1963 1553 1622 1553 
Q 1053 1553 659 1965 
Q 266 2378 266 3053 
Q 266 3750 677 4175 
Q 1088 4600 1706 4600 
Q 2153 4600 2523 4359 
Q 2894 4119 3086 3673 
Q 3278 3228 3278 2384 
Q 3278 1506 3087 986 
Q 2897 466 2520 194 
Q 2144 -78 1638 -78 
Q 1100 -78 759 220 
Q 419 519 350 1059 
z
M 2653 3081 
Q 2653 3566 2395 3850 
Q 2138 4134 1775 4134 
Q 1400 4134 1122 3828 
Q 844 3522 844 3034 
Q 844 2597 1108 2323 
Q 1372 2050 1759 2050 
Q 2150 2050 2401 2323 
Q 2653 2597 2653 3081 
z
" transform="scale(0.015625)"/>
        <path id="ArialMT-38" d="M 1131 2484 
Q 781 2613 612 2850 
Q 444 3088 444 3419 
Q 444 3919 803 4259 
Q 1163 4600 1759 4600 
Q 2359 4600 2725 4251 
Q 3091 3903 3091 3403 
Q 3091 3084 2923 2848 
Q 2756 2613 2416 2484 
Q 2838 2347 3058 2040 
Q 3278 1734 3278 1309 
Q 3278 722 2862 322 
Q 2447 -78 1769 -78 
Q 1091 -78 675 323 
Q 259 725 259 1325 
Q 259 1772 486 2073 
Q 713 2375 1131 2484 
z
M 1019 3438 
Q 1019 3113 1228 2906 
Q 1438 2700 1772 2700 
Q 2097 2700 2305 2904 
Q 2513 3109 2513 3406 
Q 2513 3716 2298 3927 
Q 2084 4138 1766 4138 
Q 1444 4138 1231 3931 
Q 1019 3725 1019 3438 
z
M 838 1322 
Q 838 1081 952 856 
Q 1066 631 1291 507 
Q 1516 384 1775 384 
Q 2178 384 2440 643 
Q 2703 903 2703 1303 
Q 2703 1709 2433 1975 
Q 2163 2241 1756 2241 
Q 1359 2241 1098 1978 
Q 838 1716 838 1322 
z
" transform="scale(0.015625)"/>
       </defs>
       <use xlink:href="#ArialMT-30"/>
       <use xlink:href="#ArialMT-2e" x="55.615234"/>
       <use xlink:href="#ArialMT-39" x="83.398438"/>
       <use xlink:href="#ArialMT-38" x="139.013672"/>
      </g>
     </g>
    </g>
    <g id="ytick_2">
     <g id="line2d_8">
      <g>
       <use xlink:href="#m1a636a3eb7" x="72.5447" y="37.067203" style="stroke: #000000; stroke-width: 2"/>
      </g>
     </g>
     <g id="text_9">
      <!-- 1.00 -->
      <g transform="translate(27.4162 43.251553)scale(0.1728 -0.1728)">
       <use xlink:href="#ArialMT-31"/>
       <use xlink:href="#ArialMT-2e" x="55.615234"/>
       <use xlink:href="#ArialMT-30" x="83.398438"/>
       <use xlink:href="#ArialMT-30" x="139.013672"/>
      </g>
     </g>
    </g>
    <g id="text_10">
     <!-- Gradient Alignment -->
     <g transform="translate(19.7793 154.1583)rotate(-90)scale(0.1728 -0.1728)">
      <defs>
       <path id="ArialMT-47" d="M 2638 1797 
L 2638 2334 
L 4578 2338 
L 4578 638 
Q 4131 281 3656 101 
Q 3181 -78 2681 -78 
Q 2006 -78 1454 211 
Q 903 500 622 1047 
Q 341 1594 341 2269 
Q 341 2938 620 3517 
Q 900 4097 1425 4378 
Q 1950 4659 2634 4659 
Q 3131 4659 3532 4498 
Q 3934 4338 4162 4050 
Q 4391 3763 4509 3300 
L 3963 3150 
Q 3859 3500 3706 3700 
Q 3553 3900 3268 4020 
Q 2984 4141 2638 4141 
Q 2222 4141 1919 4014 
Q 1616 3888 1430 3681 
Q 1244 3475 1141 3228 
Q 966 2803 966 2306 
Q 966 1694 1177 1281 
Q 1388 869 1791 669 
Q 2194 469 2647 469 
Q 3041 469 3416 620 
Q 3791 772 3984 944 
L 3984 1797 
L 2638 1797 
z
" transform="scale(0.015625)"/>
       <path id="ArialMT-72" d="M 416 0 
L 416 3319 
L 922 3319 
L 922 2816 
Q 1116 3169 1280 3281 
Q 1444 3394 1641 3394 
Q 1925 3394 2219 3213 
L 2025 2691 
Q 1819 2813 1613 2813 
Q 1428 2813 1281 2702 
Q 1134 2591 1072 2394 
Q 978 2094 978 1738 
L 978 0 
L 416 0 
z
" transform="scale(0.015625)"/>
       <path id="ArialMT-61" d="M 2588 409 
Q 2275 144 1986 34 
Q 1697 -75 1366 -75 
Q 819 -75 525 192 
Q 231 459 231 875 
Q 231 1119 342 1320 
Q 453 1522 633 1644 
Q 813 1766 1038 1828 
Q 1203 1872 1538 1913 
Q 2219 1994 2541 2106 
Q 2544 2222 2544 2253 
Q 2544 2597 2384 2738 
Q 2169 2928 1744 2928 
Q 1347 2928 1158 2789 
Q 969 2650 878 2297 
L 328 2372 
Q 403 2725 575 2942 
Q 747 3159 1072 3276 
Q 1397 3394 1825 3394 
Q 2250 3394 2515 3294 
Q 2781 3194 2906 3042 
Q 3031 2891 3081 2659 
Q 3109 2516 3109 2141 
L 3109 1391 
Q 3109 606 3145 398 
Q 3181 191 3288 0 
L 2700 0 
Q 2613 175 2588 409 
z
M 2541 1666 
Q 2234 1541 1622 1453 
Q 1275 1403 1131 1340 
Q 988 1278 909 1158 
Q 831 1038 831 891 
Q 831 666 1001 516 
Q 1172 366 1500 366 
Q 1825 366 2078 508 
Q 2331 650 2450 897 
Q 2541 1088 2541 1459 
L 2541 1666 
z
" transform="scale(0.015625)"/>
       <path id="ArialMT-64" d="M 2575 0 
L 2575 419 
Q 2259 -75 1647 -75 
Q 1250 -75 917 144 
Q 584 363 401 755 
Q 219 1147 219 1656 
Q 219 2153 384 2558 
Q 550 2963 881 3178 
Q 1213 3394 1622 3394 
Q 1922 3394 2156 3267 
Q 2391 3141 2538 2938 
L 2538 4581 
L 3097 4581 
L 3097 0 
L 2575 0 
z
M 797 1656 
Q 797 1019 1065 703 
Q 1334 388 1700 388 
Q 2069 388 2326 689 
Q 2584 991 2584 1609 
Q 2584 2291 2321 2609 
Q 2059 2928 1675 2928 
Q 1300 2928 1048 2622 
Q 797 2316 797 1656 
z
" transform="scale(0.015625)"/>
       <path id="ArialMT-69" d="M 425 3934 
L 425 4581 
L 988 4581 
L 988 3934 
L 425 3934 
z
M 425 0 
L 425 3319 
L 988 3319 
L 988 0 
L 425 0 
z
" transform="scale(0.015625)"/>
       <path id="ArialMT-65" d="M 2694 1069 
L 3275 997 
Q 3138 488 2766 206 
Q 2394 -75 1816 -75 
Q 1088 -75 661 373 
Q 234 822 234 1631 
Q 234 2469 665 2931 
Q 1097 3394 1784 3394 
Q 2450 3394 2872 2941 
Q 3294 2488 3294 1666 
Q 3294 1616 3291 1516 
L 816 1516 
Q 847 969 1125 678 
Q 1403 388 1819 388 
Q 2128 388 2347 550 
Q 2566 713 2694 1069 
z
M 847 1978 
L 2700 1978 
Q 2663 2397 2488 2606 
Q 2219 2931 1791 2931 
Q 1403 2931 1139 2672 
Q 875 2413 847 1978 
z
" transform="scale(0.015625)"/>
       <path id="ArialMT-6e" d="M 422 0 
L 422 3319 
L 928 3319 
L 928 2847 
Q 1294 3394 1984 3394 
Q 2284 3394 2536 3286 
Q 2788 3178 2913 3003 
Q 3038 2828 3088 2588 
Q 3119 2431 3119 2041 
L 3119 0 
L 2556 0 
L 2556 2019 
Q 2556 2363 2490 2533 
Q 2425 2703 2258 2804 
Q 2091 2906 1866 2906 
Q 1506 2906 1245 2678 
Q 984 2450 984 1813 
L 984 0 
L 422 0 
z
" transform="scale(0.015625)"/>
       <path id="ArialMT-74" d="M 1650 503 
L 1731 6 
Q 1494 -44 1306 -44 
Q 1000 -44 831 53 
Q 663 150 594 308 
Q 525 466 525 972 
L 525 2881 
L 113 2881 
L 113 3319 
L 525 3319 
L 525 4141 
L 1084 4478 
L 1084 3319 
L 1650 3319 
L 1650 2881 
L 1084 2881 
L 1084 941 
Q 1084 700 1114 631 
Q 1144 563 1211 522 
Q 1278 481 1403 481 
Q 1497 481 1650 503 
z
" transform="scale(0.015625)"/>
       <path id="ArialMT-20" transform="scale(0.015625)"/>
       <path id="ArialMT-41" d="M -9 0 
L 1750 4581 
L 2403 4581 
L 4278 0 
L 3588 0 
L 3053 1388 
L 1138 1388 
L 634 0 
L -9 0 
z
M 1313 1881 
L 2866 1881 
L 2388 3150 
Q 2169 3728 2063 4100 
Q 1975 3659 1816 3225 
L 1313 1881 
z
" transform="scale(0.015625)"/>
       <path id="ArialMT-6c" d="M 409 0 
L 409 4581 
L 972 4581 
L 972 0 
L 409 0 
z
" transform="scale(0.015625)"/>
       <path id="ArialMT-67" d="M 319 -275 
L 866 -356 
Q 900 -609 1056 -725 
Q 1266 -881 1628 -881 
Q 2019 -881 2231 -725 
Q 2444 -569 2519 -288 
Q 2563 -116 2559 434 
Q 2191 0 1641 0 
Q 956 0 581 494 
Q 206 988 206 1678 
Q 206 2153 378 2554 
Q 550 2956 876 3175 
Q 1203 3394 1644 3394 
Q 2231 3394 2613 2919 
L 2613 3319 
L 3131 3319 
L 3131 450 
Q 3131 -325 2973 -648 
Q 2816 -972 2473 -1159 
Q 2131 -1347 1631 -1347 
Q 1038 -1347 672 -1080 
Q 306 -813 319 -275 
z
M 784 1719 
Q 784 1066 1043 766 
Q 1303 466 1694 466 
Q 2081 466 2343 764 
Q 2606 1063 2606 1700 
Q 2606 2309 2336 2618 
Q 2066 2928 1684 2928 
Q 1309 2928 1046 2623 
Q 784 2319 784 1719 
z
" transform="scale(0.015625)"/>
       <path id="ArialMT-6d" d="M 422 0 
L 422 3319 
L 925 3319 
L 925 2853 
Q 1081 3097 1340 3245 
Q 1600 3394 1931 3394 
Q 2300 3394 2536 3241 
Q 2772 3088 2869 2813 
Q 3263 3394 3894 3394 
Q 4388 3394 4653 3120 
Q 4919 2847 4919 2278 
L 4919 0 
L 4359 0 
L 4359 2091 
Q 4359 2428 4304 2576 
Q 4250 2725 4106 2815 
Q 3963 2906 3769 2906 
Q 3419 2906 3187 2673 
Q 2956 2441 2956 1928 
L 2956 0 
L 2394 0 
L 2394 2156 
Q 2394 2531 2256 2718 
Q 2119 2906 1806 2906 
Q 1569 2906 1367 2781 
Q 1166 2656 1075 2415 
Q 984 2175 984 1722 
L 984 0 
L 422 0 
z
" transform="scale(0.015625)"/>
      </defs>
      <use xlink:href="#ArialMT-47"/>
      <use xlink:href="#ArialMT-72" x="77.783203"/>
      <use xlink:href="#ArialMT-61" x="111.083984"/>
      <use xlink:href="#ArialMT-64" x="166.699219"/>
      <use xlink:href="#ArialMT-69" x="222.314453"/>
      <use xlink:href="#ArialMT-65" x="244.53125"/>
      <use xlink:href="#ArialMT-6e" x="300.146484"/>
      <use xlink:href="#ArialMT-74" x="355.761719"/>
      <use xlink:href="#ArialMT-20" x="383.544922"/>
      <use xlink:href="#ArialMT-41" x="405.828125"/>
      <use xlink:href="#ArialMT-6c" x="472.527344"/>
      <use xlink:href="#ArialMT-69" x="494.744141"/>
      <use xlink:href="#ArialMT-67" x="516.960938"/>
      <use xlink:href="#ArialMT-6e" x="572.576172"/>
      <use xlink:href="#ArialMT-6d" x="628.191406"/>
      <use xlink:href="#ArialMT-65" x="711.492188"/>
      <use xlink:href="#ArialMT-6e" x="767.107422"/>
      <use xlink:href="#ArialMT-74" x="822.722656"/>
     </g>
    </g>
   </g>
   <g id="line2d_9">
    <path d="M 88.011368 51.172108 
L 94.324294 49.210847 
L 100.637219 47.922422 
L 106.950145 46.649564 
L 113.263071 45.450262 
L 119.575996 45.114743 
L 125.888922 44.68944 
L 132.201848 44.667814 
L 138.514773 44.527675 
L 144.827699 44.235501 
L 151.140625 44.068353 
L 157.45355 43.997739 
L 163.766476 44.119895 
L 170.079402 43.658919 
L 176.392328 43.789868 
L 182.705253 43.9993 
L 189.018179 43.592235 
L 195.331105 43.730805 
L 201.64403 43.870348 
L 207.956956 44.021923 
L 214.269882 43.707907 
L 220.582807 43.781126 
L 226.895733 43.635043 
L 233.208659 43.709912 
L 239.521584 43.730595 
L 245.83451 43.614325 
L 252.147436 43.585278 
L 258.460361 43.525593 
L 264.773287 43.389923 
L 271.086213 43.479214 
L 277.399139 43.37712 
L 283.712064 43.63822 
L 290.02499 43.252376 
L 296.337916 43.456044 
L 302.650841 43.463576 
L 308.963767 43.244418 
L 315.276693 43.752352 
L 321.589618 43.187153 
L 327.902544 43.383944 
L 334.21547 43.275829 
L 340.528395 43.529436 
L 346.841321 43.912107 
L 353.154247 43.107926 
L 359.467172 43.186992 
L 365.780098 43.244762 
L 372.093024 43.303402 
L 378.40595 42.91211 
L 384.718875 43.186533 
L 391.031801 43.475062 
L 397.344727 43.112344 
" clip-path="url(#pf306522fe8)" style="fill: none; stroke-dasharray: 20,10; stroke-dashoffset: 0; stroke: #595c79; stroke-width: 2.5"/>
   </g>
   <g id="line2d_10">
    <path d="M 88.011368 52.850194 
L 94.324294 52.112248 
L 100.637219 51.427175 
L 106.950145 47.352045 
L 113.263071 46.028158 
L 119.575996 45.350997 
L 125.888922 45.917154 
L 132.201848 46.976044 
L 138.514773 45.53323 
L 144.827699 45.41137 
L 151.140625 46.804275 
L 157.45355 45.047157 
L 163.766476 44.384824 
L 170.079402 46.954451 
L 176.392328 45.106297 
L 182.705253 45.877651 
L 189.018179 45.176009 
L 195.331105 45.766161 
L 201.64403 44.072294 
L 207.956956 45.374142 
L 214.269882 44.684533 
L 220.582807 46.084472 
L 226.895733 44.867268 
L 233.208659 44.963277 
L 239.521584 45.366496 
L 245.83451 44.544345 
L 252.147436 45.699926 
L 258.460361 44.827539 
L 264.773287 44.454639 
L 271.086213 44.175611 
L 277.399139 45.172779 
L 283.712064 45.722088 
L 290.02499 45.134312 
L 296.337916 44.919593 
L 302.650841 44.698345 
L 308.963767 45.924039 
L 315.276693 45.363554 
L 321.589618 44.85708 
L 327.902544 44.81639 
L 334.21547 45.096095 
L 340.528395 45.178499 
L 346.841321 45.527379 
L 353.154247 44.257577 
L 359.467172 45.1885 
L 365.780098 45.35624 
L 372.093024 45.44409 
L 378.40595 44.212161 
L 384.718875 45.023504 
L 391.031801 45.36174 
L 397.344727 45.674827 
" clip-path="url(#pf306522fe8)" style="fill: none; stroke-dasharray: 20,10; stroke-dashoffset: 0; stroke: #7f909f; stroke-width: 2.5"/>
   </g>
   <g id="line2d_11">
    <path d="M 88.011368 61.412172 
L 94.324294 62.451548 
L 100.637219 58.895692 
L 106.950145 49.368618 
L 113.263071 48.969664 
L 119.575996 46.101354 
L 125.888922 47.253591 
L 132.201848 51.467342 
L 138.514773 46.309065 
L 144.827699 45.995458 
L 151.140625 48.732689 
L 157.45355 45.383811 
L 163.766476 45.697322 
L 170.079402 46.582025 
L 176.392328 46.481154 
L 182.705253 47.42816 
L 189.018179 46.484289 
L 195.331105 47.037472 
L 201.64403 45.518968 
L 207.956956 48.29147 
L 214.269882 47.0199 
L 220.582807 47.952088 
L 226.895733 46.221688 
L 233.208659 46.954499 
L 239.521584 46.942397 
L 245.83451 46.45172 
L 252.147436 47.378409 
L 258.460361 46.755481 
L 264.773287 46.237865 
L 271.086213 46.316809 
L 277.399139 46.337038 
L 283.712064 47.143067 
L 290.02499 46.968859 
L 296.337916 46.63981 
L 302.650841 46.832509 
L 308.963767 47.081763 
L 315.276693 47.43208 
L 321.589618 46.106362 
L 327.902544 46.808947 
L 334.21547 47.339302 
L 340.528395 46.908787 
L 346.841321 48.266801 
L 353.154247 48.108655 
L 359.467172 46.999974 
L 365.780098 47.299813 
L 372.093024 46.195585 
L 378.40595 46.698938 
L 384.718875 47.158041 
L 391.031801 47.301816 
L 397.344727 46.322497 
" clip-path="url(#pf306522fe8)" style="fill: none; stroke-dasharray: 20,10; stroke-dashoffset: 0; stroke: #a4c2c3; stroke-width: 2.5"/>
   </g>
   <g id="line2d_12">
    <path d="M 88.011368 79.397146 
L 94.324294 82.562388 
L 100.637219 77.553183 
L 106.950145 64.634471 
L 113.263071 64.620762 
L 119.575996 57.994203 
L 125.888922 54.139065 
L 132.201848 65.653419 
L 138.514773 56.030112 
L 144.827699 55.504069 
L 151.140625 58.866478 
L 157.45355 50.823375 
L 163.766476 49.268585 
L 170.079402 50.968177 
L 176.392328 52.055921 
L 182.705253 51.864345 
L 189.018179 50.862987 
L 195.331105 49.939715 
L 201.64403 47.699678 
L 207.956956 50.372233 
L 214.269882 49.741379 
L 220.582807 49.183421 
L 226.895733 49.742467 
L 233.208659 49.661318 
L 239.521584 51.167922 
L 245.83451 48.86801 
L 252.147436 51.157802 
L 258.460361 49.267481 
L 264.773287 49.240651 
L 271.086213 47.894488 
L 277.399139 49.541676 
L 283.712064 49.483924 
L 290.02499 48.7275 
L 296.337916 48.737578 
L 302.650841 49.962974 
L 308.963767 48.704758 
L 315.276693 48.884255 
L 321.589618 50.598794 
L 327.902544 49.766033 
L 334.21547 48.06073 
L 340.528395 49.909086 
L 346.841321 50.442926 
L 353.154247 49.197408 
L 359.467172 49.62809 
L 365.780098 50.08243 
L 372.093024 48.19193 
L 378.40595 49.984677 
L 384.718875 49.554887 
L 391.031801 48.531745 
L 397.344727 50.409367 
" clip-path="url(#pf306522fe8)" style="fill: none; stroke-dasharray: 20,10; stroke-dashoffset: 0; stroke: #dde9e9; stroke-width: 2.5"/>
   </g>
   <g id="patch_3">
    <path d="M 72.5447 124.9817 
L 72.5447 36.3766 
" style="fill: none; stroke: #000000; stroke-width: 1.5; stroke-linejoin: miter; stroke-linecap: square"/>
   </g>
   <g id="patch_4">
    <path d="M 72.5447 124.9817 
L 412.811395 124.9817 
" style="fill: none; stroke: #000000; stroke-width: 1.5; stroke-linejoin: miter; stroke-linecap: square"/>
   </g>
   <g id="text_11">
    <!-- I-Norm /w GradNorm -->
    <g transform="translate(162.517747 30.3766)scale(0.1728 -0.1728)">
     <defs>
      <path id="ArialMT-49" d="M 597 0 
L 597 4581 
L 1203 4581 
L 1203 0 
L 597 0 
z
" transform="scale(0.015625)"/>
      <path id="ArialMT-2d" d="M 203 1375 
L 203 1941 
L 1931 1941 
L 1931 1375 
L 203 1375 
z
" transform="scale(0.015625)"/>
      <path id="ArialMT-4e" d="M 488 0 
L 488 4581 
L 1109 4581 
L 3516 984 
L 3516 4581 
L 4097 4581 
L 4097 0 
L 3475 0 
L 1069 3600 
L 1069 0 
L 488 0 
z
" transform="scale(0.015625)"/>
      <path id="ArialMT-2f" d="M 0 -78 
L 1328 4659 
L 1778 4659 
L 453 -78 
L 0 -78 
z
" transform="scale(0.015625)"/>
      <path id="ArialMT-77" d="M 1034 0 
L 19 3319 
L 600 3319 
L 1128 1403 
L 1325 691 
Q 1338 744 1497 1375 
L 2025 3319 
L 2603 3319 
L 3100 1394 
L 3266 759 
L 3456 1400 
L 4025 3319 
L 4572 3319 
L 3534 0 
L 2950 0 
L 2422 1988 
L 2294 2553 
L 1622 0 
L 1034 0 
z
" transform="scale(0.015625)"/>
     </defs>
     <use xlink:href="#ArialMT-49"/>
     <use xlink:href="#ArialMT-2d" x="27.783203"/>
     <use xlink:href="#ArialMT-4e" x="61.083984"/>
     <use xlink:href="#ArialMT-6f" x="133.300781"/>
     <use xlink:href="#ArialMT-72" x="188.916016"/>
     <use xlink:href="#ArialMT-6d" x="222.216797"/>
     <use xlink:href="#ArialMT-20" x="305.517578"/>
     <use xlink:href="#ArialMT-2f" x="333.300781"/>
     <use xlink:href="#ArialMT-77" x="361.083984"/>
     <use xlink:href="#ArialMT-20" x="433.300781"/>
     <use xlink:href="#ArialMT-47" x="461.083984"/>
     <use xlink:href="#ArialMT-72" x="538.867188"/>
     <use xlink:href="#ArialMT-61" x="572.167969"/>
     <use xlink:href="#ArialMT-64" x="627.783203"/>
     <use xlink:href="#ArialMT-4e" x="683.398438"/>
     <use xlink:href="#ArialMT-6f" x="755.615234"/>
     <use xlink:href="#ArialMT-72" x="811.230469"/>
     <use xlink:href="#ArialMT-6d" x="844.53125"/>
    </g>
   </g>
  </g>
 </g>
 <defs>
  <clipPath id="pf306522fe8">
   <rect x="72.5447" y="36.3766" width="340.266695" height="88.6051"/>
  </clipPath>
 </defs>
</svg>
