<?xml version="1.0" encoding="utf-8" standalone="no"?>
<!DOCTYPE svg PUBLIC "-//W3C//DTD SVG 1.1//EN"
  "http://www.w3.org/Graphics/SVG/1.1/DTD/svg11.dtd">
<svg xmlns:xlink="http://www.w3.org/1999/xlink" width="420.48pt" height="420.48pt" viewBox="0 0 420.48 420.48" xmlns="http://www.w3.org/2000/svg" version="1.1">
 <metadata>
  <rdf:RDF xmlns:dc="http://purl.org/dc/elements/1.1/" xmlns:cc="http://creativecommons.org/ns#" xmlns:rdf="http://www.w3.org/1999/02/22-rdf-syntax-ns#">
   <cc:Work>
    <dc:type rdf:resource="http://purl.org/dc/dcmitype/StillImage"/>
    <dc:date>2025-11-25T21:01:04.621753</dc:date>
    <dc:format>image/svg+xml</dc:format>
    <dc:creator>
     <cc:Agent>
      <dc:title>Matplotlib v3.5.3, https://matplotlib.org/</dc:title>
     </cc:Agent>
    </dc:creator>
   </cc:Work>
  </rdf:RDF>
 </metadata>
 <defs>
  <style type="text/css">*{stroke-linejoin: round; stroke-linecap: butt}</style>
 </defs>
 <g id="figure_1">
  <g id="patch_1">
   <path d="M 0 420.48 
L 420.48 420.48 
L 420.48 0 
L 0 0 
z
" style="fill: #ffffff"/>
  </g>
  <g id="axes_1">
   <g id="patch_2">
    <path d="M 57.7217 99.235567 
L 413.28 99.235567 
L 413.28 25.5687 
L 57.7217 25.5687 
z
" style="fill: #ffffff"/>
   </g>
   <g id="patch_3">
    <path d="M 238.099121 99.235567 
L 244.392496 99.235567 
L 244.392496 84.201512 
L 238.099121 84.201512 
z
" clip-path="url(#pf16e38a7a1)" style="fill: #002040; opacity: 0.7"/>
   </g>
   <g id="patch_4">
    <path d="M 244.392496 99.235567 
L 250.685872 99.235567 
L 250.685872 69.167458 
L 244.392496 69.167458 
z
" clip-path="url(#pf16e38a7a1)" style="fill: #002040; opacity: 0.7"/>
   </g>
   <g id="patch_5">
    <path d="M 250.685872 99.235567 
L 256.979247 99.235567 
L 256.979247 39.099349 
L 250.685872 39.099349 
z
" clip-path="url(#pf16e38a7a1)" style="fill: #002040; opacity: 0.7"/>
   </g>
   <g id="patch_6">
    <path d="M 256.979247 99.235567 
L 263.272623 99.235567 
L 263.272623 54.133403 
L 256.979247 54.133403 
z
" clip-path="url(#pf16e38a7a1)" style="fill: #002040; opacity: 0.7"/>
   </g>
   <g id="patch_7">
    <path d="M 263.272623 99.235567 
L 269.565998 99.235567 
L 269.565998 54.133403 
L 263.272623 54.133403 
z
" clip-path="url(#pf16e38a7a1)" style="fill: #002040; opacity: 0.7"/>
   </g>
   <g id="patch_8">
    <path d="M 269.565998 99.235567 
L 275.859374 99.235567 
L 275.859374 64.156106 
L 269.565998 64.156106 
z
" clip-path="url(#pf16e38a7a1)" style="fill: #002040; opacity: 0.7"/>
   </g>
   <g id="patch_9">
    <path d="M 275.859374 99.235567 
L 282.15275 99.235567 
L 282.15275 54.133403 
L 275.859374 54.133403 
z
" clip-path="url(#pf16e38a7a1)" style="fill: #002040; opacity: 0.7"/>
   </g>
   <g id="patch_10">
    <path d="M 282.15275 99.235567 
L 288.446125 99.235567 
L 288.446125 29.076646 
L 282.15275 29.076646 
z
" clip-path="url(#pf16e38a7a1)" style="fill: #002040; opacity: 0.7"/>
   </g>
   <g id="patch_11">
    <path d="M 288.446125 99.235567 
L 294.739501 99.235567 
L 294.739501 59.144755 
L 288.446125 59.144755 
z
" clip-path="url(#pf16e38a7a1)" style="fill: #002040; opacity: 0.7"/>
   </g>
   <g id="patch_12">
    <path d="M 294.739501 99.235567 
L 301.032876 99.235567 
L 301.032876 74.178809 
L 294.739501 74.178809 
z
" clip-path="url(#pf16e38a7a1)" style="fill: #002040; opacity: 0.7"/>
   </g>
   <g id="patch_13">
    <path d="M 301.032876 99.235567 
L 307.326252 99.235567 
L 307.326252 44.1107 
L 301.032876 44.1107 
z
" clip-path="url(#pf16e38a7a1)" style="fill: #002040; opacity: 0.7"/>
   </g>
   <g id="patch_14">
    <path d="M 307.326252 99.235567 
L 313.619627 99.235567 
L 313.619627 64.156106 
L 307.326252 64.156106 
z
" clip-path="url(#pf16e38a7a1)" style="fill: #002040; opacity: 0.7"/>
   </g>
   <g id="patch_15">
    <path d="M 313.619627 99.235567 
L 319.913003 99.235567 
L 319.913003 69.167458 
L 313.619627 69.167458 
z
" clip-path="url(#pf16e38a7a1)" style="fill: #002040; opacity: 0.7"/>
   </g>
   <g id="patch_16">
    <path d="M 319.913003 99.235567 
L 326.206378 99.235567 
L 326.206378 59.144755 
L 319.913003 59.144755 
z
" clip-path="url(#pf16e38a7a1)" style="fill: #002040; opacity: 0.7"/>
   </g>
   <g id="patch_17">
    <path d="M 326.206378 99.235567 
L 332.499754 99.235567 
L 332.499754 74.178809 
L 326.206378 74.178809 
z
" clip-path="url(#pf16e38a7a1)" style="fill: #002040; opacity: 0.7"/>
   </g>
   <g id="patch_18">
    <path d="M 332.499754 99.235567 
L 338.793129 99.235567 
L 338.793129 99.235567 
L 332.499754 99.235567 
z
" clip-path="url(#pf16e38a7a1)" style="fill: #002040; opacity: 0.7"/>
   </g>
   <g id="patch_19">
    <path d="M 338.793129 99.235567 
L 345.086505 99.235567 
L 345.086505 99.235567 
L 338.793129 99.235567 
z
" clip-path="url(#pf16e38a7a1)" style="fill: #002040; opacity: 0.7"/>
   </g>
   <g id="patch_20">
    <path d="M 345.086505 99.235567 
L 351.379881 99.235567 
L 351.379881 99.235567 
L 345.086505 99.235567 
z
" clip-path="url(#pf16e38a7a1)" style="fill: #002040; opacity: 0.7"/>
   </g>
   <g id="patch_21">
    <path d="M 351.379881 99.235567 
L 357.673256 99.235567 
L 357.673256 99.235567 
L 351.379881 99.235567 
z
" clip-path="url(#pf16e38a7a1)" style="fill: #002040; opacity: 0.7"/>
   </g>
   <g id="patch_22">
    <path d="M 357.673256 99.235567 
L 363.966632 99.235567 
L 363.966632 94.224215 
L 357.673256 94.224215 
z
" clip-path="url(#pf16e38a7a1)" style="fill: #002040; opacity: 0.7"/>
   </g>
   <g id="matplotlib.axis_1">
    <g id="xtick_1">
     <g id="line2d_1">
      <defs>
       <path id="mc0963ef294" d="M 0 0 
L 0 8 
" style="stroke: #000000; stroke-width: 2"/>
      </defs>
      <g>
       <use xlink:href="#mc0963ef294" x="57.7217" y="99.235567" style="stroke: #000000; stroke-width: 2"/>
      </g>
     </g>
     <g id="text_1">
      <!-- 0.0 -->
      <g transform="translate(45.7121 123.104267)scale(0.1728 -0.1728)">
       <defs>
        <path id="ArialMT-30" d="M 266 2259 
Q 266 3072 433 3567 
Q 600 4063 929 4331 
Q 1259 4600 1759 4600 
Q 2128 4600 2406 4451 
Q 2684 4303 2865 4023 
Q 3047 3744 3150 3342 
Q 3253 2941 3253 2259 
Q 3253 1453 3087 958 
Q 2922 463 2592 192 
Q 2263 -78 1759 -78 
Q 1097 -78 719 397 
Q 266 969 266 2259 
z
M 844 2259 
Q 844 1131 1108 757 
Q 1372 384 1759 384 
Q 2147 384 2411 759 
Q 2675 1134 2675 2259 
Q 2675 3391 2411 3762 
Q 2147 4134 1753 4134 
Q 1366 4134 1134 3806 
Q 844 3388 844 2259 
z
" transform="scale(0.015625)"/>
        <path id="ArialMT-2e" d="M 581 0 
L 581 641 
L 1222 641 
L 1222 0 
L 581 0 
z
" transform="scale(0.015625)"/>
       </defs>
       <use xlink:href="#ArialMT-30"/>
       <use xlink:href="#ArialMT-2e" x="55.615234"/>
       <use xlink:href="#ArialMT-30" x="83.398438"/>
      </g>
     </g>
    </g>
    <g id="xtick_2">
     <g id="line2d_2">
      <g>
       <use xlink:href="#mc0963ef294" x="167.124254" y="99.235567" style="stroke: #000000; stroke-width: 2"/>
      </g>
     </g>
     <g id="text_2">
      <!-- 0.2 -->
      <g transform="translate(155.114654 123.104267)scale(0.1728 -0.1728)">
       <defs>
        <path id="ArialMT-32" d="M 3222 541 
L 3222 0 
L 194 0 
Q 188 203 259 391 
Q 375 700 629 1000 
Q 884 1300 1366 1694 
Q 2113 2306 2375 2664 
Q 2638 3022 2638 3341 
Q 2638 3675 2398 3904 
Q 2159 4134 1775 4134 
Q 1369 4134 1125 3890 
Q 881 3647 878 3216 
L 300 3275 
Q 359 3922 746 4261 
Q 1134 4600 1788 4600 
Q 2447 4600 2831 4234 
Q 3216 3869 3216 3328 
Q 3216 3053 3103 2787 
Q 2991 2522 2730 2228 
Q 2469 1934 1863 1422 
Q 1356 997 1212 845 
Q 1069 694 975 541 
L 3222 541 
z
" transform="scale(0.015625)"/>
       </defs>
       <use xlink:href="#ArialMT-30"/>
       <use xlink:href="#ArialMT-2e" x="55.615234"/>
       <use xlink:href="#ArialMT-32" x="83.398438"/>
      </g>
     </g>
    </g>
    <g id="xtick_3">
     <g id="line2d_3">
      <g>
       <use xlink:href="#mc0963ef294" x="276.526808" y="99.235567" style="stroke: #000000; stroke-width: 2"/>
      </g>
     </g>
     <g id="text_3">
      <!-- 0.4 -->
      <g transform="translate(264.517208 123.104267)scale(0.1728 -0.1728)">
       <defs>
        <path id="ArialMT-34" d="M 2069 0 
L 2069 1097 
L 81 1097 
L 81 1613 
L 2172 4581 
L 2631 4581 
L 2631 1613 
L 3250 1613 
L 3250 1097 
L 2631 1097 
L 2631 0 
L 2069 0 
z
M 2069 1613 
L 2069 3678 
L 634 1613 
L 2069 1613 
z
" transform="scale(0.015625)"/>
       </defs>
       <use xlink:href="#ArialMT-30"/>
       <use xlink:href="#ArialMT-2e" x="55.615234"/>
       <use xlink:href="#ArialMT-34" x="83.398438"/>
      </g>
     </g>
    </g>
    <g id="xtick_4">
     <g id="line2d_4">
      <g>
       <use xlink:href="#mc0963ef294" x="385.929362" y="99.235567" style="stroke: #000000; stroke-width: 2"/>
      </g>
     </g>
     <g id="text_4">
      <!-- 0.6 -->
      <g transform="translate(373.919762 123.104267)scale(0.1728 -0.1728)">
       <defs>
        <path id="ArialMT-36" d="M 3184 3459 
L 2625 3416 
Q 2550 3747 2413 3897 
Q 2184 4138 1850 4138 
Q 1581 4138 1378 3988 
Q 1113 3794 959 3422 
Q 806 3050 800 2363 
Q 1003 2672 1297 2822 
Q 1591 2972 1913 2972 
Q 2475 2972 2870 2558 
Q 3266 2144 3266 1488 
Q 3266 1056 3080 686 
Q 2894 316 2569 119 
Q 2244 -78 1831 -78 
Q 1128 -78 684 439 
Q 241 956 241 2144 
Q 241 3472 731 4075 
Q 1159 4600 1884 4600 
Q 2425 4600 2770 4297 
Q 3116 3994 3184 3459 
z
M 888 1484 
Q 888 1194 1011 928 
Q 1134 663 1356 523 
Q 1578 384 1822 384 
Q 2178 384 2434 671 
Q 2691 959 2691 1453 
Q 2691 1928 2437 2201 
Q 2184 2475 1800 2475 
Q 1419 2475 1153 2201 
Q 888 1928 888 1484 
z
" transform="scale(0.015625)"/>
       </defs>
       <use xlink:href="#ArialMT-30"/>
       <use xlink:href="#ArialMT-2e" x="55.615234"/>
       <use xlink:href="#ArialMT-36" x="83.398438"/>
      </g>
     </g>
    </g>
   </g>
   <g id="matplotlib.axis_2">
    <g id="ytick_1">
     <g id="line2d_5">
      <defs>
       <path id="mdea8e4c719" d="M 0 0 
L -8 0 
" style="stroke: #000000; stroke-width: 2"/>
      </defs>
      <g>
       <use xlink:href="#mdea8e4c719" x="57.7217" y="99.235567" style="stroke: #000000; stroke-width: 2"/>
      </g>
     </g>
     <g id="text_5">
      <!-- 0 -->
      <g transform="translate(36.6124 105.419917)scale(0.1728 -0.1728)">
       <use xlink:href="#ArialMT-30"/>
      </g>
     </g>
    </g>
    <g id="ytick_2">
     <g id="line2d_6">
      <g>
       <use xlink:href="#mdea8e4c719" x="57.7217" y="49.122052" style="stroke: #000000; stroke-width: 2"/>
      </g>
     </g>
     <g id="text_6">
      <!-- 10 -->
      <g transform="translate(27.0031 55.306402)scale(0.1728 -0.1728)">
       <defs>
        <path id="ArialMT-31" d="M 2384 0 
L 1822 0 
L 1822 3584 
Q 1619 3391 1289 3197 
Q 959 3003 697 2906 
L 697 3450 
Q 1169 3672 1522 3987 
Q 1875 4303 2022 4600 
L 2384 4600 
L 2384 0 
z
" transform="scale(0.015625)"/>
       </defs>
       <use xlink:href="#ArialMT-31"/>
       <use xlink:href="#ArialMT-30" x="55.615234"/>
      </g>
     </g>
    </g>
    <g id="text_7">
     <!-- Count -->
     <g transform="translate(19.5687 85.456083)rotate(-90)scale(0.1728 -0.1728)">
      <defs>
       <path id="ArialMT-43" d="M 3763 1606 
L 4369 1453 
Q 4178 706 3683 314 
Q 3188 -78 2472 -78 
Q 1731 -78 1267 223 
Q 803 525 561 1097 
Q 319 1669 319 2325 
Q 319 3041 592 3573 
Q 866 4106 1370 4382 
Q 1875 4659 2481 4659 
Q 3169 4659 3637 4309 
Q 4106 3959 4291 3325 
L 3694 3184 
Q 3534 3684 3231 3912 
Q 2928 4141 2469 4141 
Q 1941 4141 1586 3887 
Q 1231 3634 1087 3207 
Q 944 2781 944 2328 
Q 944 1744 1114 1308 
Q 1284 872 1643 656 
Q 2003 441 2422 441 
Q 2931 441 3284 734 
Q 3638 1028 3763 1606 
z
" transform="scale(0.015625)"/>
       <path id="ArialMT-6f" d="M 213 1659 
Q 213 2581 725 3025 
Q 1153 3394 1769 3394 
Q 2453 3394 2887 2945 
Q 3322 2497 3322 1706 
Q 3322 1066 3130 698 
Q 2938 331 2570 128 
Q 2203 -75 1769 -75 
Q 1072 -75 642 372 
Q 213 819 213 1659 
z
M 791 1659 
Q 791 1022 1069 705 
Q 1347 388 1769 388 
Q 2188 388 2466 706 
Q 2744 1025 2744 1678 
Q 2744 2294 2464 2611 
Q 2184 2928 1769 2928 
Q 1347 2928 1069 2612 
Q 791 2297 791 1659 
z
" transform="scale(0.015625)"/>
       <path id="ArialMT-75" d="M 2597 0 
L 2597 488 
Q 2209 -75 1544 -75 
Q 1250 -75 995 37 
Q 741 150 617 320 
Q 494 491 444 738 
Q 409 903 409 1263 
L 409 3319 
L 972 3319 
L 972 1478 
Q 972 1038 1006 884 
Q 1059 663 1231 536 
Q 1403 409 1656 409 
Q 1909 409 2131 539 
Q 2353 669 2445 892 
Q 2538 1116 2538 1541 
L 2538 3319 
L 3100 3319 
L 3100 0 
L 2597 0 
z
" transform="scale(0.015625)"/>
       <path id="ArialMT-6e" d="M 422 0 
L 422 3319 
L 928 3319 
L 928 2847 
Q 1294 3394 1984 3394 
Q 2284 3394 2536 3286 
Q 2788 3178 2913 3003 
Q 3038 2828 3088 2588 
Q 3119 2431 3119 2041 
L 3119 0 
L 2556 0 
L 2556 2019 
Q 2556 2363 2490 2533 
Q 2425 2703 2258 2804 
Q 2091 2906 1866 2906 
Q 1506 2906 1245 2678 
Q 984 2450 984 1813 
L 984 0 
L 422 0 
z
" transform="scale(0.015625)"/>
       <path id="ArialMT-74" d="M 1650 503 
L 1731 6 
Q 1494 -44 1306 -44 
Q 1000 -44 831 53 
Q 663 150 594 308 
Q 525 466 525 972 
L 525 2881 
L 113 2881 
L 113 3319 
L 525 3319 
L 525 4141 
L 1084 4478 
L 1084 3319 
L 1650 3319 
L 1650 2881 
L 1084 2881 
L 1084 941 
Q 1084 700 1114 631 
Q 1144 563 1211 522 
Q 1278 481 1403 481 
Q 1497 481 1650 503 
z
" transform="scale(0.015625)"/>
      </defs>
      <use xlink:href="#ArialMT-43"/>
      <use xlink:href="#ArialMT-6f" x="72.216797"/>
      <use xlink:href="#ArialMT-75" x="127.832031"/>
      <use xlink:href="#ArialMT-6e" x="183.447266"/>
      <use xlink:href="#ArialMT-74" x="239.0625"/>
     </g>
    </g>
   </g>
   <g id="patch_23">
    <path d="M 57.7217 99.235567 
L 57.7217 25.5687 
" style="fill: none; stroke: #000000; stroke-width: 1.5; stroke-linejoin: miter; stroke-linecap: square"/>
   </g>
   <g id="patch_24">
    <path d="M 57.7217 99.235567 
L 413.28 99.235567 
" style="fill: none; stroke: #000000; stroke-width: 1.5; stroke-linejoin: miter; stroke-linecap: square"/>
   </g>
   <g id="text_8">
    <!-- center Feedback -->
    <g transform="translate(171.14905 19.5687)scale(0.1728 -0.1728)">
     <defs>
      <path id="ArialMT-63" d="M 2588 1216 
L 3141 1144 
Q 3050 572 2676 248 
Q 2303 -75 1759 -75 
Q 1078 -75 664 370 
Q 250 816 250 1647 
Q 250 2184 428 2587 
Q 606 2991 970 3192 
Q 1334 3394 1763 3394 
Q 2303 3394 2647 3120 
Q 2991 2847 3088 2344 
L 2541 2259 
Q 2463 2594 2264 2762 
Q 2066 2931 1784 2931 
Q 1359 2931 1093 2626 
Q 828 2322 828 1663 
Q 828 994 1084 691 
Q 1341 388 1753 388 
Q 2084 388 2306 591 
Q 2528 794 2588 1216 
z
" transform="scale(0.015625)"/>
      <path id="ArialMT-65" d="M 2694 1069 
L 3275 997 
Q 3138 488 2766 206 
Q 2394 -75 1816 -75 
Q 1088 -75 661 373 
Q 234 822 234 1631 
Q 234 2469 665 2931 
Q 1097 3394 1784 3394 
Q 2450 3394 2872 2941 
Q 3294 2488 3294 1666 
Q 3294 1616 3291 1516 
L 816 1516 
Q 847 969 1125 678 
Q 1403 388 1819 388 
Q 2128 388 2347 550 
Q 2566 713 2694 1069 
z
M 847 1978 
L 2700 1978 
Q 2663 2397 2488 2606 
Q 2219 2931 1791 2931 
Q 1403 2931 1139 2672 
Q 875 2413 847 1978 
z
" transform="scale(0.015625)"/>
      <path id="ArialMT-72" d="M 416 0 
L 416 3319 
L 922 3319 
L 922 2816 
Q 1116 3169 1280 3281 
Q 1444 3394 1641 3394 
Q 1925 3394 2219 3213 
L 2025 2691 
Q 1819 2813 1613 2813 
Q 1428 2813 1281 2702 
Q 1134 2591 1072 2394 
Q 978 2094 978 1738 
L 978 0 
L 416 0 
z
" transform="scale(0.015625)"/>
      <path id="ArialMT-20" transform="scale(0.015625)"/>
      <path id="ArialMT-46" d="M 525 0 
L 525 4581 
L 3616 4581 
L 3616 4041 
L 1131 4041 
L 1131 2622 
L 3281 2622 
L 3281 2081 
L 1131 2081 
L 1131 0 
L 525 0 
z
" transform="scale(0.015625)"/>
      <path id="ArialMT-64" d="M 2575 0 
L 2575 419 
Q 2259 -75 1647 -75 
Q 1250 -75 917 144 
Q 584 363 401 755 
Q 219 1147 219 1656 
Q 219 2153 384 2558 
Q 550 2963 881 3178 
Q 1213 3394 1622 3394 
Q 1922 3394 2156 3267 
Q 2391 3141 2538 2938 
L 2538 4581 
L 3097 4581 
L 3097 0 
L 2575 0 
z
M 797 1656 
Q 797 1019 1065 703 
Q 1334 388 1700 388 
Q 2069 388 2326 689 
Q 2584 991 2584 1609 
Q 2584 2291 2321 2609 
Q 2059 2928 1675 2928 
Q 1300 2928 1048 2622 
Q 797 2316 797 1656 
z
" transform="scale(0.015625)"/>
      <path id="ArialMT-62" d="M 941 0 
L 419 0 
L 419 4581 
L 981 4581 
L 981 2947 
Q 1338 3394 1891 3394 
Q 2197 3394 2470 3270 
Q 2744 3147 2920 2923 
Q 3097 2700 3197 2384 
Q 3297 2069 3297 1709 
Q 3297 856 2875 390 
Q 2453 -75 1863 -75 
Q 1275 -75 941 416 
L 941 0 
z
M 934 1684 
Q 934 1088 1097 822 
Q 1363 388 1816 388 
Q 2184 388 2453 708 
Q 2722 1028 2722 1663 
Q 2722 2313 2464 2622 
Q 2206 2931 1841 2931 
Q 1472 2931 1203 2611 
Q 934 2291 934 1684 
z
" transform="scale(0.015625)"/>
      <path id="ArialMT-61" d="M 2588 409 
Q 2275 144 1986 34 
Q 1697 -75 1366 -75 
Q 819 -75 525 192 
Q 231 459 231 875 
Q 231 1119 342 1320 
Q 453 1522 633 1644 
Q 813 1766 1038 1828 
Q 1203 1872 1538 1913 
Q 2219 1994 2541 2106 
Q 2544 2222 2544 2253 
Q 2544 2597 2384 2738 
Q 2169 2928 1744 2928 
Q 1347 2928 1158 2789 
Q 969 2650 878 2297 
L 328 2372 
Q 403 2725 575 2942 
Q 747 3159 1072 3276 
Q 1397 3394 1825 3394 
Q 2250 3394 2515 3294 
Q 2781 3194 2906 3042 
Q 3031 2891 3081 2659 
Q 3109 2516 3109 2141 
L 3109 1391 
Q 3109 606 3145 398 
Q 3181 191 3288 0 
L 2700 0 
Q 2613 175 2588 409 
z
M 2541 1666 
Q 2234 1541 1622 1453 
Q 1275 1403 1131 1340 
Q 988 1278 909 1158 
Q 831 1038 831 891 
Q 831 666 1001 516 
Q 1172 366 1500 366 
Q 1825 366 2078 508 
Q 2331 650 2450 897 
Q 2541 1088 2541 1459 
L 2541 1666 
z
" transform="scale(0.015625)"/>
      <path id="ArialMT-6b" d="M 425 0 
L 425 4581 
L 988 4581 
L 988 1969 
L 2319 3319 
L 3047 3319 
L 1778 2088 
L 3175 0 
L 2481 0 
L 1384 1697 
L 988 1316 
L 988 0 
L 425 0 
z
" transform="scale(0.015625)"/>
     </defs>
     <use xlink:href="#ArialMT-63"/>
     <use xlink:href="#ArialMT-65" x="50"/>
     <use xlink:href="#ArialMT-6e" x="105.615234"/>
     <use xlink:href="#ArialMT-74" x="161.230469"/>
     <use xlink:href="#ArialMT-65" x="189.013672"/>
     <use xlink:href="#ArialMT-72" x="244.628906"/>
     <use xlink:href="#ArialMT-20" x="277.929688"/>
     <use xlink:href="#ArialMT-46" x="305.712891"/>
     <use xlink:href="#ArialMT-65" x="366.796875"/>
     <use xlink:href="#ArialMT-65" x="422.412109"/>
     <use xlink:href="#ArialMT-64" x="478.027344"/>
     <use xlink:href="#ArialMT-62" x="533.642578"/>
     <use xlink:href="#ArialMT-61" x="589.257812"/>
     <use xlink:href="#ArialMT-63" x="644.873047"/>
     <use xlink:href="#ArialMT-6b" x="694.873047"/>
    </g>
   </g>
  </g>
  <g id="axes_2">
   <g id="patch_25">
    <path d="M 57.7217 231.534233 
L 413.28 231.534233 
L 413.28 157.867367 
L 57.7217 157.867367 
z
" style="fill: #ffffff"/>
   </g>
   <g id="patch_26">
    <path d="M 196.140326 231.534233 
L 201.787926 231.534233 
L 201.787926 180.509564 
L 196.140326 180.509564 
z
" clip-path="url(#p62ec25391e)" style="fill: #004080; opacity: 0.7"/>
   </g>
   <g id="patch_27">
    <path d="M 201.787926 231.534233 
L 207.435525 231.534233 
L 207.435525 161.375313 
L 201.787926 161.375313 
z
" clip-path="url(#p62ec25391e)" style="fill: #004080; opacity: 0.7"/>
   </g>
   <g id="patch_28">
    <path d="M 207.435525 231.534233 
L 213.083125 231.534233 
L 213.083125 193.265731 
L 207.435525 193.265731 
z
" clip-path="url(#p62ec25391e)" style="fill: #004080; opacity: 0.7"/>
   </g>
   <g id="patch_29">
    <path d="M 213.083125 231.534233 
L 218.730725 231.534233 
L 218.730725 212.399982 
L 213.083125 212.399982 
z
" clip-path="url(#p62ec25391e)" style="fill: #004080; opacity: 0.7"/>
   </g>
   <g id="patch_30">
    <path d="M 218.730725 231.534233 
L 224.378324 231.534233 
L 224.378324 196.454773 
L 218.730725 196.454773 
z
" clip-path="url(#p62ec25391e)" style="fill: #004080; opacity: 0.7"/>
   </g>
   <g id="patch_31">
    <path d="M 224.378324 231.534233 
L 230.025924 231.534233 
L 230.025924 215.589024 
L 224.378324 215.589024 
z
" clip-path="url(#p62ec25391e)" style="fill: #004080; opacity: 0.7"/>
   </g>
   <g id="patch_32">
    <path d="M 230.025924 231.534233 
L 235.673523 231.534233 
L 235.673523 221.967108 
L 230.025924 221.967108 
z
" clip-path="url(#p62ec25391e)" style="fill: #004080; opacity: 0.7"/>
   </g>
   <g id="patch_33">
    <path d="M 235.673523 231.534233 
L 241.321123 231.534233 
L 241.321123 215.589024 
L 235.673523 215.589024 
z
" clip-path="url(#p62ec25391e)" style="fill: #004080; opacity: 0.7"/>
   </g>
   <g id="patch_34">
    <path d="M 241.321123 231.534233 
L 246.968722 231.534233 
L 246.968722 218.778066 
L 241.321123 218.778066 
z
" clip-path="url(#p62ec25391e)" style="fill: #004080; opacity: 0.7"/>
   </g>
   <g id="patch_35">
    <path d="M 246.968722 231.534233 
L 252.616322 231.534233 
L 252.616322 225.15615 
L 246.968722 225.15615 
z
" clip-path="url(#p62ec25391e)" style="fill: #004080; opacity: 0.7"/>
   </g>
   <g id="patch_36">
    <path d="M 252.616322 231.534233 
L 258.263922 231.534233 
L 258.263922 225.15615 
L 252.616322 225.15615 
z
" clip-path="url(#p62ec25391e)" style="fill: #004080; opacity: 0.7"/>
   </g>
   <g id="patch_37">
    <path d="M 258.263922 231.534233 
L 263.911521 231.534233 
L 263.911521 228.345191 
L 258.263922 228.345191 
z
" clip-path="url(#p62ec25391e)" style="fill: #004080; opacity: 0.7"/>
   </g>
   <g id="patch_38">
    <path d="M 263.911521 231.534233 
L 269.559121 231.534233 
L 269.559121 225.15615 
L 263.911521 225.15615 
z
" clip-path="url(#p62ec25391e)" style="fill: #004080; opacity: 0.7"/>
   </g>
   <g id="patch_39">
    <path d="M 269.559121 231.534233 
L 275.20672 231.534233 
L 275.20672 228.345191 
L 269.559121 228.345191 
z
" clip-path="url(#p62ec25391e)" style="fill: #004080; opacity: 0.7"/>
   </g>
   <g id="patch_40">
    <path d="M 275.20672 231.534233 
L 280.85432 231.534233 
L 280.85432 228.345191 
L 275.20672 228.345191 
z
" clip-path="url(#p62ec25391e)" style="fill: #004080; opacity: 0.7"/>
   </g>
   <g id="patch_41">
    <path d="M 280.85432 231.534233 
L 286.501919 231.534233 
L 286.501919 231.534233 
L 280.85432 231.534233 
z
" clip-path="url(#p62ec25391e)" style="fill: #004080; opacity: 0.7"/>
   </g>
   <g id="patch_42">
    <path d="M 286.501919 231.534233 
L 292.149519 231.534233 
L 292.149519 228.345191 
L 286.501919 228.345191 
z
" clip-path="url(#p62ec25391e)" style="fill: #004080; opacity: 0.7"/>
   </g>
   <g id="patch_43">
    <path d="M 292.149519 231.534233 
L 297.797119 231.534233 
L 297.797119 228.345191 
L 292.149519 228.345191 
z
" clip-path="url(#p62ec25391e)" style="fill: #004080; opacity: 0.7"/>
   </g>
   <g id="patch_44">
    <path d="M 297.797119 231.534233 
L 303.444718 231.534233 
L 303.444718 228.345191 
L 297.797119 228.345191 
z
" clip-path="url(#p62ec25391e)" style="fill: #004080; opacity: 0.7"/>
   </g>
   <g id="patch_45">
    <path d="M 303.444718 231.534233 
L 309.092318 231.534233 
L 309.092318 228.345191 
L 303.444718 228.345191 
z
" clip-path="url(#p62ec25391e)" style="fill: #004080; opacity: 0.7"/>
   </g>
   <g id="matplotlib.axis_3">
    <g id="xtick_5">
     <g id="line2d_7">
      <g>
       <use xlink:href="#mc0963ef294" x="57.7217" y="231.534233" style="stroke: #000000; stroke-width: 2"/>
      </g>
     </g>
     <g id="text_9">
      <!-- 0.0 -->
      <g transform="translate(45.7121 255.402933)scale(0.1728 -0.1728)">
       <use xlink:href="#ArialMT-30"/>
       <use xlink:href="#ArialMT-2e" x="55.615234"/>
       <use xlink:href="#ArialMT-30" x="83.398438"/>
      </g>
     </g>
    </g>
    <g id="xtick_6">
     <g id="line2d_8">
      <g>
       <use xlink:href="#mc0963ef294" x="167.124254" y="231.534233" style="stroke: #000000; stroke-width: 2"/>
      </g>
     </g>
     <g id="text_10">
      <!-- 0.2 -->
      <g transform="translate(155.114654 255.402933)scale(0.1728 -0.1728)">
       <use xlink:href="#ArialMT-30"/>
       <use xlink:href="#ArialMT-2e" x="55.615234"/>
       <use xlink:href="#ArialMT-32" x="83.398438"/>
      </g>
     </g>
    </g>
    <g id="xtick_7">
     <g id="line2d_9">
      <g>
       <use xlink:href="#mc0963ef294" x="276.526808" y="231.534233" style="stroke: #000000; stroke-width: 2"/>
      </g>
     </g>
     <g id="text_11">
      <!-- 0.4 -->
      <g transform="translate(264.517208 255.402933)scale(0.1728 -0.1728)">
       <use xlink:href="#ArialMT-30"/>
       <use xlink:href="#ArialMT-2e" x="55.615234"/>
       <use xlink:href="#ArialMT-34" x="83.398438"/>
      </g>
     </g>
    </g>
    <g id="xtick_8">
     <g id="line2d_10">
      <g>
       <use xlink:href="#mc0963ef294" x="385.929362" y="231.534233" style="stroke: #000000; stroke-width: 2"/>
      </g>
     </g>
     <g id="text_12">
      <!-- 0.6 -->
      <g transform="translate(373.919762 255.402933)scale(0.1728 -0.1728)">
       <use xlink:href="#ArialMT-30"/>
       <use xlink:href="#ArialMT-2e" x="55.615234"/>
       <use xlink:href="#ArialMT-36" x="83.398438"/>
      </g>
     </g>
    </g>
   </g>
   <g id="matplotlib.axis_4">
    <g id="ytick_3">
     <g id="line2d_11">
      <g>
       <use xlink:href="#mdea8e4c719" x="57.7217" y="231.534233" style="stroke: #000000; stroke-width: 2"/>
      </g>
     </g>
     <g id="text_13">
      <!-- 0 -->
      <g transform="translate(36.6124 237.718583)scale(0.1728 -0.1728)">
       <use xlink:href="#ArialMT-30"/>
      </g>
     </g>
    </g>
    <g id="ytick_4">
     <g id="line2d_12">
      <g>
       <use xlink:href="#mdea8e4c719" x="57.7217" y="167.753396" style="stroke: #000000; stroke-width: 2"/>
      </g>
     </g>
     <g id="text_14">
      <!-- 20 -->
      <g transform="translate(27.0031 173.937746)scale(0.1728 -0.1728)">
       <use xlink:href="#ArialMT-32"/>
       <use xlink:href="#ArialMT-30" x="55.615234"/>
      </g>
     </g>
    </g>
    <g id="text_15">
     <!-- Count -->
     <g transform="translate(19.5687 217.75475)rotate(-90)scale(0.1728 -0.1728)">
      <use xlink:href="#ArialMT-43"/>
      <use xlink:href="#ArialMT-6f" x="72.216797"/>
      <use xlink:href="#ArialMT-75" x="127.832031"/>
      <use xlink:href="#ArialMT-6e" x="183.447266"/>
      <use xlink:href="#ArialMT-74" x="239.0625"/>
     </g>
    </g>
   </g>
   <g id="patch_46">
    <path d="M 57.7217 231.534233 
L 57.7217 157.867367 
" style="fill: none; stroke: #000000; stroke-width: 1.5; stroke-linejoin: miter; stroke-linecap: square"/>
   </g>
   <g id="patch_47">
    <path d="M 57.7217 231.534233 
L 413.28 231.534233 
" style="fill: none; stroke: #000000; stroke-width: 1.5; stroke-linejoin: miter; stroke-linecap: square"/>
   </g>
   <g id="text_16">
    <!-- decorrelate Feedback -->
    <g transform="translate(151.93855 151.867367)scale(0.1728 -0.1728)">
     <defs>
      <path id="ArialMT-6c" d="M 409 0 
L 409 4581 
L 972 4581 
L 972 0 
L 409 0 
z
" transform="scale(0.015625)"/>
     </defs>
     <use xlink:href="#ArialMT-64"/>
     <use xlink:href="#ArialMT-65" x="55.615234"/>
     <use xlink:href="#ArialMT-63" x="111.230469"/>
     <use xlink:href="#ArialMT-6f" x="161.230469"/>
     <use xlink:href="#ArialMT-72" x="216.845703"/>
     <use xlink:href="#ArialMT-72" x="250.146484"/>
     <use xlink:href="#ArialMT-65" x="283.447266"/>
     <use xlink:href="#ArialMT-6c" x="339.0625"/>
     <use xlink:href="#ArialMT-61" x="361.279297"/>
     <use xlink:href="#ArialMT-74" x="416.894531"/>
     <use xlink:href="#ArialMT-65" x="444.677734"/>
     <use xlink:href="#ArialMT-20" x="500.292969"/>
     <use xlink:href="#ArialMT-46" x="528.076172"/>
     <use xlink:href="#ArialMT-65" x="589.160156"/>
     <use xlink:href="#ArialMT-65" x="644.775391"/>
     <use xlink:href="#ArialMT-64" x="700.390625"/>
     <use xlink:href="#ArialMT-62" x="756.005859"/>
     <use xlink:href="#ArialMT-61" x="811.621094"/>
     <use xlink:href="#ArialMT-63" x="867.236328"/>
     <use xlink:href="#ArialMT-6b" x="917.236328"/>
    </g>
   </g>
  </g>
  <g id="axes_3">
   <g id="patch_48">
    <path d="M 57.7217 363.8329 
L 413.28 363.8329 
L 413.28 290.166033 
L 57.7217 290.166033 
z
" style="fill: #ffffff"/>
   </g>
   <g id="patch_49">
    <path d="M 114.873014 363.8329 
L 121.571851 363.8329 
L 121.571851 357.986323 
L 114.873014 357.986323 
z
" clip-path="url(#p9545bfe1c1)" style="fill: #42a0c0; opacity: 0.7"/>
   </g>
   <g id="patch_50">
    <path d="M 121.571851 363.8329 
L 128.270687 363.8329 
L 128.270687 363.8329 
L 121.571851 363.8329 
z
" clip-path="url(#p9545bfe1c1)" style="fill: #42a0c0; opacity: 0.7"/>
   </g>
   <g id="patch_51">
    <path d="M 128.270687 363.8329 
L 134.969523 363.8329 
L 134.969523 357.986323 
L 128.270687 357.986323 
z
" clip-path="url(#p9545bfe1c1)" style="fill: #42a0c0; opacity: 0.7"/>
   </g>
   <g id="patch_52">
    <path d="M 134.969523 363.8329 
L 141.668359 363.8329 
L 141.668359 328.75344 
L 134.969523 328.75344 
z
" clip-path="url(#p9545bfe1c1)" style="fill: #42a0c0; opacity: 0.7"/>
   </g>
   <g id="patch_53">
    <path d="M 141.668359 363.8329 
L 148.367195 363.8329 
L 148.367195 317.060286 
L 141.668359 317.060286 
z
" clip-path="url(#p9545bfe1c1)" style="fill: #42a0c0; opacity: 0.7"/>
   </g>
   <g id="patch_54">
    <path d="M 148.367195 363.8329 
L 155.066032 363.8329 
L 155.066032 293.673979 
L 148.367195 293.673979 
z
" clip-path="url(#p9545bfe1c1)" style="fill: #42a0c0; opacity: 0.7"/>
   </g>
   <g id="patch_55">
    <path d="M 155.066032 363.8329 
L 161.764868 363.8329 
L 161.764868 317.060286 
L 155.066032 317.060286 
z
" clip-path="url(#p9545bfe1c1)" style="fill: #42a0c0; opacity: 0.7"/>
   </g>
   <g id="patch_56">
    <path d="M 161.764868 363.8329 
L 168.463704 363.8329 
L 168.463704 334.600016 
L 161.764868 334.600016 
z
" clip-path="url(#p9545bfe1c1)" style="fill: #42a0c0; opacity: 0.7"/>
   </g>
   <g id="patch_57">
    <path d="M 168.463704 363.8329 
L 175.16254 363.8329 
L 175.16254 317.060286 
L 168.463704 317.060286 
z
" clip-path="url(#p9545bfe1c1)" style="fill: #42a0c0; opacity: 0.7"/>
   </g>
   <g id="patch_58">
    <path d="M 175.16254 363.8329 
L 181.861376 363.8329 
L 181.861376 346.29317 
L 175.16254 346.29317 
z
" clip-path="url(#p9545bfe1c1)" style="fill: #42a0c0; opacity: 0.7"/>
   </g>
   <g id="patch_59">
    <path d="M 181.861376 363.8329 
L 188.560212 363.8329 
L 188.560212 363.8329 
L 181.861376 363.8329 
z
" clip-path="url(#p9545bfe1c1)" style="fill: #42a0c0; opacity: 0.7"/>
   </g>
   <g id="patch_60">
    <path d="M 188.560212 363.8329 
L 195.259049 363.8329 
L 195.259049 357.986323 
L 188.560212 357.986323 
z
" clip-path="url(#p9545bfe1c1)" style="fill: #42a0c0; opacity: 0.7"/>
   </g>
   <g id="patch_61">
    <path d="M 195.259049 363.8329 
L 201.957885 363.8329 
L 201.957885 346.29317 
L 195.259049 346.29317 
z
" clip-path="url(#p9545bfe1c1)" style="fill: #42a0c0; opacity: 0.7"/>
   </g>
   <g id="patch_62">
    <path d="M 201.957885 363.8329 
L 208.656721 363.8329 
L 208.656721 363.8329 
L 201.957885 363.8329 
z
" clip-path="url(#p9545bfe1c1)" style="fill: #42a0c0; opacity: 0.7"/>
   </g>
   <g id="patch_63">
    <path d="M 208.656721 363.8329 
L 215.355557 363.8329 
L 215.355557 352.139747 
L 208.656721 352.139747 
z
" clip-path="url(#p9545bfe1c1)" style="fill: #42a0c0; opacity: 0.7"/>
   </g>
   <g id="patch_64">
    <path d="M 215.355557 363.8329 
L 222.054393 363.8329 
L 222.054393 363.8329 
L 215.355557 363.8329 
z
" clip-path="url(#p9545bfe1c1)" style="fill: #42a0c0; opacity: 0.7"/>
   </g>
   <g id="patch_65">
    <path d="M 222.054393 363.8329 
L 228.753229 363.8329 
L 228.753229 363.8329 
L 222.054393 363.8329 
z
" clip-path="url(#p9545bfe1c1)" style="fill: #42a0c0; opacity: 0.7"/>
   </g>
   <g id="patch_66">
    <path d="M 228.753229 363.8329 
L 235.452066 363.8329 
L 235.452066 363.8329 
L 228.753229 363.8329 
z
" clip-path="url(#p9545bfe1c1)" style="fill: #42a0c0; opacity: 0.7"/>
   </g>
   <g id="patch_67">
    <path d="M 235.452066 363.8329 
L 242.150902 363.8329 
L 242.150902 363.8329 
L 235.452066 363.8329 
z
" clip-path="url(#p9545bfe1c1)" style="fill: #42a0c0; opacity: 0.7"/>
   </g>
   <g id="patch_68">
    <path d="M 242.150902 363.8329 
L 248.849738 363.8329 
L 248.849738 357.986323 
L 242.150902 357.986323 
z
" clip-path="url(#p9545bfe1c1)" style="fill: #42a0c0; opacity: 0.7"/>
   </g>
   <g id="matplotlib.axis_5">
    <g id="xtick_9">
     <g id="line2d_13">
      <g>
       <use xlink:href="#mc0963ef294" x="57.7217" y="363.8329" style="stroke: #000000; stroke-width: 2"/>
      </g>
     </g>
     <g id="text_17">
      <!-- 0.0 -->
      <g transform="translate(45.7121 387.7016)scale(0.1728 -0.1728)">
       <use xlink:href="#ArialMT-30"/>
       <use xlink:href="#ArialMT-2e" x="55.615234"/>
       <use xlink:href="#ArialMT-30" x="83.398438"/>
      </g>
     </g>
    </g>
    <g id="xtick_10">
     <g id="line2d_14">
      <g>
       <use xlink:href="#mc0963ef294" x="167.124254" y="363.8329" style="stroke: #000000; stroke-width: 2"/>
      </g>
     </g>
     <g id="text_18">
      <!-- 0.2 -->
      <g transform="translate(155.114654 387.7016)scale(0.1728 -0.1728)">
       <use xlink:href="#ArialMT-30"/>
       <use xlink:href="#ArialMT-2e" x="55.615234"/>
       <use xlink:href="#ArialMT-32" x="83.398438"/>
      </g>
     </g>
    </g>
    <g id="xtick_11">
     <g id="line2d_15">
      <g>
       <use xlink:href="#mc0963ef294" x="276.526808" y="363.8329" style="stroke: #000000; stroke-width: 2"/>
      </g>
     </g>
     <g id="text_19">
      <!-- 0.4 -->
      <g transform="translate(264.517208 387.7016)scale(0.1728 -0.1728)">
       <use xlink:href="#ArialMT-30"/>
       <use xlink:href="#ArialMT-2e" x="55.615234"/>
       <use xlink:href="#ArialMT-34" x="83.398438"/>
      </g>
     </g>
    </g>
    <g id="xtick_12">
     <g id="line2d_16">
      <g>
       <use xlink:href="#mc0963ef294" x="385.929362" y="363.8329" style="stroke: #000000; stroke-width: 2"/>
      </g>
     </g>
     <g id="text_20">
      <!-- 0.6 -->
      <g transform="translate(373.919762 387.7016)scale(0.1728 -0.1728)">
       <use xlink:href="#ArialMT-30"/>
       <use xlink:href="#ArialMT-2e" x="55.615234"/>
       <use xlink:href="#ArialMT-36" x="83.398438"/>
      </g>
     </g>
    </g>
    <g id="text_21">
     <!-- Gradient Cosine Similarity wrt LN$^+$ -->
     <g transform="translate(100.45765 409.4784)scale(0.1728 -0.1728)">
      <defs>
       <path id="ArialMT-47" d="M 2638 1797 
L 2638 2334 
L 4578 2338 
L 4578 638 
Q 4131 281 3656 101 
Q 3181 -78 2681 -78 
Q 2006 -78 1454 211 
Q 903 500 622 1047 
Q 341 1594 341 2269 
Q 341 2938 620 3517 
Q 900 4097 1425 4378 
Q 1950 4659 2634 4659 
Q 3131 4659 3532 4498 
Q 3934 4338 4162 4050 
Q 4391 3763 4509 3300 
L 3963 3150 
Q 3859 3500 3706 3700 
Q 3553 3900 3268 4020 
Q 2984 4141 2638 4141 
Q 2222 4141 1919 4014 
Q 1616 3888 1430 3681 
Q 1244 3475 1141 3228 
Q 966 2803 966 2306 
Q 966 1694 1177 1281 
Q 1388 869 1791 669 
Q 2194 469 2647 469 
Q 3041 469 3416 620 
Q 3791 772 3984 944 
L 3984 1797 
L 2638 1797 
z
" transform="scale(0.015625)"/>
       <path id="ArialMT-69" d="M 425 3934 
L 425 4581 
L 988 4581 
L 988 3934 
L 425 3934 
z
M 425 0 
L 425 3319 
L 988 3319 
L 988 0 
L 425 0 
z
" transform="scale(0.015625)"/>
       <path id="ArialMT-73" d="M 197 991 
L 753 1078 
Q 800 744 1014 566 
Q 1228 388 1613 388 
Q 2000 388 2187 545 
Q 2375 703 2375 916 
Q 2375 1106 2209 1216 
Q 2094 1291 1634 1406 
Q 1016 1563 777 1677 
Q 538 1791 414 1992 
Q 291 2194 291 2438 
Q 291 2659 392 2848 
Q 494 3038 669 3163 
Q 800 3259 1026 3326 
Q 1253 3394 1513 3394 
Q 1903 3394 2198 3281 
Q 2494 3169 2634 2976 
Q 2775 2784 2828 2463 
L 2278 2388 
Q 2241 2644 2061 2787 
Q 1881 2931 1553 2931 
Q 1166 2931 1000 2803 
Q 834 2675 834 2503 
Q 834 2394 903 2306 
Q 972 2216 1119 2156 
Q 1203 2125 1616 2013 
Q 2213 1853 2448 1751 
Q 2684 1650 2818 1456 
Q 2953 1263 2953 975 
Q 2953 694 2789 445 
Q 2625 197 2315 61 
Q 2006 -75 1616 -75 
Q 969 -75 630 194 
Q 291 463 197 991 
z
" transform="scale(0.015625)"/>
       <path id="ArialMT-53" d="M 288 1472 
L 859 1522 
Q 900 1178 1048 958 
Q 1197 738 1509 602 
Q 1822 466 2213 466 
Q 2559 466 2825 569 
Q 3091 672 3220 851 
Q 3350 1031 3350 1244 
Q 3350 1459 3225 1620 
Q 3100 1781 2813 1891 
Q 2628 1963 1997 2114 
Q 1366 2266 1113 2400 
Q 784 2572 623 2826 
Q 463 3081 463 3397 
Q 463 3744 659 4045 
Q 856 4347 1234 4503 
Q 1613 4659 2075 4659 
Q 2584 4659 2973 4495 
Q 3363 4331 3572 4012 
Q 3781 3694 3797 3291 
L 3216 3247 
Q 3169 3681 2898 3903 
Q 2628 4125 2100 4125 
Q 1550 4125 1298 3923 
Q 1047 3722 1047 3438 
Q 1047 3191 1225 3031 
Q 1400 2872 2139 2705 
Q 2878 2538 3153 2413 
Q 3553 2228 3743 1945 
Q 3934 1663 3934 1294 
Q 3934 928 3725 604 
Q 3516 281 3123 101 
Q 2731 -78 2241 -78 
Q 1619 -78 1198 103 
Q 778 284 539 648 
Q 300 1013 288 1472 
z
" transform="scale(0.015625)"/>
       <path id="ArialMT-6d" d="M 422 0 
L 422 3319 
L 925 3319 
L 925 2853 
Q 1081 3097 1340 3245 
Q 1600 3394 1931 3394 
Q 2300 3394 2536 3241 
Q 2772 3088 2869 2813 
Q 3263 3394 3894 3394 
Q 4388 3394 4653 3120 
Q 4919 2847 4919 2278 
L 4919 0 
L 4359 0 
L 4359 2091 
Q 4359 2428 4304 2576 
Q 4250 2725 4106 2815 
Q 3963 2906 3769 2906 
Q 3419 2906 3187 2673 
Q 2956 2441 2956 1928 
L 2956 0 
L 2394 0 
L 2394 2156 
Q 2394 2531 2256 2718 
Q 2119 2906 1806 2906 
Q 1569 2906 1367 2781 
Q 1166 2656 1075 2415 
Q 984 2175 984 1722 
L 984 0 
L 422 0 
z
" transform="scale(0.015625)"/>
       <path id="ArialMT-79" d="M 397 -1278 
L 334 -750 
Q 519 -800 656 -800 
Q 844 -800 956 -737 
Q 1069 -675 1141 -563 
Q 1194 -478 1313 -144 
Q 1328 -97 1363 -6 
L 103 3319 
L 709 3319 
L 1400 1397 
Q 1534 1031 1641 628 
Q 1738 1016 1872 1384 
L 2581 3319 
L 3144 3319 
L 1881 -56 
Q 1678 -603 1566 -809 
Q 1416 -1088 1222 -1217 
Q 1028 -1347 759 -1347 
Q 597 -1347 397 -1278 
z
" transform="scale(0.015625)"/>
       <path id="ArialMT-77" d="M 1034 0 
L 19 3319 
L 600 3319 
L 1128 1403 
L 1325 691 
Q 1338 744 1497 1375 
L 2025 3319 
L 2603 3319 
L 3100 1394 
L 3266 759 
L 3456 1400 
L 4025 3319 
L 4572 3319 
L 3534 0 
L 2950 0 
L 2422 1988 
L 2294 2553 
L 1622 0 
L 1034 0 
z
" transform="scale(0.015625)"/>
       <path id="ArialMT-4c" d="M 469 0 
L 469 4581 
L 1075 4581 
L 1075 541 
L 3331 541 
L 3331 0 
L 469 0 
z
" transform="scale(0.015625)"/>
       <path id="ArialMT-4e" d="M 488 0 
L 488 4581 
L 1109 4581 
L 3516 984 
L 3516 4581 
L 4097 4581 
L 4097 0 
L 3475 0 
L 1069 3600 
L 1069 0 
L 488 0 
z
" transform="scale(0.015625)"/>
       <path id="DejaVuSans-2b" d="M 2944 4013 
L 2944 2272 
L 4684 2272 
L 4684 1741 
L 2944 1741 
L 2944 0 
L 2419 0 
L 2419 1741 
L 678 1741 
L 678 2272 
L 2419 2272 
L 2419 4013 
L 2944 4013 
z
" transform="scale(0.015625)"/>
      </defs>
      <use xlink:href="#ArialMT-47" transform="translate(0 0.826562)"/>
      <use xlink:href="#ArialMT-72" transform="translate(77.783203 0.826562)"/>
      <use xlink:href="#ArialMT-61" transform="translate(111.083984 0.826562)"/>
      <use xlink:href="#ArialMT-64" transform="translate(166.699219 0.826562)"/>
      <use xlink:href="#ArialMT-69" transform="translate(222.314453 0.826562)"/>
      <use xlink:href="#ArialMT-65" transform="translate(244.53125 0.826562)"/>
      <use xlink:href="#ArialMT-6e" transform="translate(300.146484 0.826562)"/>
      <use xlink:href="#ArialMT-74" transform="translate(355.761719 0.826562)"/>
      <use xlink:href="#ArialMT-20" transform="translate(383.544922 0.826562)"/>
      <use xlink:href="#ArialMT-43" transform="translate(411.328125 0.826562)"/>
      <use xlink:href="#ArialMT-6f" transform="translate(483.544922 0.826562)"/>
      <use xlink:href="#ArialMT-73" transform="translate(539.160156 0.826562)"/>
      <use xlink:href="#ArialMT-69" transform="translate(589.160156 0.826562)"/>
      <use xlink:href="#ArialMT-6e" transform="translate(611.376953 0.826562)"/>
      <use xlink:href="#ArialMT-65" transform="translate(666.992188 0.826562)"/>
      <use xlink:href="#ArialMT-20" transform="translate(722.607422 0.826562)"/>
      <use xlink:href="#ArialMT-53" transform="translate(750.390625 0.826562)"/>
      <use xlink:href="#ArialMT-69" transform="translate(817.089844 0.826562)"/>
      <use xlink:href="#ArialMT-6d" transform="translate(839.306641 0.826562)"/>
      <use xlink:href="#ArialMT-69" transform="translate(922.607422 0.826562)"/>
      <use xlink:href="#ArialMT-6c" transform="translate(944.824219 0.826562)"/>
      <use xlink:href="#ArialMT-61" transform="translate(967.041016 0.826562)"/>
      <use xlink:href="#ArialMT-72" transform="translate(1022.65625 0.826562)"/>
      <use xlink:href="#ArialMT-69" transform="translate(1055.957031 0.826562)"/>
      <use xlink:href="#ArialMT-74" transform="translate(1078.173828 0.826562)"/>
      <use xlink:href="#ArialMT-79" transform="translate(1105.957031 0.826562)"/>
      <use xlink:href="#ArialMT-20" transform="translate(1155.957031 0.826562)"/>
      <use xlink:href="#ArialMT-77" transform="translate(1183.740234 0.826562)"/>
      <use xlink:href="#ArialMT-72" transform="translate(1255.957031 0.826562)"/>
      <use xlink:href="#ArialMT-74" transform="translate(1289.257812 0.826562)"/>
      <use xlink:href="#ArialMT-20" transform="translate(1317.041016 0.826562)"/>
      <use xlink:href="#ArialMT-4c" transform="translate(1344.824219 0.826562)"/>
      <use xlink:href="#ArialMT-4e" transform="translate(1400.439453 0.826562)"/>
      <use xlink:href="#DejaVuSans-2b" transform="translate(1487.250977 39.107812)scale(0.7)"/>
     </g>
    </g>
   </g>
   <g id="matplotlib.axis_6">
    <g id="ytick_5">
     <g id="line2d_17">
      <g>
       <use xlink:href="#mdea8e4c719" x="57.7217" y="363.8329" style="stroke: #000000; stroke-width: 2"/>
      </g>
     </g>
     <g id="text_22">
      <!-- 0 -->
      <g transform="translate(36.6124 370.01725)scale(0.1728 -0.1728)">
       <use xlink:href="#ArialMT-30"/>
      </g>
     </g>
    </g>
    <g id="ytick_6">
     <g id="line2d_18">
      <g>
       <use xlink:href="#mdea8e4c719" x="57.7217" y="305.367133" style="stroke: #000000; stroke-width: 2"/>
      </g>
     </g>
     <g id="text_23">
      <!-- 10 -->
      <g transform="translate(27.0031 311.551483)scale(0.1728 -0.1728)">
       <use xlink:href="#ArialMT-31"/>
       <use xlink:href="#ArialMT-30" x="55.615234"/>
      </g>
     </g>
    </g>
    <g id="text_24">
     <!-- Count -->
     <g transform="translate(19.5687 350.053417)rotate(-90)scale(0.1728 -0.1728)">
      <use xlink:href="#ArialMT-43"/>
      <use xlink:href="#ArialMT-6f" x="72.216797"/>
      <use xlink:href="#ArialMT-75" x="127.832031"/>
      <use xlink:href="#ArialMT-6e" x="183.447266"/>
      <use xlink:href="#ArialMT-74" x="239.0625"/>
     </g>
    </g>
   </g>
   <g id="patch_69">
    <path d="M 57.7217 363.8329 
L 57.7217 290.166033 
" style="fill: none; stroke: #000000; stroke-width: 1.5; stroke-linejoin: miter; stroke-linecap: square"/>
   </g>
   <g id="patch_70">
    <path d="M 57.7217 363.8329 
L 413.28 363.8329 
" style="fill: none; stroke: #000000; stroke-width: 1.5; stroke-linejoin: miter; stroke-linecap: square"/>
   </g>
   <g id="text_25">
    <!-- scale Feedback -->
    <g transform="translate(174.99115 284.166033)scale(0.1728 -0.1728)">
     <use xlink:href="#ArialMT-73"/>
     <use xlink:href="#ArialMT-63" x="50"/>
     <use xlink:href="#ArialMT-61" x="100"/>
     <use xlink:href="#ArialMT-6c" x="155.615234"/>
     <use xlink:href="#ArialMT-65" x="177.832031"/>
     <use xlink:href="#ArialMT-20" x="233.447266"/>
     <use xlink:href="#ArialMT-46" x="261.230469"/>
     <use xlink:href="#ArialMT-65" x="322.314453"/>
     <use xlink:href="#ArialMT-65" x="377.929688"/>
     <use xlink:href="#ArialMT-64" x="433.544922"/>
     <use xlink:href="#ArialMT-62" x="489.160156"/>
     <use xlink:href="#ArialMT-61" x="544.775391"/>
     <use xlink:href="#ArialMT-63" x="600.390625"/>
     <use xlink:href="#ArialMT-6b" x="650.390625"/>
    </g>
   </g>
  </g>
 </g>
 <defs>
  <clipPath id="pf16e38a7a1">
   <rect x="57.7217" y="25.5687" width="355.5583" height="73.666867"/>
  </clipPath>
  <clipPath id="p62ec25391e">
   <rect x="57.7217" y="157.867367" width="355.5583" height="73.666867"/>
  </clipPath>
  <clipPath id="p9545bfe1c1">
   <rect x="57.7217" y="290.166033" width="355.5583" height="73.666867"/>
  </clipPath>
 </defs>
</svg>
