<?xml version="1.0" encoding="utf-8" standalone="no"?>
<!DOCTYPE svg PUBLIC "-//W3C//DTD SVG 1.1//EN"
  "http://www.w3.org/Graphics/SVG/1.1/DTD/svg11.dtd">
<svg xmlns:xlink="http://www.w3.org/1999/xlink" width="492.48pt" height="384.266514pt" viewBox="0 0 492.48 384.266514" xmlns="http://www.w3.org/2000/svg" version="1.1">
 <metadata>
  <rdf:RDF xmlns:dc="http://purl.org/dc/elements/1.1/" xmlns:cc="http://creativecommons.org/ns#" xmlns:rdf="http://www.w3.org/1999/02/22-rdf-syntax-ns#">
   <cc:Work>
    <dc:type rdf:resource="http://purl.org/dc/dcmitype/StillImage"/>
    <dc:date>2025-11-25T15:51:51.693936</dc:date>
    <dc:format>image/svg+xml</dc:format>
    <dc:creator>
     <cc:Agent>
      <dc:title>Matplotlib v3.5.3, https://matplotlib.org/</dc:title>
     </cc:Agent>
    </dc:creator>
   </cc:Work>
  </rdf:RDF>
 </metadata>
 <defs>
  <style type="text/css">*{stroke-linejoin: round; stroke-linecap: butt}</style>
 </defs>
 <g id="figure_1">
  <g id="patch_1">
   <path d="M 0 384.266514 
L 492.48 384.266514 
L 492.48 0 
L 0 0 
z
" style="fill: #ffffff"/>
  </g>
  <g id="axes_1">
   <g id="patch_2">
    <path d="M 48.1124 136.099414 
L 473.2704 136.099414 
L 473.2704 7.248597 
L 48.1124 7.248597 
z
" style="fill: #ffffff"/>
   </g>
   <g id="patch_3">
    <path d="M 349.606303 136.099414 
L 361.010082 136.099414 
L 361.010082 74.741882 
L 349.606303 74.741882 
z
" clip-path="url(#p8e08b3c7a8)" style="fill: #595c79; opacity: 0.6"/>
   </g>
   <g id="patch_4">
    <path d="M 361.010082 136.099414 
L 372.413861 136.099414 
L 372.413861 105.420648 
L 361.010082 105.420648 
z
" clip-path="url(#p8e08b3c7a8)" style="fill: #595c79; opacity: 0.6"/>
   </g>
   <g id="patch_5">
    <path d="M 372.413861 136.099414 
L 383.81764 136.099414 
L 383.81764 74.741882 
L 372.413861 74.741882 
z
" clip-path="url(#p8e08b3c7a8)" style="fill: #595c79; opacity: 0.6"/>
   </g>
   <g id="patch_6">
    <path d="M 383.81764 136.099414 
L 395.221419 136.099414 
L 395.221419 136.099414 
L 383.81764 136.099414 
z
" clip-path="url(#p8e08b3c7a8)" style="fill: #595c79; opacity: 0.6"/>
   </g>
   <g id="patch_7">
    <path d="M 395.221419 136.099414 
L 406.625198 136.099414 
L 406.625198 105.420648 
L 395.221419 105.420648 
z
" clip-path="url(#p8e08b3c7a8)" style="fill: #595c79; opacity: 0.6"/>
   </g>
   <g id="patch_8">
    <path d="M 406.625198 136.099414 
L 418.028977 136.099414 
L 418.028977 44.063116 
L 406.625198 44.063116 
z
" clip-path="url(#p8e08b3c7a8)" style="fill: #595c79; opacity: 0.6"/>
   </g>
   <g id="patch_9">
    <path d="M 418.028977 136.099414 
L 429.432756 136.099414 
L 429.432756 74.741882 
L 418.028977 74.741882 
z
" clip-path="url(#p8e08b3c7a8)" style="fill: #595c79; opacity: 0.6"/>
   </g>
   <g id="patch_10">
    <path d="M 429.432756 136.099414 
L 440.836535 136.099414 
L 440.836535 13.38435 
L 429.432756 13.38435 
z
" clip-path="url(#p8e08b3c7a8)" style="fill: #595c79; opacity: 0.6"/>
   </g>
   <g id="patch_11">
    <path d="M 440.836535 136.099414 
L 452.240313 136.099414 
L 452.240313 13.38435 
L 440.836535 13.38435 
z
" clip-path="url(#p8e08b3c7a8)" style="fill: #595c79; opacity: 0.6"/>
   </g>
   <g id="patch_12">
    <path d="M 452.240313 136.099414 
L 463.644092 136.099414 
L 463.644092 74.741882 
L 452.240313 74.741882 
z
" clip-path="url(#p8e08b3c7a8)" style="fill: #595c79; opacity: 0.6"/>
   </g>
   <g id="matplotlib.axis_1">
    <g id="xtick_1">
     <g id="line2d_1">
      <defs>
       <path id="m8be16adc1e" d="M 0 0 
L 0 8 
" style="stroke: #000000; stroke-width: 2"/>
      </defs>
      <g>
       <use xlink:href="#m8be16adc1e" x="48.1124" y="136.099414" style="stroke: #000000; stroke-width: 2"/>
      </g>
     </g>
     <g id="text_1">
      <!-- 0.0 -->
      <g transform="translate(36.1028 159.968114)scale(0.1728 -0.1728)">
       <defs>
        <path id="ArialMT-30" d="M 266 2259 
Q 266 3072 433 3567 
Q 600 4063 929 4331 
Q 1259 4600 1759 4600 
Q 2128 4600 2406 4451 
Q 2684 4303 2865 4023 
Q 3047 3744 3150 3342 
Q 3253 2941 3253 2259 
Q 3253 1453 3087 958 
Q 2922 463 2592 192 
Q 2263 -78 1759 -78 
Q 1097 -78 719 397 
Q 266 969 266 2259 
z
M 844 2259 
Q 844 1131 1108 757 
Q 1372 384 1759 384 
Q 2147 384 2411 759 
Q 2675 1134 2675 2259 
Q 2675 3391 2411 3762 
Q 2147 4134 1753 4134 
Q 1366 4134 1134 3806 
Q 844 3388 844 2259 
z
" transform="scale(0.015625)"/>
        <path id="ArialMT-2e" d="M 581 0 
L 581 641 
L 1222 641 
L 1222 0 
L 581 0 
z
" transform="scale(0.015625)"/>
       </defs>
       <use xlink:href="#ArialMT-30"/>
       <use xlink:href="#ArialMT-2e" x="55.615234"/>
       <use xlink:href="#ArialMT-30" x="83.398438"/>
      </g>
     </g>
    </g>
    <g id="xtick_2">
     <g id="line2d_2">
      <g>
       <use xlink:href="#m8be16adc1e" x="133.144" y="136.099414" style="stroke: #000000; stroke-width: 2"/>
      </g>
     </g>
     <g id="text_2">
      <!-- 0.2 -->
      <g transform="translate(121.1344 159.968114)scale(0.1728 -0.1728)">
       <defs>
        <path id="ArialMT-32" d="M 3222 541 
L 3222 0 
L 194 0 
Q 188 203 259 391 
Q 375 700 629 1000 
Q 884 1300 1366 1694 
Q 2113 2306 2375 2664 
Q 2638 3022 2638 3341 
Q 2638 3675 2398 3904 
Q 2159 4134 1775 4134 
Q 1369 4134 1125 3890 
Q 881 3647 878 3216 
L 300 3275 
Q 359 3922 746 4261 
Q 1134 4600 1788 4600 
Q 2447 4600 2831 4234 
Q 3216 3869 3216 3328 
Q 3216 3053 3103 2787 
Q 2991 2522 2730 2228 
Q 2469 1934 1863 1422 
Q 1356 997 1212 845 
Q 1069 694 975 541 
L 3222 541 
z
" transform="scale(0.015625)"/>
       </defs>
       <use xlink:href="#ArialMT-30"/>
       <use xlink:href="#ArialMT-2e" x="55.615234"/>
       <use xlink:href="#ArialMT-32" x="83.398438"/>
      </g>
     </g>
    </g>
    <g id="xtick_3">
     <g id="line2d_3">
      <g>
       <use xlink:href="#m8be16adc1e" x="218.1756" y="136.099414" style="stroke: #000000; stroke-width: 2"/>
      </g>
     </g>
     <g id="text_3">
      <!-- 0.4 -->
      <g transform="translate(206.166 159.968114)scale(0.1728 -0.1728)">
       <defs>
        <path id="ArialMT-34" d="M 2069 0 
L 2069 1097 
L 81 1097 
L 81 1613 
L 2172 4581 
L 2631 4581 
L 2631 1613 
L 3250 1613 
L 3250 1097 
L 2631 1097 
L 2631 0 
L 2069 0 
z
M 2069 1613 
L 2069 3678 
L 634 1613 
L 2069 1613 
z
" transform="scale(0.015625)"/>
       </defs>
       <use xlink:href="#ArialMT-30"/>
       <use xlink:href="#ArialMT-2e" x="55.615234"/>
       <use xlink:href="#ArialMT-34" x="83.398438"/>
      </g>
     </g>
    </g>
    <g id="xtick_4">
     <g id="line2d_4">
      <g>
       <use xlink:href="#m8be16adc1e" x="303.2072" y="136.099414" style="stroke: #000000; stroke-width: 2"/>
      </g>
     </g>
     <g id="text_4">
      <!-- 0.6 -->
      <g transform="translate(291.1976 159.968114)scale(0.1728 -0.1728)">
       <defs>
        <path id="ArialMT-36" d="M 3184 3459 
L 2625 3416 
Q 2550 3747 2413 3897 
Q 2184 4138 1850 4138 
Q 1581 4138 1378 3988 
Q 1113 3794 959 3422 
Q 806 3050 800 2363 
Q 1003 2672 1297 2822 
Q 1591 2972 1913 2972 
Q 2475 2972 2870 2558 
Q 3266 2144 3266 1488 
Q 3266 1056 3080 686 
Q 2894 316 2569 119 
Q 2244 -78 1831 -78 
Q 1128 -78 684 439 
Q 241 956 241 2144 
Q 241 3472 731 4075 
Q 1159 4600 1884 4600 
Q 2425 4600 2770 4297 
Q 3116 3994 3184 3459 
z
M 888 1484 
Q 888 1194 1011 928 
Q 1134 663 1356 523 
Q 1578 384 1822 384 
Q 2178 384 2434 671 
Q 2691 959 2691 1453 
Q 2691 1928 2437 2201 
Q 2184 2475 1800 2475 
Q 1419 2475 1153 2201 
Q 888 1928 888 1484 
z
" transform="scale(0.015625)"/>
       </defs>
       <use xlink:href="#ArialMT-30"/>
       <use xlink:href="#ArialMT-2e" x="55.615234"/>
       <use xlink:href="#ArialMT-36" x="83.398438"/>
      </g>
     </g>
    </g>
    <g id="xtick_5">
     <g id="line2d_5">
      <g>
       <use xlink:href="#m8be16adc1e" x="388.2388" y="136.099414" style="stroke: #000000; stroke-width: 2"/>
      </g>
     </g>
     <g id="text_5">
      <!-- 0.8 -->
      <g transform="translate(376.2292 159.968114)scale(0.1728 -0.1728)">
       <defs>
        <path id="ArialMT-38" d="M 1131 2484 
Q 781 2613 612 2850 
Q 444 3088 444 3419 
Q 444 3919 803 4259 
Q 1163 4600 1759 4600 
Q 2359 4600 2725 4251 
Q 3091 3903 3091 3403 
Q 3091 3084 2923 2848 
Q 2756 2613 2416 2484 
Q 2838 2347 3058 2040 
Q 3278 1734 3278 1309 
Q 3278 722 2862 322 
Q 2447 -78 1769 -78 
Q 1091 -78 675 323 
Q 259 725 259 1325 
Q 259 1772 486 2073 
Q 713 2375 1131 2484 
z
M 1019 3438 
Q 1019 3113 1228 2906 
Q 1438 2700 1772 2700 
Q 2097 2700 2305 2904 
Q 2513 3109 2513 3406 
Q 2513 3716 2298 3927 
Q 2084 4138 1766 4138 
Q 1444 4138 1231 3931 
Q 1019 3725 1019 3438 
z
M 838 1322 
Q 838 1081 952 856 
Q 1066 631 1291 507 
Q 1516 384 1775 384 
Q 2178 384 2440 643 
Q 2703 903 2703 1303 
Q 2703 1709 2433 1975 
Q 2163 2241 1756 2241 
Q 1359 2241 1098 1978 
Q 838 1716 838 1322 
z
" transform="scale(0.015625)"/>
       </defs>
       <use xlink:href="#ArialMT-30"/>
       <use xlink:href="#ArialMT-2e" x="55.615234"/>
       <use xlink:href="#ArialMT-38" x="83.398438"/>
      </g>
     </g>
    </g>
    <g id="xtick_6">
     <g id="line2d_6">
      <g>
       <use xlink:href="#m8be16adc1e" x="473.2704" y="136.099414" style="stroke: #000000; stroke-width: 2"/>
      </g>
     </g>
     <g id="text_6">
      <!-- 1.0 -->
      <g transform="translate(461.2608 159.968114)scale(0.1728 -0.1728)">
       <defs>
        <path id="ArialMT-31" d="M 2384 0 
L 1822 0 
L 1822 3584 
Q 1619 3391 1289 3197 
Q 959 3003 697 2906 
L 697 3450 
Q 1169 3672 1522 3987 
Q 1875 4303 2022 4600 
L 2384 4600 
L 2384 0 
z
" transform="scale(0.015625)"/>
       </defs>
       <use xlink:href="#ArialMT-31"/>
       <use xlink:href="#ArialMT-2e" x="55.615234"/>
       <use xlink:href="#ArialMT-30" x="83.398438"/>
      </g>
     </g>
    </g>
    <g id="text_7">
     <!-- Output Cosine Similarity wrt LN$^+$ -->
     <g transform="translate(132.9058 181.744914)scale(0.1728 -0.1728)">
      <defs>
       <path id="ArialMT-4f" d="M 309 2231 
Q 309 3372 921 4017 
Q 1534 4663 2503 4663 
Q 3138 4663 3647 4359 
Q 4156 4056 4423 3514 
Q 4691 2972 4691 2284 
Q 4691 1588 4409 1038 
Q 4128 488 3612 205 
Q 3097 -78 2500 -78 
Q 1853 -78 1343 234 
Q 834 547 571 1087 
Q 309 1628 309 2231 
z
M 934 2222 
Q 934 1394 1379 917 
Q 1825 441 2497 441 
Q 3181 441 3623 922 
Q 4066 1403 4066 2288 
Q 4066 2847 3877 3264 
Q 3688 3681 3323 3911 
Q 2959 4141 2506 4141 
Q 1863 4141 1398 3698 
Q 934 3256 934 2222 
z
" transform="scale(0.015625)"/>
       <path id="ArialMT-75" d="M 2597 0 
L 2597 488 
Q 2209 -75 1544 -75 
Q 1250 -75 995 37 
Q 741 150 617 320 
Q 494 491 444 738 
Q 409 903 409 1263 
L 409 3319 
L 972 3319 
L 972 1478 
Q 972 1038 1006 884 
Q 1059 663 1231 536 
Q 1403 409 1656 409 
Q 1909 409 2131 539 
Q 2353 669 2445 892 
Q 2538 1116 2538 1541 
L 2538 3319 
L 3100 3319 
L 3100 0 
L 2597 0 
z
" transform="scale(0.015625)"/>
       <path id="ArialMT-74" d="M 1650 503 
L 1731 6 
Q 1494 -44 1306 -44 
Q 1000 -44 831 53 
Q 663 150 594 308 
Q 525 466 525 972 
L 525 2881 
L 113 2881 
L 113 3319 
L 525 3319 
L 525 4141 
L 1084 4478 
L 1084 3319 
L 1650 3319 
L 1650 2881 
L 1084 2881 
L 1084 941 
Q 1084 700 1114 631 
Q 1144 563 1211 522 
Q 1278 481 1403 481 
Q 1497 481 1650 503 
z
" transform="scale(0.015625)"/>
       <path id="ArialMT-70" d="M 422 -1272 
L 422 3319 
L 934 3319 
L 934 2888 
Q 1116 3141 1344 3267 
Q 1572 3394 1897 3394 
Q 2322 3394 2647 3175 
Q 2972 2956 3137 2557 
Q 3303 2159 3303 1684 
Q 3303 1175 3120 767 
Q 2938 359 2589 142 
Q 2241 -75 1856 -75 
Q 1575 -75 1351 44 
Q 1128 163 984 344 
L 984 -1272 
L 422 -1272 
z
M 931 1641 
Q 931 1000 1190 694 
Q 1450 388 1819 388 
Q 2194 388 2461 705 
Q 2728 1022 2728 1688 
Q 2728 2322 2467 2637 
Q 2206 2953 1844 2953 
Q 1484 2953 1207 2617 
Q 931 2281 931 1641 
z
" transform="scale(0.015625)"/>
       <path id="ArialMT-20" transform="scale(0.015625)"/>
       <path id="ArialMT-43" d="M 3763 1606 
L 4369 1453 
Q 4178 706 3683 314 
Q 3188 -78 2472 -78 
Q 1731 -78 1267 223 
Q 803 525 561 1097 
Q 319 1669 319 2325 
Q 319 3041 592 3573 
Q 866 4106 1370 4382 
Q 1875 4659 2481 4659 
Q 3169 4659 3637 4309 
Q 4106 3959 4291 3325 
L 3694 3184 
Q 3534 3684 3231 3912 
Q 2928 4141 2469 4141 
Q 1941 4141 1586 3887 
Q 1231 3634 1087 3207 
Q 944 2781 944 2328 
Q 944 1744 1114 1308 
Q 1284 872 1643 656 
Q 2003 441 2422 441 
Q 2931 441 3284 734 
Q 3638 1028 3763 1606 
z
" transform="scale(0.015625)"/>
       <path id="ArialMT-6f" d="M 213 1659 
Q 213 2581 725 3025 
Q 1153 3394 1769 3394 
Q 2453 3394 2887 2945 
Q 3322 2497 3322 1706 
Q 3322 1066 3130 698 
Q 2938 331 2570 128 
Q 2203 -75 1769 -75 
Q 1072 -75 642 372 
Q 213 819 213 1659 
z
M 791 1659 
Q 791 1022 1069 705 
Q 1347 388 1769 388 
Q 2188 388 2466 706 
Q 2744 1025 2744 1678 
Q 2744 2294 2464 2611 
Q 2184 2928 1769 2928 
Q 1347 2928 1069 2612 
Q 791 2297 791 1659 
z
" transform="scale(0.015625)"/>
       <path id="ArialMT-73" d="M 197 991 
L 753 1078 
Q 800 744 1014 566 
Q 1228 388 1613 388 
Q 2000 388 2187 545 
Q 2375 703 2375 916 
Q 2375 1106 2209 1216 
Q 2094 1291 1634 1406 
Q 1016 1563 777 1677 
Q 538 1791 414 1992 
Q 291 2194 291 2438 
Q 291 2659 392 2848 
Q 494 3038 669 3163 
Q 800 3259 1026 3326 
Q 1253 3394 1513 3394 
Q 1903 3394 2198 3281 
Q 2494 3169 2634 2976 
Q 2775 2784 2828 2463 
L 2278 2388 
Q 2241 2644 2061 2787 
Q 1881 2931 1553 2931 
Q 1166 2931 1000 2803 
Q 834 2675 834 2503 
Q 834 2394 903 2306 
Q 972 2216 1119 2156 
Q 1203 2125 1616 2013 
Q 2213 1853 2448 1751 
Q 2684 1650 2818 1456 
Q 2953 1263 2953 975 
Q 2953 694 2789 445 
Q 2625 197 2315 61 
Q 2006 -75 1616 -75 
Q 969 -75 630 194 
Q 291 463 197 991 
z
" transform="scale(0.015625)"/>
       <path id="ArialMT-69" d="M 425 3934 
L 425 4581 
L 988 4581 
L 988 3934 
L 425 3934 
z
M 425 0 
L 425 3319 
L 988 3319 
L 988 0 
L 425 0 
z
" transform="scale(0.015625)"/>
       <path id="ArialMT-6e" d="M 422 0 
L 422 3319 
L 928 3319 
L 928 2847 
Q 1294 3394 1984 3394 
Q 2284 3394 2536 3286 
Q 2788 3178 2913 3003 
Q 3038 2828 3088 2588 
Q 3119 2431 3119 2041 
L 3119 0 
L 2556 0 
L 2556 2019 
Q 2556 2363 2490 2533 
Q 2425 2703 2258 2804 
Q 2091 2906 1866 2906 
Q 1506 2906 1245 2678 
Q 984 2450 984 1813 
L 984 0 
L 422 0 
z
" transform="scale(0.015625)"/>
       <path id="ArialMT-65" d="M 2694 1069 
L 3275 997 
Q 3138 488 2766 206 
Q 2394 -75 1816 -75 
Q 1088 -75 661 373 
Q 234 822 234 1631 
Q 234 2469 665 2931 
Q 1097 3394 1784 3394 
Q 2450 3394 2872 2941 
Q 3294 2488 3294 1666 
Q 3294 1616 3291 1516 
L 816 1516 
Q 847 969 1125 678 
Q 1403 388 1819 388 
Q 2128 388 2347 550 
Q 2566 713 2694 1069 
z
M 847 1978 
L 2700 1978 
Q 2663 2397 2488 2606 
Q 2219 2931 1791 2931 
Q 1403 2931 1139 2672 
Q 875 2413 847 1978 
z
" transform="scale(0.015625)"/>
       <path id="ArialMT-53" d="M 288 1472 
L 859 1522 
Q 900 1178 1048 958 
Q 1197 738 1509 602 
Q 1822 466 2213 466 
Q 2559 466 2825 569 
Q 3091 672 3220 851 
Q 3350 1031 3350 1244 
Q 3350 1459 3225 1620 
Q 3100 1781 2813 1891 
Q 2628 1963 1997 2114 
Q 1366 2266 1113 2400 
Q 784 2572 623 2826 
Q 463 3081 463 3397 
Q 463 3744 659 4045 
Q 856 4347 1234 4503 
Q 1613 4659 2075 4659 
Q 2584 4659 2973 4495 
Q 3363 4331 3572 4012 
Q 3781 3694 3797 3291 
L 3216 3247 
Q 3169 3681 2898 3903 
Q 2628 4125 2100 4125 
Q 1550 4125 1298 3923 
Q 1047 3722 1047 3438 
Q 1047 3191 1225 3031 
Q 1400 2872 2139 2705 
Q 2878 2538 3153 2413 
Q 3553 2228 3743 1945 
Q 3934 1663 3934 1294 
Q 3934 928 3725 604 
Q 3516 281 3123 101 
Q 2731 -78 2241 -78 
Q 1619 -78 1198 103 
Q 778 284 539 648 
Q 300 1013 288 1472 
z
" transform="scale(0.015625)"/>
       <path id="ArialMT-6d" d="M 422 0 
L 422 3319 
L 925 3319 
L 925 2853 
Q 1081 3097 1340 3245 
Q 1600 3394 1931 3394 
Q 2300 3394 2536 3241 
Q 2772 3088 2869 2813 
Q 3263 3394 3894 3394 
Q 4388 3394 4653 3120 
Q 4919 2847 4919 2278 
L 4919 0 
L 4359 0 
L 4359 2091 
Q 4359 2428 4304 2576 
Q 4250 2725 4106 2815 
Q 3963 2906 3769 2906 
Q 3419 2906 3187 2673 
Q 2956 2441 2956 1928 
L 2956 0 
L 2394 0 
L 2394 2156 
Q 2394 2531 2256 2718 
Q 2119 2906 1806 2906 
Q 1569 2906 1367 2781 
Q 1166 2656 1075 2415 
Q 984 2175 984 1722 
L 984 0 
L 422 0 
z
" transform="scale(0.015625)"/>
       <path id="ArialMT-6c" d="M 409 0 
L 409 4581 
L 972 4581 
L 972 0 
L 409 0 
z
" transform="scale(0.015625)"/>
       <path id="ArialMT-61" d="M 2588 409 
Q 2275 144 1986 34 
Q 1697 -75 1366 -75 
Q 819 -75 525 192 
Q 231 459 231 875 
Q 231 1119 342 1320 
Q 453 1522 633 1644 
Q 813 1766 1038 1828 
Q 1203 1872 1538 1913 
Q 2219 1994 2541 2106 
Q 2544 2222 2544 2253 
Q 2544 2597 2384 2738 
Q 2169 2928 1744 2928 
Q 1347 2928 1158 2789 
Q 969 2650 878 2297 
L 328 2372 
Q 403 2725 575 2942 
Q 747 3159 1072 3276 
Q 1397 3394 1825 3394 
Q 2250 3394 2515 3294 
Q 2781 3194 2906 3042 
Q 3031 2891 3081 2659 
Q 3109 2516 3109 2141 
L 3109 1391 
Q 3109 606 3145 398 
Q 3181 191 3288 0 
L 2700 0 
Q 2613 175 2588 409 
z
M 2541 1666 
Q 2234 1541 1622 1453 
Q 1275 1403 1131 1340 
Q 988 1278 909 1158 
Q 831 1038 831 891 
Q 831 666 1001 516 
Q 1172 366 1500 366 
Q 1825 366 2078 508 
Q 2331 650 2450 897 
Q 2541 1088 2541 1459 
L 2541 1666 
z
" transform="scale(0.015625)"/>
       <path id="ArialMT-72" d="M 416 0 
L 416 3319 
L 922 3319 
L 922 2816 
Q 1116 3169 1280 3281 
Q 1444 3394 1641 3394 
Q 1925 3394 2219 3213 
L 2025 2691 
Q 1819 2813 1613 2813 
Q 1428 2813 1281 2702 
Q 1134 2591 1072 2394 
Q 978 2094 978 1738 
L 978 0 
L 416 0 
z
" transform="scale(0.015625)"/>
       <path id="ArialMT-79" d="M 397 -1278 
L 334 -750 
Q 519 -800 656 -800 
Q 844 -800 956 -737 
Q 1069 -675 1141 -563 
Q 1194 -478 1313 -144 
Q 1328 -97 1363 -6 
L 103 3319 
L 709 3319 
L 1400 1397 
Q 1534 1031 1641 628 
Q 1738 1016 1872 1384 
L 2581 3319 
L 3144 3319 
L 1881 -56 
Q 1678 -603 1566 -809 
Q 1416 -1088 1222 -1217 
Q 1028 -1347 759 -1347 
Q 597 -1347 397 -1278 
z
" transform="scale(0.015625)"/>
       <path id="ArialMT-77" d="M 1034 0 
L 19 3319 
L 600 3319 
L 1128 1403 
L 1325 691 
Q 1338 744 1497 1375 
L 2025 3319 
L 2603 3319 
L 3100 1394 
L 3266 759 
L 3456 1400 
L 4025 3319 
L 4572 3319 
L 3534 0 
L 2950 0 
L 2422 1988 
L 2294 2553 
L 1622 0 
L 1034 0 
z
" transform="scale(0.015625)"/>
       <path id="ArialMT-4c" d="M 469 0 
L 469 4581 
L 1075 4581 
L 1075 541 
L 3331 541 
L 3331 0 
L 469 0 
z
" transform="scale(0.015625)"/>
       <path id="ArialMT-4e" d="M 488 0 
L 488 4581 
L 1109 4581 
L 3516 984 
L 3516 4581 
L 4097 4581 
L 4097 0 
L 3475 0 
L 1069 3600 
L 1069 0 
L 488 0 
z
" transform="scale(0.015625)"/>
       <path id="DejaVuSans-2b" d="M 2944 4013 
L 2944 2272 
L 4684 2272 
L 4684 1741 
L 2944 1741 
L 2944 0 
L 2419 0 
L 2419 1741 
L 678 1741 
L 678 2272 
L 2419 2272 
L 2419 4013 
L 2944 4013 
z
" transform="scale(0.015625)"/>
      </defs>
      <use xlink:href="#ArialMT-4f" transform="translate(0 0.826562)"/>
      <use xlink:href="#ArialMT-75" transform="translate(77.783203 0.826562)"/>
      <use xlink:href="#ArialMT-74" transform="translate(133.398438 0.826562)"/>
      <use xlink:href="#ArialMT-70" transform="translate(161.181641 0.826562)"/>
      <use xlink:href="#ArialMT-75" transform="translate(216.796875 0.826562)"/>
      <use xlink:href="#ArialMT-74" transform="translate(272.412109 0.826562)"/>
      <use xlink:href="#ArialMT-20" transform="translate(300.195312 0.826562)"/>
      <use xlink:href="#ArialMT-43" transform="translate(327.978516 0.826562)"/>
      <use xlink:href="#ArialMT-6f" transform="translate(400.195312 0.826562)"/>
      <use xlink:href="#ArialMT-73" transform="translate(455.810547 0.826562)"/>
      <use xlink:href="#ArialMT-69" transform="translate(505.810547 0.826562)"/>
      <use xlink:href="#ArialMT-6e" transform="translate(528.027344 0.826562)"/>
      <use xlink:href="#ArialMT-65" transform="translate(583.642578 0.826562)"/>
      <use xlink:href="#ArialMT-20" transform="translate(639.257812 0.826562)"/>
      <use xlink:href="#ArialMT-53" transform="translate(667.041016 0.826562)"/>
      <use xlink:href="#ArialMT-69" transform="translate(733.740234 0.826562)"/>
      <use xlink:href="#ArialMT-6d" transform="translate(755.957031 0.826562)"/>
      <use xlink:href="#ArialMT-69" transform="translate(839.257812 0.826562)"/>
      <use xlink:href="#ArialMT-6c" transform="translate(861.474609 0.826562)"/>
      <use xlink:href="#ArialMT-61" transform="translate(883.691406 0.826562)"/>
      <use xlink:href="#ArialMT-72" transform="translate(939.306641 0.826562)"/>
      <use xlink:href="#ArialMT-69" transform="translate(972.607422 0.826562)"/>
      <use xlink:href="#ArialMT-74" transform="translate(994.824219 0.826562)"/>
      <use xlink:href="#ArialMT-79" transform="translate(1022.607422 0.826562)"/>
      <use xlink:href="#ArialMT-20" transform="translate(1072.607422 0.826562)"/>
      <use xlink:href="#ArialMT-77" transform="translate(1100.390625 0.826562)"/>
      <use xlink:href="#ArialMT-72" transform="translate(1172.607422 0.826562)"/>
      <use xlink:href="#ArialMT-74" transform="translate(1205.908203 0.826562)"/>
      <use xlink:href="#ArialMT-20" transform="translate(1233.691406 0.826562)"/>
      <use xlink:href="#ArialMT-4c" transform="translate(1261.474609 0.826562)"/>
      <use xlink:href="#ArialMT-4e" transform="translate(1317.089844 0.826562)"/>
      <use xlink:href="#DejaVuSans-2b" transform="translate(1403.901367 39.107812)scale(0.7)"/>
     </g>
    </g>
   </g>
   <g id="matplotlib.axis_2">
    <g id="ytick_1">
     <g id="line2d_7">
      <defs>
       <path id="maa43f6366e" d="M 0 0 
L -8 0 
" style="stroke: #000000; stroke-width: 2"/>
      </defs>
      <g>
       <use xlink:href="#maa43f6366e" x="48.1124" y="136.099414" style="stroke: #000000; stroke-width: 2"/>
      </g>
     </g>
     <g id="text_8">
      <!-- 0 -->
      <g transform="translate(27.0031 142.283764)scale(0.1728 -0.1728)">
       <use xlink:href="#ArialMT-30"/>
      </g>
     </g>
    </g>
    <g id="ytick_2">
     <g id="line2d_8">
      <g>
       <use xlink:href="#maa43f6366e" x="48.1124" y="74.741882" style="stroke: #000000; stroke-width: 2"/>
      </g>
     </g>
     <g id="text_9">
      <!-- 2 -->
      <g transform="translate(27.0031 80.926232)scale(0.1728 -0.1728)">
       <use xlink:href="#ArialMT-32"/>
      </g>
     </g>
    </g>
    <g id="ytick_3">
     <g id="line2d_9">
      <g>
       <use xlink:href="#maa43f6366e" x="48.1124" y="13.38435" style="stroke: #000000; stroke-width: 2"/>
      </g>
     </g>
     <g id="text_10">
      <!-- 4 -->
      <g transform="translate(27.0031 19.5687)scale(0.1728 -0.1728)">
       <use xlink:href="#ArialMT-34"/>
      </g>
     </g>
    </g>
    <g id="text_11">
     <!-- Count -->
     <g transform="translate(19.5687 94.727956)rotate(-90)scale(0.1728 -0.1728)">
      <use xlink:href="#ArialMT-43"/>
      <use xlink:href="#ArialMT-6f" x="72.216797"/>
      <use xlink:href="#ArialMT-75" x="127.832031"/>
      <use xlink:href="#ArialMT-6e" x="183.447266"/>
      <use xlink:href="#ArialMT-74" x="239.0625"/>
     </g>
    </g>
   </g>
   <g id="patch_13">
    <path d="M 48.1124 136.099414 
L 48.1124 7.248597 
" style="fill: none; stroke: #000000; stroke-width: 1.5; stroke-linejoin: miter; stroke-linecap: square"/>
   </g>
   <g id="patch_14">
    <path d="M 48.1124 136.099414 
L 473.2704 136.099414 
" style="fill: none; stroke: #000000; stroke-width: 1.5; stroke-linejoin: miter; stroke-linecap: square"/>
   </g>
  </g>
  <g id="axes_2">
   <g id="patch_15">
    <path d="M 48.1124 327.619414 
L 473.2704 327.619414 
L 473.2704 198.768597 
L 48.1124 198.768597 
z
" style="fill: #ffffff"/>
   </g>
   <g id="patch_16">
    <path d="M 84.211459 327.619414 
L 94.089066 327.619414 
L 94.089066 266.261882 
L 84.211459 266.261882 
z
" clip-path="url(#p257819f075)" style="fill: #595c79; opacity: 0.6"/>
   </g>
   <g id="patch_17">
    <path d="M 94.089066 327.619414 
L 103.966672 327.619414 
L 103.966672 296.940648 
L 94.089066 296.940648 
z
" clip-path="url(#p257819f075)" style="fill: #595c79; opacity: 0.6"/>
   </g>
   <g id="patch_18">
    <path d="M 103.966672 327.619414 
L 113.844278 327.619414 
L 113.844278 204.90435 
L 103.966672 204.90435 
z
" clip-path="url(#p257819f075)" style="fill: #595c79; opacity: 0.6"/>
   </g>
   <g id="patch_19">
    <path d="M 113.844278 327.619414 
L 123.721884 327.619414 
L 123.721884 266.261882 
L 113.844278 266.261882 
z
" clip-path="url(#p257819f075)" style="fill: #595c79; opacity: 0.6"/>
   </g>
   <g id="patch_20">
    <path d="M 123.721884 327.619414 
L 133.599491 327.619414 
L 133.599491 327.619414 
L 123.721884 327.619414 
z
" clip-path="url(#p257819f075)" style="fill: #595c79; opacity: 0.6"/>
   </g>
   <g id="patch_21">
    <path d="M 133.599491 327.619414 
L 143.477097 327.619414 
L 143.477097 266.261882 
L 133.599491 266.261882 
z
" clip-path="url(#p257819f075)" style="fill: #595c79; opacity: 0.6"/>
   </g>
   <g id="patch_22">
    <path d="M 143.477097 327.619414 
L 153.354703 327.619414 
L 153.354703 235.583116 
L 143.477097 235.583116 
z
" clip-path="url(#p257819f075)" style="fill: #595c79; opacity: 0.6"/>
   </g>
   <g id="patch_23">
    <path d="M 153.354703 327.619414 
L 163.232309 327.619414 
L 163.232309 266.261882 
L 153.354703 266.261882 
z
" clip-path="url(#p257819f075)" style="fill: #595c79; opacity: 0.6"/>
   </g>
   <g id="patch_24">
    <path d="M 163.232309 327.619414 
L 173.109916 327.619414 
L 173.109916 235.583116 
L 163.232309 235.583116 
z
" clip-path="url(#p257819f075)" style="fill: #595c79; opacity: 0.6"/>
   </g>
   <g id="patch_25">
    <path d="M 173.109916 327.619414 
L 182.987522 327.619414 
L 182.987522 266.261882 
L 173.109916 266.261882 
z
" clip-path="url(#p257819f075)" style="fill: #595c79; opacity: 0.6"/>
   </g>
   <g id="matplotlib.axis_3">
    <g id="xtick_7">
     <g id="line2d_10">
      <g>
       <use xlink:href="#m8be16adc1e" x="48.1124" y="327.619414" style="stroke: #000000; stroke-width: 2"/>
      </g>
     </g>
     <g id="text_12">
      <!-- 0.0 -->
      <g transform="translate(36.1028 351.488114)scale(0.1728 -0.1728)">
       <use xlink:href="#ArialMT-30"/>
       <use xlink:href="#ArialMT-2e" x="55.615234"/>
       <use xlink:href="#ArialMT-30" x="83.398438"/>
      </g>
     </g>
    </g>
    <g id="xtick_8">
     <g id="line2d_11">
      <g>
       <use xlink:href="#m8be16adc1e" x="133.144" y="327.619414" style="stroke: #000000; stroke-width: 2"/>
      </g>
     </g>
     <g id="text_13">
      <!-- 0.2 -->
      <g transform="translate(121.1344 351.488114)scale(0.1728 -0.1728)">
       <use xlink:href="#ArialMT-30"/>
       <use xlink:href="#ArialMT-2e" x="55.615234"/>
       <use xlink:href="#ArialMT-32" x="83.398438"/>
      </g>
     </g>
    </g>
    <g id="xtick_9">
     <g id="line2d_12">
      <g>
       <use xlink:href="#m8be16adc1e" x="218.1756" y="327.619414" style="stroke: #000000; stroke-width: 2"/>
      </g>
     </g>
     <g id="text_14">
      <!-- 0.4 -->
      <g transform="translate(206.166 351.488114)scale(0.1728 -0.1728)">
       <use xlink:href="#ArialMT-30"/>
       <use xlink:href="#ArialMT-2e" x="55.615234"/>
       <use xlink:href="#ArialMT-34" x="83.398438"/>
      </g>
     </g>
    </g>
    <g id="xtick_10">
     <g id="line2d_13">
      <g>
       <use xlink:href="#m8be16adc1e" x="303.2072" y="327.619414" style="stroke: #000000; stroke-width: 2"/>
      </g>
     </g>
     <g id="text_15">
      <!-- 0.6 -->
      <g transform="translate(291.1976 351.488114)scale(0.1728 -0.1728)">
       <use xlink:href="#ArialMT-30"/>
       <use xlink:href="#ArialMT-2e" x="55.615234"/>
       <use xlink:href="#ArialMT-36" x="83.398438"/>
      </g>
     </g>
    </g>
    <g id="xtick_11">
     <g id="line2d_14">
      <g>
       <use xlink:href="#m8be16adc1e" x="388.2388" y="327.619414" style="stroke: #000000; stroke-width: 2"/>
      </g>
     </g>
     <g id="text_16">
      <!-- 0.8 -->
      <g transform="translate(376.2292 351.488114)scale(0.1728 -0.1728)">
       <use xlink:href="#ArialMT-30"/>
       <use xlink:href="#ArialMT-2e" x="55.615234"/>
       <use xlink:href="#ArialMT-38" x="83.398438"/>
      </g>
     </g>
    </g>
    <g id="xtick_12">
     <g id="line2d_15">
      <g>
       <use xlink:href="#m8be16adc1e" x="473.2704" y="327.619414" style="stroke: #000000; stroke-width: 2"/>
      </g>
     </g>
     <g id="text_17">
      <!-- 1.0 -->
      <g transform="translate(461.2608 351.488114)scale(0.1728 -0.1728)">
       <use xlink:href="#ArialMT-31"/>
       <use xlink:href="#ArialMT-2e" x="55.615234"/>
       <use xlink:href="#ArialMT-30" x="83.398438"/>
      </g>
     </g>
    </g>
    <g id="text_18">
     <!-- Gradient Cosine Similarity wrt LN$^+$ -->
     <g transform="translate(125.6482 373.264914)scale(0.1728 -0.1728)">
      <defs>
       <path id="ArialMT-47" d="M 2638 1797 
L 2638 2334 
L 4578 2338 
L 4578 638 
Q 4131 281 3656 101 
Q 3181 -78 2681 -78 
Q 2006 -78 1454 211 
Q 903 500 622 1047 
Q 341 1594 341 2269 
Q 341 2938 620 3517 
Q 900 4097 1425 4378 
Q 1950 4659 2634 4659 
Q 3131 4659 3532 4498 
Q 3934 4338 4162 4050 
Q 4391 3763 4509 3300 
L 3963 3150 
Q 3859 3500 3706 3700 
Q 3553 3900 3268 4020 
Q 2984 4141 2638 4141 
Q 2222 4141 1919 4014 
Q 1616 3888 1430 3681 
Q 1244 3475 1141 3228 
Q 966 2803 966 2306 
Q 966 1694 1177 1281 
Q 1388 869 1791 669 
Q 2194 469 2647 469 
Q 3041 469 3416 620 
Q 3791 772 3984 944 
L 3984 1797 
L 2638 1797 
z
" transform="scale(0.015625)"/>
       <path id="ArialMT-64" d="M 2575 0 
L 2575 419 
Q 2259 -75 1647 -75 
Q 1250 -75 917 144 
Q 584 363 401 755 
Q 219 1147 219 1656 
Q 219 2153 384 2558 
Q 550 2963 881 3178 
Q 1213 3394 1622 3394 
Q 1922 3394 2156 3267 
Q 2391 3141 2538 2938 
L 2538 4581 
L 3097 4581 
L 3097 0 
L 2575 0 
z
M 797 1656 
Q 797 1019 1065 703 
Q 1334 388 1700 388 
Q 2069 388 2326 689 
Q 2584 991 2584 1609 
Q 2584 2291 2321 2609 
Q 2059 2928 1675 2928 
Q 1300 2928 1048 2622 
Q 797 2316 797 1656 
z
" transform="scale(0.015625)"/>
      </defs>
      <use xlink:href="#ArialMT-47" transform="translate(0 0.826562)"/>
      <use xlink:href="#ArialMT-72" transform="translate(77.783203 0.826562)"/>
      <use xlink:href="#ArialMT-61" transform="translate(111.083984 0.826562)"/>
      <use xlink:href="#ArialMT-64" transform="translate(166.699219 0.826562)"/>
      <use xlink:href="#ArialMT-69" transform="translate(222.314453 0.826562)"/>
      <use xlink:href="#ArialMT-65" transform="translate(244.53125 0.826562)"/>
      <use xlink:href="#ArialMT-6e" transform="translate(300.146484 0.826562)"/>
      <use xlink:href="#ArialMT-74" transform="translate(355.761719 0.826562)"/>
      <use xlink:href="#ArialMT-20" transform="translate(383.544922 0.826562)"/>
      <use xlink:href="#ArialMT-43" transform="translate(411.328125 0.826562)"/>
      <use xlink:href="#ArialMT-6f" transform="translate(483.544922 0.826562)"/>
      <use xlink:href="#ArialMT-73" transform="translate(539.160156 0.826562)"/>
      <use xlink:href="#ArialMT-69" transform="translate(589.160156 0.826562)"/>
      <use xlink:href="#ArialMT-6e" transform="translate(611.376953 0.826562)"/>
      <use xlink:href="#ArialMT-65" transform="translate(666.992188 0.826562)"/>
      <use xlink:href="#ArialMT-20" transform="translate(722.607422 0.826562)"/>
      <use xlink:href="#ArialMT-53" transform="translate(750.390625 0.826562)"/>
      <use xlink:href="#ArialMT-69" transform="translate(817.089844 0.826562)"/>
      <use xlink:href="#ArialMT-6d" transform="translate(839.306641 0.826562)"/>
      <use xlink:href="#ArialMT-69" transform="translate(922.607422 0.826562)"/>
      <use xlink:href="#ArialMT-6c" transform="translate(944.824219 0.826562)"/>
      <use xlink:href="#ArialMT-61" transform="translate(967.041016 0.826562)"/>
      <use xlink:href="#ArialMT-72" transform="translate(1022.65625 0.826562)"/>
      <use xlink:href="#ArialMT-69" transform="translate(1055.957031 0.826562)"/>
      <use xlink:href="#ArialMT-74" transform="translate(1078.173828 0.826562)"/>
      <use xlink:href="#ArialMT-79" transform="translate(1105.957031 0.826562)"/>
      <use xlink:href="#ArialMT-20" transform="translate(1155.957031 0.826562)"/>
      <use xlink:href="#ArialMT-77" transform="translate(1183.740234 0.826562)"/>
      <use xlink:href="#ArialMT-72" transform="translate(1255.957031 0.826562)"/>
      <use xlink:href="#ArialMT-74" transform="translate(1289.257812 0.826562)"/>
      <use xlink:href="#ArialMT-20" transform="translate(1317.041016 0.826562)"/>
      <use xlink:href="#ArialMT-4c" transform="translate(1344.824219 0.826562)"/>
      <use xlink:href="#ArialMT-4e" transform="translate(1400.439453 0.826562)"/>
      <use xlink:href="#DejaVuSans-2b" transform="translate(1487.250977 39.107812)scale(0.7)"/>
     </g>
    </g>
   </g>
   <g id="matplotlib.axis_4">
    <g id="ytick_4">
     <g id="line2d_16">
      <g>
       <use xlink:href="#maa43f6366e" x="48.1124" y="327.619414" style="stroke: #000000; stroke-width: 2"/>
      </g>
     </g>
     <g id="text_19">
      <!-- 0 -->
      <g transform="translate(27.0031 333.803764)scale(0.1728 -0.1728)">
       <use xlink:href="#ArialMT-30"/>
      </g>
     </g>
    </g>
    <g id="ytick_5">
     <g id="line2d_17">
      <g>
       <use xlink:href="#maa43f6366e" x="48.1124" y="266.261882" style="stroke: #000000; stroke-width: 2"/>
      </g>
     </g>
     <g id="text_20">
      <!-- 2 -->
      <g transform="translate(27.0031 272.446232)scale(0.1728 -0.1728)">
       <use xlink:href="#ArialMT-32"/>
      </g>
     </g>
    </g>
    <g id="ytick_6">
     <g id="line2d_18">
      <g>
       <use xlink:href="#maa43f6366e" x="48.1124" y="204.90435" style="stroke: #000000; stroke-width: 2"/>
      </g>
     </g>
     <g id="text_21">
      <!-- 4 -->
      <g transform="translate(27.0031 211.0887)scale(0.1728 -0.1728)">
       <use xlink:href="#ArialMT-34"/>
      </g>
     </g>
    </g>
    <g id="text_22">
     <!-- Count -->
     <g transform="translate(19.5687 286.247956)rotate(-90)scale(0.1728 -0.1728)">
      <use xlink:href="#ArialMT-43"/>
      <use xlink:href="#ArialMT-6f" x="72.216797"/>
      <use xlink:href="#ArialMT-75" x="127.832031"/>
      <use xlink:href="#ArialMT-6e" x="183.447266"/>
      <use xlink:href="#ArialMT-74" x="239.0625"/>
     </g>
    </g>
   </g>
   <g id="patch_26">
    <path d="M 48.1124 327.619414 
L 48.1124 198.768597 
" style="fill: none; stroke: #000000; stroke-width: 1.5; stroke-linejoin: miter; stroke-linecap: square"/>
   </g>
   <g id="patch_27">
    <path d="M 48.1124 327.619414 
L 473.2704 327.619414 
" style="fill: none; stroke: #000000; stroke-width: 1.5; stroke-linejoin: miter; stroke-linecap: square"/>
   </g>
   <g id="legend_1">
    <g id="patch_28">
     <path d="M 372.2499 256.790697 
L 461.1744 256.790697 
Q 464.6304 256.790697 464.6304 253.334697 
L 464.6304 210.864597 
Q 464.6304 207.408597 461.1744 207.408597 
L 372.2499 207.408597 
Q 368.7939 207.408597 368.7939 210.864597 
L 368.7939 253.334697 
Q 368.7939 256.790697 372.2499 256.790697 
z
" style="fill: #ffffff; opacity: 0.8; stroke: #cccccc; stroke-width: 2.5; stroke-linejoin: miter"/>
    </g>
    <g id="text_23">
     <!-- Brightness -->
     <g transform="translate(388.3659 222.909972)scale(0.12 -0.12)">
      <defs>
       <path id="ArialMT-42" d="M 469 0 
L 469 4581 
L 2188 4581 
Q 2713 4581 3030 4442 
Q 3347 4303 3526 4014 
Q 3706 3725 3706 3409 
Q 3706 3116 3547 2856 
Q 3388 2597 3066 2438 
Q 3481 2316 3704 2022 
Q 3928 1728 3928 1328 
Q 3928 1006 3792 729 
Q 3656 453 3456 303 
Q 3256 153 2954 76 
Q 2653 0 2216 0 
L 469 0 
z
M 1075 2656 
L 2066 2656 
Q 2469 2656 2644 2709 
Q 2875 2778 2992 2937 
Q 3109 3097 3109 3338 
Q 3109 3566 3000 3739 
Q 2891 3913 2687 3977 
Q 2484 4041 1991 4041 
L 1075 4041 
L 1075 2656 
z
M 1075 541 
L 2216 541 
Q 2509 541 2628 563 
Q 2838 600 2978 687 
Q 3119 775 3209 942 
Q 3300 1109 3300 1328 
Q 3300 1584 3169 1773 
Q 3038 1963 2805 2039 
Q 2572 2116 2134 2116 
L 1075 2116 
L 1075 541 
z
" transform="scale(0.015625)"/>
       <path id="ArialMT-67" d="M 319 -275 
L 866 -356 
Q 900 -609 1056 -725 
Q 1266 -881 1628 -881 
Q 2019 -881 2231 -725 
Q 2444 -569 2519 -288 
Q 2563 -116 2559 434 
Q 2191 0 1641 0 
Q 956 0 581 494 
Q 206 988 206 1678 
Q 206 2153 378 2554 
Q 550 2956 876 3175 
Q 1203 3394 1644 3394 
Q 2231 3394 2613 2919 
L 2613 3319 
L 3131 3319 
L 3131 450 
Q 3131 -325 2973 -648 
Q 2816 -972 2473 -1159 
Q 2131 -1347 1631 -1347 
Q 1038 -1347 672 -1080 
Q 306 -813 319 -275 
z
M 784 1719 
Q 784 1066 1043 766 
Q 1303 466 1694 466 
Q 2081 466 2343 764 
Q 2606 1063 2606 1700 
Q 2606 2309 2336 2618 
Q 2066 2928 1684 2928 
Q 1309 2928 1046 2623 
Q 784 2319 784 1719 
z
" transform="scale(0.015625)"/>
       <path id="ArialMT-68" d="M 422 0 
L 422 4581 
L 984 4581 
L 984 2938 
Q 1378 3394 1978 3394 
Q 2347 3394 2619 3248 
Q 2891 3103 3008 2847 
Q 3125 2591 3125 2103 
L 3125 0 
L 2563 0 
L 2563 2103 
Q 2563 2525 2380 2717 
Q 2197 2909 1863 2909 
Q 1613 2909 1392 2779 
Q 1172 2650 1078 2428 
Q 984 2206 984 1816 
L 984 0 
L 422 0 
z
" transform="scale(0.015625)"/>
      </defs>
      <use xlink:href="#ArialMT-42"/>
      <use xlink:href="#ArialMT-72" x="66.699219"/>
      <use xlink:href="#ArialMT-69" x="100"/>
      <use xlink:href="#ArialMT-67" x="122.216797"/>
      <use xlink:href="#ArialMT-68" x="177.832031"/>
      <use xlink:href="#ArialMT-74" x="233.447266"/>
      <use xlink:href="#ArialMT-6e" x="261.230469"/>
      <use xlink:href="#ArialMT-65" x="316.845703"/>
      <use xlink:href="#ArialMT-73" x="372.460938"/>
      <use xlink:href="#ArialMT-73" x="422.460938"/>
     </g>
    </g>
    <g id="patch_29">
     <path d="M 375.7059 246.444297 
L 410.2659 246.444297 
L 410.2659 234.348297 
L 375.7059 234.348297 
z
" style="fill: #595c79; opacity: 0.6"/>
    </g>
    <g id="text_24">
     <!-- 0.75 -->
     <g transform="translate(424.0899 246.444297)scale(0.1728 -0.1728)">
      <defs>
       <path id="ArialMT-37" d="M 303 3981 
L 303 4522 
L 3269 4522 
L 3269 4084 
Q 2831 3619 2401 2847 
Q 1972 2075 1738 1259 
Q 1569 684 1522 0 
L 944 0 
Q 953 541 1156 1306 
Q 1359 2072 1739 2783 
Q 2119 3494 2547 3981 
L 303 3981 
z
" transform="scale(0.015625)"/>
       <path id="ArialMT-35" d="M 266 1200 
L 856 1250 
Q 922 819 1161 601 
Q 1400 384 1738 384 
Q 2144 384 2425 690 
Q 2706 997 2706 1503 
Q 2706 1984 2436 2262 
Q 2166 2541 1728 2541 
Q 1456 2541 1237 2417 
Q 1019 2294 894 2097 
L 366 2166 
L 809 4519 
L 3088 4519 
L 3088 3981 
L 1259 3981 
L 1013 2750 
Q 1425 3038 1878 3038 
Q 2478 3038 2890 2622 
Q 3303 2206 3303 1553 
Q 3303 931 2941 478 
Q 2500 -78 1738 -78 
Q 1113 -78 717 272 
Q 322 622 266 1200 
z
" transform="scale(0.015625)"/>
      </defs>
      <use xlink:href="#ArialMT-30"/>
      <use xlink:href="#ArialMT-2e" x="55.615234"/>
      <use xlink:href="#ArialMT-37" x="83.398438"/>
      <use xlink:href="#ArialMT-35" x="139.013672"/>
     </g>
    </g>
   </g>
  </g>
 </g>
 <defs>
  <clipPath id="p8e08b3c7a8">
   <rect x="48.1124" y="7.248597" width="425.158" height="128.850818"/>
  </clipPath>
  <clipPath id="p257819f075">
   <rect x="48.1124" y="198.768597" width="425.158" height="128.850818"/>
  </clipPath>
 </defs>
</svg>
