<?xml version="1.0" encoding="utf-8" standalone="no"?>
<!DOCTYPE svg PUBLIC "-//W3C//DTD SVG 1.1//EN"
  "http://www.w3.org/Graphics/SVG/1.1/DTD/svg11.dtd">
<svg xmlns:xlink="http://www.w3.org/1999/xlink" width="420.380464pt" height="348.48pt" viewBox="0 0 420.380464 348.48" xmlns="http://www.w3.org/2000/svg" version="1.1">
 <metadata>
  <rdf:RDF xmlns:dc="http://purl.org/dc/elements/1.1/" xmlns:cc="http://creativecommons.org/ns#" xmlns:rdf="http://www.w3.org/1999/02/22-rdf-syntax-ns#">
   <cc:Work>
    <dc:type rdf:resource="http://purl.org/dc/dcmitype/StillImage"/>
    <dc:date>2025-11-13T10:54:11.172436</dc:date>
    <dc:format>image/svg+xml</dc:format>
    <dc:creator>
     <cc:Agent>
      <dc:title>Matplotlib v3.5.3, https://matplotlib.org/</dc:title>
     </cc:Agent>
    </dc:creator>
   </cc:Work>
  </rdf:RDF>
 </metadata>
 <defs>
  <style type="text/css">*{stroke-linejoin: round; stroke-linecap: butt}</style>
 </defs>
 <g id="figure_1">
  <g id="patch_1">
   <path d="M 0 348.48 
L 420.380464 348.48 
L 420.380464 0 
L 0 0 
z
" style="fill: #ffffff"/>
  </g>
  <g id="axes_1">
   <g id="patch_2">
    <path d="M 64.8632 294.1738 
L 412.934873 294.1738 
L 412.934873 7.2 
L 64.8632 7.2 
z
" style="fill: #ffffff"/>
   </g>
   <g id="PolyCollection_1">
    <defs>
     <path id="m7d976f2494" d="M 80.68464 -328.235736 
L 80.68464 -327.852122 
L 87.14237 -327.387598 
L 93.600101 -327.19717 
L 100.057831 -326.809257 
L 106.515562 -324.220361 
L 112.973292 -323.833553 
L 119.431023 -323.551201 
L 125.888753 -323.794917 
L 132.346484 -323.797435 
L 138.804214 -324.40751 
L 145.261945 -324.115177 
L 151.719675 -324.407951 
L 158.177406 -324.89361 
L 164.635136 -324.710765 
L 171.092866 -325.335553 
L 177.550597 -325.842191 
L 184.008327 -326.191611 
L 190.466058 -326.424684 
L 196.923788 -326.723031 
L 203.381519 -326.774388 
L 209.839249 -326.883925 
L 216.29698 -326.871716 
L 222.75471 -326.812472 
L 229.212441 -326.842819 
L 235.670171 -326.845446 
L 242.127902 -326.786946 
L 248.585632 -326.690769 
L 255.043363 -326.612719 
L 261.501093 -326.482303 
L 267.958824 -326.41702 
L 274.416554 -326.306683 
L 280.874285 -326.224533 
L 287.332015 -326.128379 
L 293.789746 -326.027994 
L 300.247476 -325.989309 
L 306.705207 -325.781052 
L 313.162937 -325.470536 
L 319.620668 -325.44103 
L 326.078398 -325.22866 
L 332.536129 -325.090038 
L 338.993859 -324.897843 
L 345.45159 -324.679155 
L 351.90932 -324.415698 
L 358.367051 -323.94793 
L 364.824781 -323.704254 
L 371.282512 -323.549676 
L 377.740242 -323.202341 
L 384.197973 -323.474673 
L 390.655703 -322.467296 
L 397.113433 -322.951533 
L 397.113433 -328.213954 
L 397.113433 -328.213954 
L 390.655703 -328.215743 
L 384.197973 -328.216942 
L 377.740242 -328.21538 
L 371.282512 -328.215522 
L 364.824781 -328.217144 
L 358.367051 -328.217156 
L 351.90932 -328.216402 
L 345.45159 -328.215969 
L 338.993859 -328.215921 
L 332.536129 -328.217068 
L 326.078398 -328.218034 
L 319.620668 -328.217653 
L 313.162937 -328.218773 
L 306.705207 -328.219207 
L 300.247476 -328.220168 
L 293.789746 -328.22104 
L 287.332015 -328.221488 
L 280.874285 -328.221409 
L 274.416554 -328.222032 
L 267.958824 -328.222545 
L 261.501093 -328.222816 
L 255.043363 -328.223162 
L 248.585632 -328.223269 
L 242.127902 -328.223718 
L 235.670171 -328.223761 
L 229.212441 -328.223838 
L 222.75471 -328.224246 
L 216.29698 -328.22462 
L 209.839249 -328.224842 
L 203.381519 -328.224854 
L 196.923788 -328.225289 
L 190.466058 -328.225471 
L 184.008327 -328.225618 
L 177.550597 -328.22557 
L 171.092866 -328.22553 
L 164.635136 -328.224054 
L 158.177406 -328.225762 
L 151.719675 -328.22496 
L 145.261945 -328.223772 
L 138.804214 -328.226414 
L 132.346484 -328.224865 
L 125.888753 -328.227806 
L 119.431023 -328.228893 
L 112.973292 -328.230982 
L 106.515562 -328.231854 
L 100.057831 -328.232283 
L 93.600101 -328.233152 
L 87.14237 -328.234017 
L 80.68464 -328.235736 
z
" style="stroke: #595c79; stroke-opacity: 0.15; stroke-width: 2.5"/>
    </defs>
    <g clip-path="url(#p58099b6266)">
     <use xlink:href="#m7d976f2494" x="0" y="348.48" style="fill: #595c79; fill-opacity: 0.15; stroke: #595c79; stroke-opacity: 0.15; stroke-width: 2.5"/>
    </g>
   </g>
   <g id="PolyCollection_2">
    <defs>
     <path id="md3a2a60c88" d="M 80.68464 -328.234878 
L 80.68464 -327.821483 
L 87.14237 -327.098353 
L 93.600101 -323.456123 
L 100.057831 -323.13224 
L 106.515562 -323.403183 
L 112.973292 -323.260865 
L 119.431023 -323.268892 
L 125.888753 -323.790869 
L 132.346484 -324.34343 
L 138.804214 -324.54427 
L 145.261945 -324.795308 
L 151.719675 -325.609168 
L 158.177406 -326.020379 
L 164.635136 -326.546432 
L 171.092866 -326.667713 
L 177.550597 -326.450083 
L 184.008327 -326.96289 
L 190.466058 -326.892627 
L 196.923788 -326.650932 
L 203.381519 -326.894401 
L 209.839249 -326.481062 
L 216.29698 -326.306204 
L 222.75471 -326.288438 
L 229.212441 -326.292026 
L 235.670171 -325.99059 
L 242.127902 -326.384873 
L 248.585632 -326.192424 
L 255.043363 -325.946685 
L 261.501093 -325.770871 
L 267.958824 -325.548589 
L 274.416554 -325.405247 
L 280.874285 -324.963506 
L 287.332015 -325.459215 
L 293.789746 -324.672756 
L 300.247476 -325.207999 
L 306.705207 -324.389829 
L 313.162937 -324.572425 
L 319.620668 -324.584059 
L 326.078398 -324.358786 
L 332.536129 -323.913986 
L 338.993859 -321.788664 
L 345.45159 -323.546581 
L 351.90932 -321.96176 
L 358.367051 -322.937152 
L 364.824781 -322.920127 
L 371.282512 -322.680241 
L 377.740242 -322.944077 
L 384.197973 -322.587846 
L 390.655703 -321.9994 
L 397.113433 -321.46001 
L 397.113433 -328.216202 
L 397.113433 -328.216202 
L 390.655703 -328.219671 
L 384.197973 -328.217281 
L 377.740242 -328.213827 
L 371.282512 -328.218594 
L 364.824781 -328.217029 
L 358.367051 -328.216073 
L 351.90932 -328.216525 
L 345.45159 -328.21995 
L 338.993859 -328.218472 
L 332.536129 -328.221714 
L 326.078398 -328.217257 
L 319.620668 -328.222581 
L 313.162937 -328.223155 
L 306.705207 -328.22277 
L 300.247476 -328.222302 
L 293.789746 -328.22297 
L 287.332015 -328.224042 
L 280.874285 -328.221952 
L 274.416554 -328.224066 
L 267.958824 -328.224238 
L 261.501093 -328.223961 
L 255.043363 -328.22494 
L 248.585632 -328.225703 
L 242.127902 -328.223504 
L 235.670171 -328.225921 
L 229.212441 -328.225929 
L 222.75471 -328.226322 
L 216.29698 -328.226596 
L 209.839249 -328.227043 
L 203.381519 -328.227978 
L 196.923788 -328.227573 
L 190.466058 -328.22755 
L 184.008327 -328.229003 
L 177.550597 -328.228408 
L 171.092866 -328.228525 
L 164.635136 -328.228701 
L 158.177406 -328.228024 
L 151.719675 -328.228969 
L 145.261945 -328.229246 
L 138.804214 -328.228614 
L 132.346484 -328.2298 
L 125.888753 -328.229536 
L 119.431023 -328.229947 
L 112.973292 -328.231358 
L 106.515562 -328.232106 
L 100.057831 -328.232087 
L 93.600101 -328.231782 
L 87.14237 -328.23266 
L 80.68464 -328.234878 
z
" style="stroke: #7f909f; stroke-opacity: 0.15; stroke-width: 2.5"/>
    </defs>
    <g clip-path="url(#p58099b6266)">
     <use xlink:href="#md3a2a60c88" x="0" y="348.48" style="fill: #7f909f; fill-opacity: 0.15; stroke: #7f909f; stroke-opacity: 0.15; stroke-width: 2.5"/>
    </g>
   </g>
   <g id="PolyCollection_3">
    <defs>
     <path id="mdea16dab1b" d="M 80.68464 -328.231629 
L 80.68464 -327.756149 
L 87.14237 -324.422785 
L 93.600101 -321.194981 
L 100.057831 -322.288253 
L 106.515562 -322.412737 
L 112.973292 -322.866852 
L 119.431023 -321.196395 
L 125.888753 -322.04254 
L 132.346484 -322.251285 
L 138.804214 -318.854234 
L 145.261945 -319.477195 
L 151.719675 -321.633895 
L 158.177406 -322.188125 
L 164.635136 -323.224103 
L 171.092866 -325.083176 
L 177.550597 -325.251569 
L 184.008327 -321.357658 
L 190.466058 -321.360194 
L 196.923788 -321.385263 
L 203.381519 -322.897964 
L 209.839249 -321.868592 
L 216.29698 -322.81733 
L 222.75471 -322.066674 
L 229.212441 -322.580151 
L 235.670171 -321.509032 
L 242.127902 -321.428729 
L 248.585632 -320.318221 
L 255.043363 -319.921895 
L 261.501093 -319.848384 
L 267.958824 -318.689817 
L 274.416554 -319.984809 
L 280.874285 -318.469583 
L 287.332015 -319.126502 
L 293.789746 -317.327775 
L 300.247476 -319.392833 
L 306.705207 -317.59807 
L 313.162937 -318.619068 
L 319.620668 -315.567995 
L 326.078398 -316.047687 
L 332.536129 -317.44258 
L 338.993859 -316.638732 
L 345.45159 -313.329901 
L 351.90932 -316.903157 
L 358.367051 -313.932518 
L 364.824781 -313.023968 
L 371.282512 -312.486752 
L 377.740242 -313.549749 
L 384.197973 -311.92669 
L 390.655703 -310.508571 
L 397.113433 -312.045981 
L 397.113433 -328.19459 
L 397.113433 -328.19459 
L 390.655703 -328.152157 
L 384.197973 -328.123422 
L 377.740242 -328.105402 
L 371.282512 -328.171772 
L 364.824781 -328.175326 
L 358.367051 -328.168294 
L 351.90932 -328.17331 
L 345.45159 -328.189244 
L 338.993859 -328.206417 
L 332.536129 -328.203844 
L 326.078398 -328.205514 
L 319.620668 -328.164858 
L 313.162937 -328.211722 
L 306.705207 -328.212548 
L 300.247476 -328.217976 
L 293.789746 -328.210549 
L 287.332015 -328.213869 
L 280.874285 -328.213383 
L 274.416554 -328.218927 
L 267.958824 -328.211262 
L 261.501093 -328.218305 
L 255.043363 -328.216317 
L 248.585632 -328.21369 
L 242.127902 -328.216093 
L 235.670171 -328.215111 
L 229.212441 -328.219048 
L 222.75471 -328.21725 
L 216.29698 -328.217545 
L 209.839249 -328.215258 
L 203.381519 -328.216771 
L 196.923788 -328.207867 
L 190.466058 -328.205711 
L 184.008327 -328.212868 
L 177.550597 -328.222631 
L 171.092866 -328.221304 
L 164.635136 -328.220062 
L 158.177406 -328.221367 
L 151.719675 -328.222125 
L 145.261945 -328.220473 
L 138.804214 -328.220248 
L 132.346484 -328.225198 
L 125.888753 -328.227229 
L 119.431023 -328.22768 
L 112.973292 -328.228781 
L 106.515562 -328.228701 
L 100.057831 -328.226898 
L 93.600101 -328.224736 
L 87.14237 -328.226096 
L 80.68464 -328.231629 
z
" style="stroke: #a4c2c3; stroke-opacity: 0.15; stroke-width: 2.5"/>
    </defs>
    <g clip-path="url(#p58099b6266)">
     <use xlink:href="#mdea16dab1b" x="0" y="348.48" style="fill: #a4c2c3; fill-opacity: 0.15; stroke: #a4c2c3; stroke-opacity: 0.15; stroke-width: 2.5"/>
    </g>
   </g>
   <g id="PolyCollection_4">
    <defs>
     <path id="m02c5e2552e" d="M 80.68464 -328.225085 
L 80.68464 -322.06872 
L 87.14237 -318.433051 
L 93.600101 -318.089469 
L 100.057831 -310.714478 
L 106.515562 -312.892295 
L 112.973292 -308.178608 
L 119.431023 -305.482672 
L 125.888753 -298.95506 
L 132.346484 -298.818691 
L 138.804214 -300.630713 
L 145.261945 -292.108359 
L 151.719675 -299.456632 
L 158.177406 -293.48612 
L 164.635136 -297.591088 
L 171.092866 -292.810115 
L 177.550597 -292.350706 
L 184.008327 -293.407252 
L 190.466058 -291.467394 
L 196.923788 -284.495297 
L 203.381519 -287.784077 
L 209.839249 -280.871143 
L 216.29698 -280.402474 
L 222.75471 -276.754575 
L 229.212441 -275.83359 
L 235.670171 -275.270141 
L 242.127902 -275.25557 
L 248.585632 -277.621066 
L 255.043363 -277.850985 
L 261.501093 -273.408965 
L 267.958824 -276.138539 
L 274.416554 -271.10336 
L 280.874285 -271.628299 
L 287.332015 -271.941529 
L 293.789746 -272.34554 
L 300.247476 -272.823918 
L 306.705207 -270.413298 
L 313.162937 -267.995265 
L 319.620668 -268.156964 
L 326.078398 -265.757817 
L 332.536129 -268.532479 
L 338.993859 -261.97529 
L 345.45159 -263.547803 
L 351.90932 -265.449461 
L 358.367051 -262.570685 
L 364.824781 -258.80981 
L 371.282512 -258.438689 
L 377.740242 -254.597861 
L 384.197973 -255.623334 
L 390.655703 -252.788584 
L 397.113433 -252.929822 
L 397.113433 -327.044712 
L 397.113433 -327.044712 
L 390.655703 -327.166233 
L 384.197973 -327.218197 
L 377.740242 -327.136704 
L 371.282512 -327.228914 
L 364.824781 -327.211327 
L 358.367051 -327.230524 
L 351.90932 -327.400751 
L 345.45159 -327.377653 
L 338.993859 -327.254293 
L 332.536129 -327.50163 
L 326.078398 -327.3392 
L 319.620668 -327.55544 
L 313.162937 -327.412966 
L 306.705207 -327.552121 
L 300.247476 -327.510128 
L 293.789746 -327.475758 
L 287.332015 -327.518126 
L 280.874285 -327.613895 
L 274.416554 -327.658907 
L 267.958824 -327.734824 
L 261.501093 -327.65652 
L 255.043363 -327.649147 
L 248.585632 -327.515901 
L 242.127902 -327.790209 
L 235.670171 -327.62175 
L 229.212441 -327.747727 
L 222.75471 -327.447329 
L 216.29698 -327.714469 
L 209.839249 -327.798434 
L 203.381519 -327.917859 
L 196.923788 -327.902947 
L 190.466058 -327.880385 
L 184.008327 -327.953934 
L 177.550597 -327.93476 
L 171.092866 -327.797474 
L 164.635136 -328.015957 
L 158.177406 -327.981491 
L 151.719675 -328.044267 
L 145.261945 -328.051773 
L 138.804214 -328.08962 
L 132.346484 -327.958364 
L 125.888753 -328.004498 
L 119.431023 -328.149735 
L 112.973292 -328.14745 
L 106.515562 -328.21217 
L 100.057831 -328.211456 
L 93.600101 -328.16291 
L 87.14237 -328.219985 
L 80.68464 -328.225085 
z
" style="stroke: #dde9e9; stroke-opacity: 0.15; stroke-width: 2.5"/>
    </defs>
    <g clip-path="url(#p58099b6266)">
     <use xlink:href="#m02c5e2552e" x="0" y="348.48" style="fill: #dde9e9; fill-opacity: 0.15; stroke: #dde9e9; stroke-opacity: 0.15; stroke-width: 2.5"/>
    </g>
   </g>
   <g id="PolyCollection_5">
    <defs>
     <path id="m30c78e0bc3" d="M 80.68464 -122.973938 
L 80.68464 -112.709016 
L 87.14237 -108.380754 
L 93.600101 -101.646904 
L 100.057831 -95.932464 
L 106.515562 -89.356301 
L 112.973292 -85.033453 
L 119.431023 -83.802437 
L 125.888753 -82.415147 
L 132.346484 -81.093149 
L 138.804214 -80.758475 
L 145.261945 -81.254786 
L 151.719675 -80.632492 
L 158.177406 -79.782157 
L 164.635136 -79.220486 
L 171.092866 -79.04429 
L 177.550597 -78.586962 
L 184.008327 -78.24801 
L 190.466058 -78.455319 
L 196.923788 -79.213885 
L 203.381519 -78.205976 
L 209.839249 -78.368393 
L 216.29698 -77.63822 
L 222.75471 -77.630369 
L 229.212441 -77.360416 
L 235.670171 -77.643184 
L 242.127902 -77.374019 
L 248.585632 -77.144259 
L 255.043363 -77.113971 
L 261.501093 -77.300988 
L 267.958824 -77.809027 
L 274.416554 -77.509832 
L 280.874285 -77.94361 
L 287.332015 -77.343342 
L 293.789746 -78.111788 
L 300.247476 -78.37223 
L 306.705207 -78.571253 
L 313.162937 -78.726177 
L 319.620668 -78.959102 
L 326.078398 -78.299967 
L 332.536129 -79.22212 
L 338.993859 -79.161526 
L 345.45159 -78.863004 
L 351.90932 -79.057388 
L 358.367051 -78.195616 
L 364.824781 -79.093586 
L 371.282512 -79.914174 
L 377.740242 -80.435993 
L 384.197973 -80.195867 
L 390.655703 -79.785759 
L 397.113433 -80.135629 
L 397.113433 -100.541049 
L 397.113433 -100.541049 
L 390.655703 -100.734094 
L 384.197973 -101.480402 
L 377.740242 -100.099261 
L 371.282512 -101.067134 
L 364.824781 -101.052749 
L 358.367051 -101.248338 
L 351.90932 -101.463475 
L 345.45159 -101.672324 
L 338.993859 -101.859559 
L 332.536129 -102.192001 
L 326.078398 -102.035787 
L 319.620668 -101.818272 
L 313.162937 -102.739842 
L 306.705207 -102.537678 
L 300.247476 -102.75554 
L 293.789746 -103.178301 
L 287.332015 -103.39632 
L 280.874285 -103.880088 
L 274.416554 -103.926924 
L 267.958824 -103.787279 
L 261.501093 -104.016063 
L 255.043363 -104.15474 
L 248.585632 -104.013012 
L 242.127902 -104.239366 
L 235.670171 -104.503231 
L 229.212441 -104.142635 
L 222.75471 -104.708453 
L 216.29698 -105.074762 
L 209.839249 -105.310454 
L 203.381519 -105.225754 
L 196.923788 -105.75917 
L 190.466058 -106.001937 
L 184.008327 -106.034373 
L 177.550597 -106.463049 
L 171.092866 -106.421549 
L 164.635136 -107.083752 
L 158.177406 -107.129587 
L 151.719675 -107.400813 
L 145.261945 -107.610967 
L 138.804214 -108.091688 
L 132.346484 -109.184553 
L 125.888753 -109.506044 
L 119.431023 -110.277727 
L 112.973292 -111.296658 
L 106.515562 -112.38361 
L 100.057831 -112.655878 
L 93.600101 -114.674899 
L 87.14237 -118.472361 
L 80.68464 -122.973938 
z
" style="stroke: #595c79; stroke-opacity: 0.15; stroke-width: 2.5"/>
    </defs>
    <g clip-path="url(#p58099b6266)">
     <use xlink:href="#m30c78e0bc3" x="0" y="348.48" style="fill: #595c79; fill-opacity: 0.15; stroke: #595c79; stroke-opacity: 0.15; stroke-width: 2.5"/>
    </g>
   </g>
   <g id="PolyCollection_6">
    <defs>
     <path id="m55ea94e6f4" d="M 80.68464 -123.319911 
L 80.68464 -114.865851 
L 87.14237 -107.035993 
L 93.600101 -98.028709 
L 100.057831 -89.389202 
L 106.515562 -85.401595 
L 112.973292 -82.581383 
L 119.431023 -80.428404 
L 125.888753 -80.964527 
L 132.346484 -78.603082 
L 138.804214 -76.766452 
L 145.261945 -75.937598 
L 151.719675 -73.468751 
L 158.177406 -72.863952 
L 164.635136 -73.841915 
L 171.092866 -73.135002 
L 177.550597 -71.087053 
L 184.008327 -71.748584 
L 190.466058 -70.83212 
L 196.923788 -72.582255 
L 203.381519 -71.0897 
L 209.839249 -71.282721 
L 216.29698 -71.273892 
L 222.75471 -72.766734 
L 229.212441 -72.134056 
L 235.670171 -69.9101 
L 242.127902 -72.812981 
L 248.585632 -73.694882 
L 255.043363 -71.417097 
L 261.501093 -73.372318 
L 267.958824 -71.346828 
L 274.416554 -73.282984 
L 280.874285 -73.025042 
L 287.332015 -72.484536 
L 293.789746 -73.988516 
L 300.247476 -74.057551 
L 306.705207 -73.169741 
L 313.162937 -73.90535 
L 319.620668 -76.011909 
L 326.078398 -77.247304 
L 332.536129 -76.49569 
L 338.993859 -74.001124 
L 345.45159 -75.799584 
L 351.90932 -74.995272 
L 358.367051 -77.983323 
L 364.824781 -77.560022 
L 371.282512 -79.355989 
L 377.740242 -79.379365 
L 384.197973 -80.576227 
L 390.655703 -78.514647 
L 397.113433 -79.967667 
L 397.113433 -98.209406 
L 397.113433 -98.209406 
L 390.655703 -96.405216 
L 384.197973 -97.793613 
L 377.740242 -97.550834 
L 371.282512 -97.879539 
L 364.824781 -96.908718 
L 358.367051 -97.44519 
L 351.90932 -97.082469 
L 345.45159 -97.326843 
L 338.993859 -99.354883 
L 332.536129 -98.37241 
L 326.078398 -98.978846 
L 319.620668 -98.696438 
L 313.162937 -98.684466 
L 306.705207 -99.370267 
L 300.247476 -100.073353 
L 293.789746 -99.413389 
L 287.332015 -100.08371 
L 280.874285 -100.511354 
L 274.416554 -99.852204 
L 267.958824 -100.23239 
L 261.501093 -101.109087 
L 255.043363 -100.84941 
L 248.585632 -101.344973 
L 242.127902 -101.436274 
L 235.670171 -101.488771 
L 229.212441 -100.995752 
L 222.75471 -101.874738 
L 216.29698 -101.837577 
L 209.839249 -103.121981 
L 203.381519 -103.390446 
L 196.923788 -103.271924 
L 190.466058 -103.584319 
L 184.008327 -102.826111 
L 177.550597 -103.700212 
L 171.092866 -103.341917 
L 164.635136 -103.860783 
L 158.177406 -104.396026 
L 151.719675 -104.422594 
L 145.261945 -104.525986 
L 138.804214 -105.254104 
L 132.346484 -106.108996 
L 125.888753 -106.624273 
L 119.431023 -107.280658 
L 112.973292 -107.925182 
L 106.515562 -109.072194 
L 100.057831 -110.764419 
L 93.600101 -112.445516 
L 87.14237 -117.635488 
L 80.68464 -123.319911 
z
" style="stroke: #7f909f; stroke-opacity: 0.15; stroke-width: 2.5"/>
    </defs>
    <g clip-path="url(#p58099b6266)">
     <use xlink:href="#m55ea94e6f4" x="0" y="348.48" style="fill: #7f909f; fill-opacity: 0.15; stroke: #7f909f; stroke-opacity: 0.15; stroke-width: 2.5"/>
    </g>
   </g>
   <g id="PolyCollection_7">
    <defs>
     <path id="m5ca3dd1fae" d="M 80.68464 -121.9509 
L 80.68464 -114.311851 
L 87.14237 -107.082368 
L 93.600101 -93.661463 
L 100.057831 -84.170501 
L 106.515562 -84.021574 
L 112.973292 -87.654435 
L 119.431023 -80.364113 
L 125.888753 -78.578001 
L 132.346484 -75.695035 
L 138.804214 -77.260476 
L 145.261945 -83.514754 
L 151.719675 -74.382178 
L 158.177406 -70.760637 
L 164.635136 -76.742874 
L 171.092866 -76.358021 
L 177.550597 -71.412679 
L 184.008327 -68.671394 
L 190.466058 -73.798275 
L 196.923788 -72.499239 
L 203.381519 -71.550106 
L 209.839249 -71.173382 
L 216.29698 -73.388737 
L 222.75471 -72.535347 
L 229.212441 -67.350464 
L 235.670171 -70.712767 
L 242.127902 -70.330394 
L 248.585632 -77.039594 
L 255.043363 -75.434123 
L 261.501093 -78.257665 
L 267.958824 -71.285876 
L 274.416554 -72.122338 
L 280.874285 -71.710613 
L 287.332015 -71.075507 
L 293.789746 -71.434715 
L 300.247476 -70.101817 
L 306.705207 -67.708357 
L 313.162937 -74.684282 
L 319.620668 -68.857179 
L 326.078398 -74.384723 
L 332.536129 -73.313719 
L 338.993859 -74.4169 
L 345.45159 -74.52876 
L 351.90932 -75.826946 
L 358.367051 -75.249616 
L 364.824781 -80.277388 
L 371.282512 -78.032052 
L 377.740242 -78.998735 
L 384.197973 -77.973718 
L 390.655703 -76.321194 
L 397.113433 -78.678402 
L 397.113433 -92.808434 
L 397.113433 -92.808434 
L 390.655703 -95.206616 
L 384.197973 -94.892013 
L 377.740242 -95.023294 
L 371.282512 -93.449152 
L 364.824781 -94.141818 
L 358.367051 -94.605539 
L 351.90932 -95.323975 
L 345.45159 -95.307447 
L 338.993859 -94.604906 
L 332.536129 -95.184237 
L 326.078398 -95.842664 
L 319.620668 -95.313699 
L 313.162937 -96.961604 
L 306.705207 -97.32858 
L 300.247476 -95.68949 
L 293.789746 -95.960819 
L 287.332015 -96.109785 
L 280.874285 -96.933277 
L 274.416554 -96.067554 
L 267.958824 -97.18182 
L 261.501093 -95.126895 
L 255.043363 -96.087147 
L 248.585632 -97.589533 
L 242.127902 -97.546969 
L 235.670171 -98.439306 
L 229.212441 -97.371515 
L 222.75471 -96.832535 
L 216.29698 -97.411594 
L 209.839249 -97.247293 
L 203.381519 -97.924153 
L 196.923788 -98.923721 
L 190.466058 -98.374165 
L 184.008327 -100.00586 
L 177.550597 -101.204789 
L 171.092866 -100.535559 
L 164.635136 -100.489288 
L 158.177406 -99.138735 
L 151.719675 -100.018154 
L 145.261945 -102.393382 
L 138.804214 -103.283224 
L 132.346484 -101.375243 
L 125.888753 -103.437078 
L 119.431023 -103.799419 
L 112.973292 -105.970347 
L 106.515562 -105.816542 
L 100.057831 -107.326575 
L 93.600101 -109.463836 
L 87.14237 -115.70358 
L 80.68464 -121.9509 
z
" style="stroke: #a4c2c3; stroke-opacity: 0.15; stroke-width: 2.5"/>
    </defs>
    <g clip-path="url(#p58099b6266)">
     <use xlink:href="#m5ca3dd1fae" x="0" y="348.48" style="fill: #a4c2c3; fill-opacity: 0.15; stroke: #a4c2c3; stroke-opacity: 0.15; stroke-width: 2.5"/>
    </g>
   </g>
   <g id="PolyCollection_8">
    <defs>
     <path id="m1a4cb0a7aa" d="M 80.68464 -117.531367 
L 80.68464 -102.870596 
L 87.14237 -95.834217 
L 93.600101 -90.486021 
L 100.057831 -83.647483 
L 106.515562 -80.823035 
L 112.973292 -82.959469 
L 119.431023 -79.391559 
L 125.888753 -81.150439 
L 132.346484 -76.21373 
L 138.804214 -80.251137 
L 145.261945 -80.240949 
L 151.719675 -82.225534 
L 158.177406 -86.034122 
L 164.635136 -81.350062 
L 171.092866 -82.093931 
L 177.550597 -85.794896 
L 184.008327 -87.309595 
L 190.466058 -86.417362 
L 196.923788 -88.865207 
L 203.381519 -86.456596 
L 209.839249 -86.012426 
L 216.29698 -87.225484 
L 222.75471 -86.642673 
L 229.212441 -87.980158 
L 235.670171 -92.954258 
L 242.127902 -88.764793 
L 248.585632 -90.085862 
L 255.043363 -92.767366 
L 261.501093 -92.575543 
L 267.958824 -91.272531 
L 274.416554 -91.442188 
L 280.874285 -93.23201 
L 287.332015 -89.243247 
L 293.789746 -92.437072 
L 300.247476 -91.463221 
L 306.705207 -91.939696 
L 313.162937 -91.392924 
L 319.620668 -91.218598 
L 326.078398 -91.332073 
L 332.536129 -91.580073 
L 338.993859 -93.023948 
L 345.45159 -91.411734 
L 351.90932 -93.050495 
L 358.367051 -92.43491 
L 364.824781 -94.093813 
L 371.282512 -92.690479 
L 377.740242 -93.061199 
L 384.197973 -92.022195 
L 390.655703 -90.981371 
L 397.113433 -93.088011 
L 397.113433 -97.84019 
L 397.113433 -97.84019 
L 390.655703 -97.36577 
L 384.197973 -98.322035 
L 377.740242 -94.177604 
L 371.282512 -98.091259 
L 364.824781 -98.913612 
L 358.367051 -101.424377 
L 351.90932 -95.945319 
L 345.45159 -98.666316 
L 338.993859 -93.639994 
L 332.536129 -97.815545 
L 326.078398 -93.925124 
L 319.620668 -91.969898 
L 313.162937 -91.902408 
L 306.705207 -96.628353 
L 300.247476 -91.777992 
L 293.789746 -93.387342 
L 287.332015 -93.879732 
L 280.874285 -94.451256 
L 274.416554 -92.741128 
L 267.958824 -93.613131 
L 261.501093 -93.731216 
L 255.043363 -92.851551 
L 248.585632 -93.819203 
L 242.127902 -94.865383 
L 235.670171 -93.974422 
L 229.212441 -95.614065 
L 222.75471 -92.822385 
L 216.29698 -95.24273 
L 209.839249 -96.322349 
L 203.381519 -97.112462 
L 196.923788 -95.758677 
L 190.466058 -98.100544 
L 184.008327 -98.184746 
L 177.550597 -98.982735 
L 171.092866 -99.221271 
L 164.635136 -100.611857 
L 158.177406 -101.15513 
L 151.719675 -101.795986 
L 145.261945 -102.01004 
L 138.804214 -100.905621 
L 132.346484 -102.069759 
L 125.888753 -103.837043 
L 119.431023 -103.761975 
L 112.973292 -104.527008 
L 106.515562 -104.849182 
L 100.057831 -104.890723 
L 93.600101 -108.898797 
L 87.14237 -112.80935 
L 80.68464 -117.531367 
z
" style="stroke: #dde9e9; stroke-opacity: 0.15; stroke-width: 2.5"/>
    </defs>
    <g clip-path="url(#p58099b6266)">
     <use xlink:href="#m1a4cb0a7aa" x="0" y="348.48" style="fill: #dde9e9; fill-opacity: 0.15; stroke: #dde9e9; stroke-opacity: 0.15; stroke-width: 2.5"/>
    </g>
   </g>
   <g id="matplotlib.axis_1">
    <g id="xtick_1">
     <g id="line2d_1">
      <defs>
       <path id="m0532448dda" d="M 0 0 
L 0 8 
" style="stroke: #000000; stroke-width: 2"/>
      </defs>
      <g>
       <use xlink:href="#m0532448dda" x="80.68464" y="294.1738" style="stroke: #000000; stroke-width: 2"/>
      </g>
     </g>
     <g id="text_1">
      <!-- 0 -->
      <g transform="translate(75.87999 318.0425)scale(0.1728 -0.1728)">
       <defs>
        <path id="ArialMT-30" d="M 266 2259 
Q 266 3072 433 3567 
Q 600 4063 929 4331 
Q 1259 4600 1759 4600 
Q 2128 4600 2406 4451 
Q 2684 4303 2865 4023 
Q 3047 3744 3150 3342 
Q 3253 2941 3253 2259 
Q 3253 1453 3087 958 
Q 2922 463 2592 192 
Q 2263 -78 1759 -78 
Q 1097 -78 719 397 
Q 266 969 266 2259 
z
M 844 2259 
Q 844 1131 1108 757 
Q 1372 384 1759 384 
Q 2147 384 2411 759 
Q 2675 1134 2675 2259 
Q 2675 3391 2411 3762 
Q 2147 4134 1753 4134 
Q 1366 4134 1134 3806 
Q 844 3388 844 2259 
z
" transform="scale(0.015625)"/>
       </defs>
       <use xlink:href="#ArialMT-30"/>
      </g>
     </g>
    </g>
    <g id="xtick_2">
     <g id="line2d_2">
      <g>
       <use xlink:href="#m0532448dda" x="145.261945" y="294.1738" style="stroke: #000000; stroke-width: 2"/>
      </g>
     </g>
     <g id="text_2">
      <!-- 10 -->
      <g transform="translate(135.652645 318.0425)scale(0.1728 -0.1728)">
       <defs>
        <path id="ArialMT-31" d="M 2384 0 
L 1822 0 
L 1822 3584 
Q 1619 3391 1289 3197 
Q 959 3003 697 2906 
L 697 3450 
Q 1169 3672 1522 3987 
Q 1875 4303 2022 4600 
L 2384 4600 
L 2384 0 
z
" transform="scale(0.015625)"/>
       </defs>
       <use xlink:href="#ArialMT-31"/>
       <use xlink:href="#ArialMT-30" x="55.615234"/>
      </g>
     </g>
    </g>
    <g id="xtick_3">
     <g id="line2d_3">
      <g>
       <use xlink:href="#m0532448dda" x="209.839249" y="294.1738" style="stroke: #000000; stroke-width: 2"/>
      </g>
     </g>
     <g id="text_3">
      <!-- 20 -->
      <g transform="translate(200.229949 318.0425)scale(0.1728 -0.1728)">
       <defs>
        <path id="ArialMT-32" d="M 3222 541 
L 3222 0 
L 194 0 
Q 188 203 259 391 
Q 375 700 629 1000 
Q 884 1300 1366 1694 
Q 2113 2306 2375 2664 
Q 2638 3022 2638 3341 
Q 2638 3675 2398 3904 
Q 2159 4134 1775 4134 
Q 1369 4134 1125 3890 
Q 881 3647 878 3216 
L 300 3275 
Q 359 3922 746 4261 
Q 1134 4600 1788 4600 
Q 2447 4600 2831 4234 
Q 3216 3869 3216 3328 
Q 3216 3053 3103 2787 
Q 2991 2522 2730 2228 
Q 2469 1934 1863 1422 
Q 1356 997 1212 845 
Q 1069 694 975 541 
L 3222 541 
z
" transform="scale(0.015625)"/>
       </defs>
       <use xlink:href="#ArialMT-32"/>
       <use xlink:href="#ArialMT-30" x="55.615234"/>
      </g>
     </g>
    </g>
    <g id="xtick_4">
     <g id="line2d_4">
      <g>
       <use xlink:href="#m0532448dda" x="274.416554" y="294.1738" style="stroke: #000000; stroke-width: 2"/>
      </g>
     </g>
     <g id="text_4">
      <!-- 30 -->
      <g transform="translate(264.807254 318.0425)scale(0.1728 -0.1728)">
       <defs>
        <path id="ArialMT-33" d="M 269 1209 
L 831 1284 
Q 928 806 1161 595 
Q 1394 384 1728 384 
Q 2125 384 2398 659 
Q 2672 934 2672 1341 
Q 2672 1728 2419 1979 
Q 2166 2231 1775 2231 
Q 1616 2231 1378 2169 
L 1441 2663 
Q 1497 2656 1531 2656 
Q 1891 2656 2178 2843 
Q 2466 3031 2466 3422 
Q 2466 3731 2256 3934 
Q 2047 4138 1716 4138 
Q 1388 4138 1169 3931 
Q 950 3725 888 3313 
L 325 3413 
Q 428 3978 793 4289 
Q 1159 4600 1703 4600 
Q 2078 4600 2393 4439 
Q 2709 4278 2876 4000 
Q 3044 3722 3044 3409 
Q 3044 3113 2884 2869 
Q 2725 2625 2413 2481 
Q 2819 2388 3044 2092 
Q 3269 1797 3269 1353 
Q 3269 753 2831 336 
Q 2394 -81 1725 -81 
Q 1122 -81 723 278 
Q 325 638 269 1209 
z
" transform="scale(0.015625)"/>
       </defs>
       <use xlink:href="#ArialMT-33"/>
       <use xlink:href="#ArialMT-30" x="55.615234"/>
      </g>
     </g>
    </g>
    <g id="xtick_5">
     <g id="line2d_5">
      <g>
       <use xlink:href="#m0532448dda" x="338.993859" y="294.1738" style="stroke: #000000; stroke-width: 2"/>
      </g>
     </g>
     <g id="text_5">
      <!-- 40 -->
      <g transform="translate(329.384559 318.0425)scale(0.1728 -0.1728)">
       <defs>
        <path id="ArialMT-34" d="M 2069 0 
L 2069 1097 
L 81 1097 
L 81 1613 
L 2172 4581 
L 2631 4581 
L 2631 1613 
L 3250 1613 
L 3250 1097 
L 2631 1097 
L 2631 0 
L 2069 0 
z
M 2069 1613 
L 2069 3678 
L 634 1613 
L 2069 1613 
z
" transform="scale(0.015625)"/>
       </defs>
       <use xlink:href="#ArialMT-34"/>
       <use xlink:href="#ArialMT-30" x="55.615234"/>
      </g>
     </g>
    </g>
    <g id="xtick_6">
     <g id="line2d_6">
      <g>
       <use xlink:href="#m0532448dda" x="403.571164" y="294.1738" style="stroke: #000000; stroke-width: 2"/>
      </g>
     </g>
     <g id="text_6">
      <!-- 50 -->
      <g transform="translate(393.961864 318.0425)scale(0.1728 -0.1728)">
       <defs>
        <path id="ArialMT-35" d="M 266 1200 
L 856 1250 
Q 922 819 1161 601 
Q 1400 384 1738 384 
Q 2144 384 2425 690 
Q 2706 997 2706 1503 
Q 2706 1984 2436 2262 
Q 2166 2541 1728 2541 
Q 1456 2541 1237 2417 
Q 1019 2294 894 2097 
L 366 2166 
L 809 4519 
L 3088 4519 
L 3088 3981 
L 1259 3981 
L 1013 2750 
Q 1425 3038 1878 3038 
Q 2478 3038 2890 2622 
Q 3303 2206 3303 1553 
Q 3303 931 2941 478 
Q 2500 -78 1738 -78 
Q 1113 -78 717 272 
Q 322 622 266 1200 
z
" transform="scale(0.015625)"/>
       </defs>
       <use xlink:href="#ArialMT-35"/>
       <use xlink:href="#ArialMT-30" x="55.615234"/>
      </g>
     </g>
    </g>
    <g id="text_7">
     <!-- Epoch -->
     <g transform="translate(214.401937 337.8456)scale(0.1728 -0.1728)">
      <defs>
       <path id="ArialMT-45" d="M 506 0 
L 506 4581 
L 3819 4581 
L 3819 4041 
L 1113 4041 
L 1113 2638 
L 3647 2638 
L 3647 2100 
L 1113 2100 
L 1113 541 
L 3925 541 
L 3925 0 
L 506 0 
z
" transform="scale(0.015625)"/>
       <path id="ArialMT-70" d="M 422 -1272 
L 422 3319 
L 934 3319 
L 934 2888 
Q 1116 3141 1344 3267 
Q 1572 3394 1897 3394 
Q 2322 3394 2647 3175 
Q 2972 2956 3137 2557 
Q 3303 2159 3303 1684 
Q 3303 1175 3120 767 
Q 2938 359 2589 142 
Q 2241 -75 1856 -75 
Q 1575 -75 1351 44 
Q 1128 163 984 344 
L 984 -1272 
L 422 -1272 
z
M 931 1641 
Q 931 1000 1190 694 
Q 1450 388 1819 388 
Q 2194 388 2461 705 
Q 2728 1022 2728 1688 
Q 2728 2322 2467 2637 
Q 2206 2953 1844 2953 
Q 1484 2953 1207 2617 
Q 931 2281 931 1641 
z
" transform="scale(0.015625)"/>
       <path id="ArialMT-6f" d="M 213 1659 
Q 213 2581 725 3025 
Q 1153 3394 1769 3394 
Q 2453 3394 2887 2945 
Q 3322 2497 3322 1706 
Q 3322 1066 3130 698 
Q 2938 331 2570 128 
Q 2203 -75 1769 -75 
Q 1072 -75 642 372 
Q 213 819 213 1659 
z
M 791 1659 
Q 791 1022 1069 705 
Q 1347 388 1769 388 
Q 2188 388 2466 706 
Q 2744 1025 2744 1678 
Q 2744 2294 2464 2611 
Q 2184 2928 1769 2928 
Q 1347 2928 1069 2612 
Q 791 2297 791 1659 
z
" transform="scale(0.015625)"/>
       <path id="ArialMT-63" d="M 2588 1216 
L 3141 1144 
Q 3050 572 2676 248 
Q 2303 -75 1759 -75 
Q 1078 -75 664 370 
Q 250 816 250 1647 
Q 250 2184 428 2587 
Q 606 2991 970 3192 
Q 1334 3394 1763 3394 
Q 2303 3394 2647 3120 
Q 2991 2847 3088 2344 
L 2541 2259 
Q 2463 2594 2264 2762 
Q 2066 2931 1784 2931 
Q 1359 2931 1093 2626 
Q 828 2322 828 1663 
Q 828 994 1084 691 
Q 1341 388 1753 388 
Q 2084 388 2306 591 
Q 2528 794 2588 1216 
z
" transform="scale(0.015625)"/>
       <path id="ArialMT-68" d="M 422 0 
L 422 4581 
L 984 4581 
L 984 2938 
Q 1378 3394 1978 3394 
Q 2347 3394 2619 3248 
Q 2891 3103 3008 2847 
Q 3125 2591 3125 2103 
L 3125 0 
L 2563 0 
L 2563 2103 
Q 2563 2525 2380 2717 
Q 2197 2909 1863 2909 
Q 1613 2909 1392 2779 
Q 1172 2650 1078 2428 
Q 984 2206 984 1816 
L 984 0 
L 422 0 
z
" transform="scale(0.015625)"/>
      </defs>
      <use xlink:href="#ArialMT-45"/>
      <use xlink:href="#ArialMT-70" x="66.699219"/>
      <use xlink:href="#ArialMT-6f" x="122.314453"/>
      <use xlink:href="#ArialMT-63" x="177.929688"/>
      <use xlink:href="#ArialMT-68" x="227.929688"/>
     </g>
    </g>
   </g>
   <g id="matplotlib.axis_2">
    <g id="ytick_1">
     <g id="line2d_7">
      <defs>
       <path id="mafc29879e6" d="M 0 0 
L -8 0 
" style="stroke: #000000; stroke-width: 2"/>
      </defs>
      <g>
       <use xlink:href="#mafc29879e6" x="64.8632" y="254.35293" style="stroke: #000000; stroke-width: 2"/>
      </g>
     </g>
     <g id="text_8">
      <!-- 0.2 -->
      <g transform="translate(29.344 260.53728)scale(0.1728 -0.1728)">
       <defs>
        <path id="ArialMT-2e" d="M 581 0 
L 581 641 
L 1222 641 
L 1222 0 
L 581 0 
z
" transform="scale(0.015625)"/>
       </defs>
       <use xlink:href="#ArialMT-30"/>
       <use xlink:href="#ArialMT-2e" x="55.615234"/>
       <use xlink:href="#ArialMT-32" x="83.398438"/>
      </g>
     </g>
    </g>
    <g id="ytick_2">
     <g id="line2d_8">
      <g>
       <use xlink:href="#mafc29879e6" x="64.8632" y="195.824301" style="stroke: #000000; stroke-width: 2"/>
      </g>
     </g>
     <g id="text_9">
      <!-- 0.4 -->
      <g transform="translate(29.344 202.008651)scale(0.1728 -0.1728)">
       <use xlink:href="#ArialMT-30"/>
       <use xlink:href="#ArialMT-2e" x="55.615234"/>
       <use xlink:href="#ArialMT-34" x="83.398438"/>
      </g>
     </g>
    </g>
    <g id="ytick_3">
     <g id="line2d_9">
      <g>
       <use xlink:href="#mafc29879e6" x="64.8632" y="137.295673" style="stroke: #000000; stroke-width: 2"/>
      </g>
     </g>
     <g id="text_10">
      <!-- 0.6 -->
      <g transform="translate(29.344 143.480023)scale(0.1728 -0.1728)">
       <defs>
        <path id="ArialMT-36" d="M 3184 3459 
L 2625 3416 
Q 2550 3747 2413 3897 
Q 2184 4138 1850 4138 
Q 1581 4138 1378 3988 
Q 1113 3794 959 3422 
Q 806 3050 800 2363 
Q 1003 2672 1297 2822 
Q 1591 2972 1913 2972 
Q 2475 2972 2870 2558 
Q 3266 2144 3266 1488 
Q 3266 1056 3080 686 
Q 2894 316 2569 119 
Q 2244 -78 1831 -78 
Q 1128 -78 684 439 
Q 241 956 241 2144 
Q 241 3472 731 4075 
Q 1159 4600 1884 4600 
Q 2425 4600 2770 4297 
Q 3116 3994 3184 3459 
z
M 888 1484 
Q 888 1194 1011 928 
Q 1134 663 1356 523 
Q 1578 384 1822 384 
Q 2178 384 2434 671 
Q 2691 959 2691 1453 
Q 2691 1928 2437 2201 
Q 2184 2475 1800 2475 
Q 1419 2475 1153 2201 
Q 888 1928 888 1484 
z
" transform="scale(0.015625)"/>
       </defs>
       <use xlink:href="#ArialMT-30"/>
       <use xlink:href="#ArialMT-2e" x="55.615234"/>
       <use xlink:href="#ArialMT-36" x="83.398438"/>
      </g>
     </g>
    </g>
    <g id="ytick_4">
     <g id="line2d_10">
      <g>
       <use xlink:href="#mafc29879e6" x="64.8632" y="78.767044" style="stroke: #000000; stroke-width: 2"/>
      </g>
     </g>
     <g id="text_11">
      <!-- 0.8 -->
      <g transform="translate(29.344 84.951394)scale(0.1728 -0.1728)">
       <defs>
        <path id="ArialMT-38" d="M 1131 2484 
Q 781 2613 612 2850 
Q 444 3088 444 3419 
Q 444 3919 803 4259 
Q 1163 4600 1759 4600 
Q 2359 4600 2725 4251 
Q 3091 3903 3091 3403 
Q 3091 3084 2923 2848 
Q 2756 2613 2416 2484 
Q 2838 2347 3058 2040 
Q 3278 1734 3278 1309 
Q 3278 722 2862 322 
Q 2447 -78 1769 -78 
Q 1091 -78 675 323 
Q 259 725 259 1325 
Q 259 1772 486 2073 
Q 713 2375 1131 2484 
z
M 1019 3438 
Q 1019 3113 1228 2906 
Q 1438 2700 1772 2700 
Q 2097 2700 2305 2904 
Q 2513 3109 2513 3406 
Q 2513 3716 2298 3927 
Q 2084 4138 1766 4138 
Q 1444 4138 1231 3931 
Q 1019 3725 1019 3438 
z
M 838 1322 
Q 838 1081 952 856 
Q 1066 631 1291 507 
Q 1516 384 1775 384 
Q 2178 384 2440 643 
Q 2703 903 2703 1303 
Q 2703 1709 2433 1975 
Q 2163 2241 1756 2241 
Q 1359 2241 1098 1978 
Q 838 1716 838 1322 
z
" transform="scale(0.015625)"/>
       </defs>
       <use xlink:href="#ArialMT-30"/>
       <use xlink:href="#ArialMT-2e" x="55.615234"/>
       <use xlink:href="#ArialMT-38" x="83.398438"/>
      </g>
     </g>
    </g>
    <g id="ytick_5">
     <g id="line2d_11">
      <g>
       <use xlink:href="#mafc29879e6" x="64.8632" y="20.238416" style="stroke: #000000; stroke-width: 2"/>
      </g>
     </g>
     <g id="text_12">
      <!-- 1.0 -->
      <g transform="translate(29.344 26.422766)scale(0.1728 -0.1728)">
       <use xlink:href="#ArialMT-31"/>
       <use xlink:href="#ArialMT-2e" x="55.615234"/>
       <use xlink:href="#ArialMT-30" x="83.398438"/>
      </g>
     </g>
    </g>
    <g id="text_13">
     <!-- Cosine Similarity \wrt LN$^+$ -->
     <g transform="translate(21.5424 252.5525)rotate(-90)scale(0.1728 -0.1728)">
      <defs>
       <path id="ArialMT-43" d="M 3763 1606 
L 4369 1453 
Q 4178 706 3683 314 
Q 3188 -78 2472 -78 
Q 1731 -78 1267 223 
Q 803 525 561 1097 
Q 319 1669 319 2325 
Q 319 3041 592 3573 
Q 866 4106 1370 4382 
Q 1875 4659 2481 4659 
Q 3169 4659 3637 4309 
Q 4106 3959 4291 3325 
L 3694 3184 
Q 3534 3684 3231 3912 
Q 2928 4141 2469 4141 
Q 1941 4141 1586 3887 
Q 1231 3634 1087 3207 
Q 944 2781 944 2328 
Q 944 1744 1114 1308 
Q 1284 872 1643 656 
Q 2003 441 2422 441 
Q 2931 441 3284 734 
Q 3638 1028 3763 1606 
z
" transform="scale(0.015625)"/>
       <path id="ArialMT-73" d="M 197 991 
L 753 1078 
Q 800 744 1014 566 
Q 1228 388 1613 388 
Q 2000 388 2187 545 
Q 2375 703 2375 916 
Q 2375 1106 2209 1216 
Q 2094 1291 1634 1406 
Q 1016 1563 777 1677 
Q 538 1791 414 1992 
Q 291 2194 291 2438 
Q 291 2659 392 2848 
Q 494 3038 669 3163 
Q 800 3259 1026 3326 
Q 1253 3394 1513 3394 
Q 1903 3394 2198 3281 
Q 2494 3169 2634 2976 
Q 2775 2784 2828 2463 
L 2278 2388 
Q 2241 2644 2061 2787 
Q 1881 2931 1553 2931 
Q 1166 2931 1000 2803 
Q 834 2675 834 2503 
Q 834 2394 903 2306 
Q 972 2216 1119 2156 
Q 1203 2125 1616 2013 
Q 2213 1853 2448 1751 
Q 2684 1650 2818 1456 
Q 2953 1263 2953 975 
Q 2953 694 2789 445 
Q 2625 197 2315 61 
Q 2006 -75 1616 -75 
Q 969 -75 630 194 
Q 291 463 197 991 
z
" transform="scale(0.015625)"/>
       <path id="ArialMT-69" d="M 425 3934 
L 425 4581 
L 988 4581 
L 988 3934 
L 425 3934 
z
M 425 0 
L 425 3319 
L 988 3319 
L 988 0 
L 425 0 
z
" transform="scale(0.015625)"/>
       <path id="ArialMT-6e" d="M 422 0 
L 422 3319 
L 928 3319 
L 928 2847 
Q 1294 3394 1984 3394 
Q 2284 3394 2536 3286 
Q 2788 3178 2913 3003 
Q 3038 2828 3088 2588 
Q 3119 2431 3119 2041 
L 3119 0 
L 2556 0 
L 2556 2019 
Q 2556 2363 2490 2533 
Q 2425 2703 2258 2804 
Q 2091 2906 1866 2906 
Q 1506 2906 1245 2678 
Q 984 2450 984 1813 
L 984 0 
L 422 0 
z
" transform="scale(0.015625)"/>
       <path id="ArialMT-65" d="M 2694 1069 
L 3275 997 
Q 3138 488 2766 206 
Q 2394 -75 1816 -75 
Q 1088 -75 661 373 
Q 234 822 234 1631 
Q 234 2469 665 2931 
Q 1097 3394 1784 3394 
Q 2450 3394 2872 2941 
Q 3294 2488 3294 1666 
Q 3294 1616 3291 1516 
L 816 1516 
Q 847 969 1125 678 
Q 1403 388 1819 388 
Q 2128 388 2347 550 
Q 2566 713 2694 1069 
z
M 847 1978 
L 2700 1978 
Q 2663 2397 2488 2606 
Q 2219 2931 1791 2931 
Q 1403 2931 1139 2672 
Q 875 2413 847 1978 
z
" transform="scale(0.015625)"/>
       <path id="ArialMT-20" transform="scale(0.015625)"/>
       <path id="ArialMT-53" d="M 288 1472 
L 859 1522 
Q 900 1178 1048 958 
Q 1197 738 1509 602 
Q 1822 466 2213 466 
Q 2559 466 2825 569 
Q 3091 672 3220 851 
Q 3350 1031 3350 1244 
Q 3350 1459 3225 1620 
Q 3100 1781 2813 1891 
Q 2628 1963 1997 2114 
Q 1366 2266 1113 2400 
Q 784 2572 623 2826 
Q 463 3081 463 3397 
Q 463 3744 659 4045 
Q 856 4347 1234 4503 
Q 1613 4659 2075 4659 
Q 2584 4659 2973 4495 
Q 3363 4331 3572 4012 
Q 3781 3694 3797 3291 
L 3216 3247 
Q 3169 3681 2898 3903 
Q 2628 4125 2100 4125 
Q 1550 4125 1298 3923 
Q 1047 3722 1047 3438 
Q 1047 3191 1225 3031 
Q 1400 2872 2139 2705 
Q 2878 2538 3153 2413 
Q 3553 2228 3743 1945 
Q 3934 1663 3934 1294 
Q 3934 928 3725 604 
Q 3516 281 3123 101 
Q 2731 -78 2241 -78 
Q 1619 -78 1198 103 
Q 778 284 539 648 
Q 300 1013 288 1472 
z
" transform="scale(0.015625)"/>
       <path id="ArialMT-6d" d="M 422 0 
L 422 3319 
L 925 3319 
L 925 2853 
Q 1081 3097 1340 3245 
Q 1600 3394 1931 3394 
Q 2300 3394 2536 3241 
Q 2772 3088 2869 2813 
Q 3263 3394 3894 3394 
Q 4388 3394 4653 3120 
Q 4919 2847 4919 2278 
L 4919 0 
L 4359 0 
L 4359 2091 
Q 4359 2428 4304 2576 
Q 4250 2725 4106 2815 
Q 3963 2906 3769 2906 
Q 3419 2906 3187 2673 
Q 2956 2441 2956 1928 
L 2956 0 
L 2394 0 
L 2394 2156 
Q 2394 2531 2256 2718 
Q 2119 2906 1806 2906 
Q 1569 2906 1367 2781 
Q 1166 2656 1075 2415 
Q 984 2175 984 1722 
L 984 0 
L 422 0 
z
" transform="scale(0.015625)"/>
       <path id="ArialMT-6c" d="M 409 0 
L 409 4581 
L 972 4581 
L 972 0 
L 409 0 
z
" transform="scale(0.015625)"/>
       <path id="ArialMT-61" d="M 2588 409 
Q 2275 144 1986 34 
Q 1697 -75 1366 -75 
Q 819 -75 525 192 
Q 231 459 231 875 
Q 231 1119 342 1320 
Q 453 1522 633 1644 
Q 813 1766 1038 1828 
Q 1203 1872 1538 1913 
Q 2219 1994 2541 2106 
Q 2544 2222 2544 2253 
Q 2544 2597 2384 2738 
Q 2169 2928 1744 2928 
Q 1347 2928 1158 2789 
Q 969 2650 878 2297 
L 328 2372 
Q 403 2725 575 2942 
Q 747 3159 1072 3276 
Q 1397 3394 1825 3394 
Q 2250 3394 2515 3294 
Q 2781 3194 2906 3042 
Q 3031 2891 3081 2659 
Q 3109 2516 3109 2141 
L 3109 1391 
Q 3109 606 3145 398 
Q 3181 191 3288 0 
L 2700 0 
Q 2613 175 2588 409 
z
M 2541 1666 
Q 2234 1541 1622 1453 
Q 1275 1403 1131 1340 
Q 988 1278 909 1158 
Q 831 1038 831 891 
Q 831 666 1001 516 
Q 1172 366 1500 366 
Q 1825 366 2078 508 
Q 2331 650 2450 897 
Q 2541 1088 2541 1459 
L 2541 1666 
z
" transform="scale(0.015625)"/>
       <path id="ArialMT-72" d="M 416 0 
L 416 3319 
L 922 3319 
L 922 2816 
Q 1116 3169 1280 3281 
Q 1444 3394 1641 3394 
Q 1925 3394 2219 3213 
L 2025 2691 
Q 1819 2813 1613 2813 
Q 1428 2813 1281 2702 
Q 1134 2591 1072 2394 
Q 978 2094 978 1738 
L 978 0 
L 416 0 
z
" transform="scale(0.015625)"/>
       <path id="ArialMT-74" d="M 1650 503 
L 1731 6 
Q 1494 -44 1306 -44 
Q 1000 -44 831 53 
Q 663 150 594 308 
Q 525 466 525 972 
L 525 2881 
L 113 2881 
L 113 3319 
L 525 3319 
L 525 4141 
L 1084 4478 
L 1084 3319 
L 1650 3319 
L 1650 2881 
L 1084 2881 
L 1084 941 
Q 1084 700 1114 631 
Q 1144 563 1211 522 
Q 1278 481 1403 481 
Q 1497 481 1650 503 
z
" transform="scale(0.015625)"/>
       <path id="ArialMT-79" d="M 397 -1278 
L 334 -750 
Q 519 -800 656 -800 
Q 844 -800 956 -737 
Q 1069 -675 1141 -563 
Q 1194 -478 1313 -144 
Q 1328 -97 1363 -6 
L 103 3319 
L 709 3319 
L 1400 1397 
Q 1534 1031 1641 628 
Q 1738 1016 1872 1384 
L 2581 3319 
L 3144 3319 
L 1881 -56 
Q 1678 -603 1566 -809 
Q 1416 -1088 1222 -1217 
Q 1028 -1347 759 -1347 
Q 597 -1347 397 -1278 
z
" transform="scale(0.015625)"/>
       <path id="ArialMT-5c" d="M 1328 -78 
L 0 4659 
L 453 4659 
L 1778 -78 
L 1328 -78 
z
" transform="scale(0.015625)"/>
       <path id="ArialMT-77" d="M 1034 0 
L 19 3319 
L 600 3319 
L 1128 1403 
L 1325 691 
Q 1338 744 1497 1375 
L 2025 3319 
L 2603 3319 
L 3100 1394 
L 3266 759 
L 3456 1400 
L 4025 3319 
L 4572 3319 
L 3534 0 
L 2950 0 
L 2422 1988 
L 2294 2553 
L 1622 0 
L 1034 0 
z
" transform="scale(0.015625)"/>
       <path id="ArialMT-4c" d="M 469 0 
L 469 4581 
L 1075 4581 
L 1075 541 
L 3331 541 
L 3331 0 
L 469 0 
z
" transform="scale(0.015625)"/>
       <path id="ArialMT-4e" d="M 488 0 
L 488 4581 
L 1109 4581 
L 3516 984 
L 3516 4581 
L 4097 4581 
L 4097 0 
L 3475 0 
L 1069 3600 
L 1069 0 
L 488 0 
z
" transform="scale(0.015625)"/>
       <path id="DejaVuSans-2b" d="M 2944 4013 
L 2944 2272 
L 4684 2272 
L 4684 1741 
L 2944 1741 
L 2944 0 
L 2419 0 
L 2419 1741 
L 678 1741 
L 678 2272 
L 2419 2272 
L 2419 4013 
L 2944 4013 
z
" transform="scale(0.015625)"/>
      </defs>
      <use xlink:href="#ArialMT-43" transform="translate(0 0.826562)"/>
      <use xlink:href="#ArialMT-6f" transform="translate(72.216797 0.826562)"/>
      <use xlink:href="#ArialMT-73" transform="translate(127.832031 0.826562)"/>
      <use xlink:href="#ArialMT-69" transform="translate(177.832031 0.826562)"/>
      <use xlink:href="#ArialMT-6e" transform="translate(200.048828 0.826562)"/>
      <use xlink:href="#ArialMT-65" transform="translate(255.664062 0.826562)"/>
      <use xlink:href="#ArialMT-20" transform="translate(311.279297 0.826562)"/>
      <use xlink:href="#ArialMT-53" transform="translate(339.0625 0.826562)"/>
      <use xlink:href="#ArialMT-69" transform="translate(405.761719 0.826562)"/>
      <use xlink:href="#ArialMT-6d" transform="translate(427.978516 0.826562)"/>
      <use xlink:href="#ArialMT-69" transform="translate(511.279297 0.826562)"/>
      <use xlink:href="#ArialMT-6c" transform="translate(533.496094 0.826562)"/>
      <use xlink:href="#ArialMT-61" transform="translate(555.712891 0.826562)"/>
      <use xlink:href="#ArialMT-72" transform="translate(611.328125 0.826562)"/>
      <use xlink:href="#ArialMT-69" transform="translate(644.628906 0.826562)"/>
      <use xlink:href="#ArialMT-74" transform="translate(666.845703 0.826562)"/>
      <use xlink:href="#ArialMT-79" transform="translate(694.628906 0.826562)"/>
      <use xlink:href="#ArialMT-20" transform="translate(744.628906 0.826562)"/>
      <use xlink:href="#ArialMT-5c" transform="translate(772.412109 0.826562)"/>
      <use xlink:href="#ArialMT-77" transform="translate(800.195312 0.826562)"/>
      <use xlink:href="#ArialMT-72" transform="translate(872.412109 0.826562)"/>
      <use xlink:href="#ArialMT-74" transform="translate(905.712891 0.826562)"/>
      <use xlink:href="#ArialMT-20" transform="translate(933.496094 0.826562)"/>
      <use xlink:href="#ArialMT-4c" transform="translate(961.279297 0.826562)"/>
      <use xlink:href="#ArialMT-4e" transform="translate(1016.894531 0.826562)"/>
      <use xlink:href="#DejaVuSans-2b" transform="translate(1103.706055 39.107812)scale(0.7)"/>
     </g>
    </g>
   </g>
   <g id="line2d_12">
    <path d="M 80.68464 20.436071 
L 87.14237 20.669192 
L 93.600101 20.764839 
L 100.057831 20.95923 
L 106.515562 22.253892 
L 112.973292 22.447733 
L 119.431023 22.589953 
L 125.888753 22.468638 
L 132.346484 22.46885 
L 138.804214 22.163038 
L 145.261945 22.310525 
L 151.719675 22.163544 
L 158.177406 21.920314 
L 164.635136 22.012591 
L 171.092866 21.699459 
L 177.550597 21.446119 
L 184.008327 21.271385 
L 190.466058 21.154922 
L 196.923788 21.00584 
L 203.381519 20.980379 
L 209.839249 20.925617 
L 216.29698 20.931832 
L 222.75471 20.961641 
L 229.212441 20.946672 
L 235.670171 20.945397 
L 242.127902 20.974668 
L 248.585632 21.022981 
L 255.043363 21.062059 
L 261.501093 21.12744 
L 267.958824 21.160218 
L 274.416554 21.215642 
L 280.874285 21.257029 
L 287.332015 21.305066 
L 293.789746 21.355483 
L 300.247476 21.375261 
L 306.705207 21.479871 
L 313.162937 21.635346 
L 319.620668 21.650659 
L 326.078398 21.756653 
L 332.536129 21.826447 
L 338.993859 21.923118 
L 345.45159 22.032438 
L 351.90932 22.16395 
L 358.367051 22.397457 
L 364.824781 22.519301 
L 371.282512 22.597401 
L 377.740242 22.77114 
L 384.197973 22.634193 
L 390.655703 23.138481 
L 397.113433 22.897256 
" clip-path="url(#p58099b6266)" style="fill: none; stroke: #595c79; stroke-width: 2.5; stroke-linecap: square"/>
   </g>
   <g id="line2d_13">
    <path d="M 80.68464 20.451819 
L 87.14237 20.814494 
L 93.600101 22.636048 
L 100.057831 22.797836 
L 106.515562 22.662356 
L 112.973292 22.733889 
L 119.431023 22.730581 
L 125.888753 22.469798 
L 132.346484 22.193385 
L 138.804214 22.093558 
L 145.261945 21.967723 
L 151.719675 21.560932 
L 158.177406 21.355798 
L 164.635136 21.092433 
L 171.092866 21.031881 
L 177.550597 21.140755 
L 184.008327 20.884054 
L 190.466058 20.919911 
L 196.923788 21.040747 
L 203.381519 20.91881 
L 209.839249 21.125947 
L 216.29698 21.2136 
L 222.75471 21.22262 
L 229.212441 21.221023 
L 235.670171 21.371745 
L 242.127902 21.175811 
L 248.585632 21.270936 
L 255.043363 21.394187 
L 261.501093 21.482584 
L 267.958824 21.593587 
L 274.416554 21.665343 
L 280.874285 21.887271 
L 287.332015 21.638371 
L 293.789746 22.032137 
L 300.247476 21.76485 
L 306.705207 22.1737 
L 313.162937 22.08221 
L 319.620668 22.07668 
L 326.078398 22.191979 
L 332.536129 22.41215 
L 338.993859 23.476432 
L 345.45159 22.596735 
L 351.90932 23.390858 
L 358.367051 22.903387 
L 364.824781 22.911422 
L 371.282512 23.030582 
L 377.740242 22.901048 
L 384.197973 23.077436 
L 390.655703 23.370464 
L 397.113433 23.641894 
" clip-path="url(#p58099b6266)" style="fill: none; stroke: #7f909f; stroke-width: 2.5; stroke-linecap: square"/>
   </g>
   <g id="line2d_14">
    <path d="M 80.68464 20.486111 
L 87.14237 22.15556 
L 93.600101 23.770141 
L 100.057831 23.222425 
L 106.515562 23.159281 
L 112.973292 22.932184 
L 119.431023 23.767962 
L 125.888753 23.345115 
L 132.346484 23.241759 
L 138.804214 24.942759 
L 145.261945 24.631166 
L 151.719675 23.55199 
L 158.177406 23.275254 
L 164.635136 22.757917 
L 171.092866 21.82776 
L 177.550597 21.7429 
L 184.008327 23.694737 
L 190.466058 23.697047 
L 196.923788 23.683435 
L 203.381519 22.922633 
L 209.839249 23.438075 
L 216.29698 22.962563 
L 222.75471 23.338038 
L 229.212441 23.080401 
L 235.670171 23.617928 
L 242.127902 23.657589 
L 248.585632 24.214045 
L 255.043363 24.410894 
L 261.501093 24.446656 
L 267.958824 25.02946 
L 274.416554 24.378132 
L 280.874285 25.138517 
L 287.332015 24.809814 
L 293.789746 25.710838 
L 300.247476 24.674595 
L 306.705207 25.574691 
L 313.162937 25.064605 
L 319.620668 26.613574 
L 326.078398 26.353399 
L 332.536129 25.656788 
L 338.993859 26.057425 
L 345.45159 27.720428 
L 351.90932 25.941766 
L 358.367051 27.429594 
L 364.824781 27.880353 
L 371.282512 28.150738 
L 377.740242 27.652424 
L 384.197973 28.454944 
L 390.655703 29.149636 
L 397.113433 28.359715 
" clip-path="url(#p58099b6266)" style="fill: none; stroke: #a4c2c3; stroke-width: 2.5; stroke-linecap: square"/>
   </g>
   <g id="line2d_15">
    <path d="M 80.68464 23.333098 
L 87.14237 25.153482 
L 93.600101 25.35381 
L 100.057831 29.017033 
L 106.515562 27.927768 
L 112.973292 30.316971 
L 119.431023 31.663797 
L 125.888753 35.000221 
L 132.346484 35.091473 
L 138.804214 34.119834 
L 145.261945 38.399934 
L 151.719675 34.72955 
L 158.177406 37.746195 
L 164.635136 35.676478 
L 171.092866 38.176205 
L 177.550597 38.337267 
L 184.008327 37.799407 
L 190.466058 38.806111 
L 196.923788 42.280878 
L 203.381519 40.629032 
L 209.839249 44.145212 
L 216.29698 44.421529 
L 222.75471 46.379048 
L 229.212441 46.689341 
L 235.670171 47.034055 
L 242.127902 46.95711 
L 248.585632 45.911516 
L 255.043363 45.729934 
L 261.501093 47.947258 
L 267.958824 46.543319 
L 274.416554 49.098867 
L 280.874285 48.858903 
L 287.332015 48.750173 
L 293.789746 48.569351 
L 300.247476 48.312977 
L 306.705207 49.497291 
L 313.162937 50.775885 
L 319.620668 50.623798 
L 326.078398 51.931491 
L 332.536129 50.462945 
L 338.993859 53.865208 
L 345.45159 53.017272 
L 351.90932 52.054894 
L 358.367051 53.579395 
L 364.824781 55.469431 
L 371.282512 55.646198 
L 377.740242 57.612717 
L 384.197973 57.059235 
L 390.655703 58.502591 
L 397.113433 58.492733 
" clip-path="url(#p58099b6266)" style="fill: none; stroke: #dde9e9; stroke-width: 2.5; stroke-linecap: square"/>
   </g>
   <g id="line2d_16">
    <path d="M 80.68464 230.638523 
L 87.14237 235.053442 
L 93.600101 240.319098 
L 100.057831 244.185829 
L 106.515562 247.610045 
L 112.973292 250.314944 
L 119.431023 251.439918 
L 125.888753 252.519405 
L 132.346484 253.341149 
L 138.804214 254.054919 
L 145.261945 254.047123 
L 151.719675 254.463348 
L 158.177406 255.024128 
L 164.635136 255.327881 
L 171.092866 255.747081 
L 177.550597 255.954994 
L 184.008327 256.338808 
L 190.466058 256.251372 
L 196.923788 255.993473 
L 203.381519 256.764135 
L 209.839249 256.640577 
L 216.29698 257.123509 
L 222.75471 257.310589 
L 229.212441 257.728474 
L 235.670171 257.406792 
L 242.127902 257.673308 
L 248.585632 257.901365 
L 255.043363 257.845644 
L 261.501093 257.821474 
L 267.958824 257.681847 
L 274.416554 257.761622 
L 280.874285 257.568151 
L 287.332015 258.110169 
L 293.789746 257.834955 
L 300.247476 257.916115 
L 306.705207 257.925534 
L 313.162937 257.746991 
L 319.620668 258.091313 
L 326.078398 258.312123 
L 332.536129 257.77294 
L 338.993859 257.969457 
L 345.45159 258.212336 
L 351.90932 258.219569 
L 358.367051 258.758023 
L 364.824781 258.406832 
L 371.282512 257.989346 
L 377.740242 258.212373 
L 384.197973 257.641866 
L 390.655703 258.220073 
L 397.113433 258.141661 
" clip-path="url(#p58099b6266)" style="fill: none; stroke-dasharray: 20,10; stroke-dashoffset: 0; stroke: #595c79; stroke-width: 2.5"/>
   </g>
   <g id="line2d_17">
    <path d="M 80.68464 229.387119 
L 87.14237 236.144259 
L 93.600101 243.242888 
L 100.057831 248.403189 
L 106.515562 251.243106 
L 112.973292 253.226718 
L 119.431023 254.625469 
L 125.888753 254.6856 
L 132.346484 256.123961 
L 138.804214 257.469722 
L 145.261945 258.248208 
L 151.719675 259.534327 
L 158.177406 259.850011 
L 164.635136 259.628651 
L 171.092866 260.24154 
L 177.550597 261.086367 
L 184.008327 261.192653 
L 190.466058 261.27178 
L 196.923788 260.552911 
L 203.381519 261.239927 
L 209.839249 261.277649 
L 216.29698 261.924265 
L 222.75471 261.159264 
L 229.212441 261.915096 
L 235.670171 262.780564 
L 242.127902 261.355372 
L 248.585632 260.960072 
L 255.043363 262.346747 
L 261.501093 261.239297 
L 267.958824 262.690391 
L 274.416554 261.912406 
L 280.874285 261.711802 
L 287.332015 262.195877 
L 293.789746 261.779047 
L 300.247476 261.414548 
L 306.705207 262.209996 
L 313.162937 262.185092 
L 319.620668 261.125826 
L 326.078398 260.366925 
L 332.536129 261.04595 
L 338.993859 261.801996 
L 345.45159 261.916787 
L 351.90932 262.441129 
L 358.367051 260.765743 
L 364.824781 261.24563 
L 371.282512 259.862236 
L 377.740242 260.014901 
L 384.197973 259.29508 
L 390.655703 261.020068 
L 397.113433 259.391464 
" clip-path="url(#p58099b6266)" style="fill: none; stroke-dasharray: 20,10; stroke-dashoffset: 0; stroke: #7f909f; stroke-width: 2.5"/>
   </g>
   <g id="line2d_18">
    <path d="M 80.68464 230.348624 
L 87.14237 237.087026 
L 93.600101 246.91735 
L 100.057831 252.731462 
L 106.515562 253.560942 
L 112.973292 251.667609 
L 119.431023 256.398234 
L 125.888753 257.47246 
L 132.346484 259.944861 
L 138.804214 258.20815 
L 145.261945 255.525932 
L 151.719675 261.279834 
L 158.177406 263.530314 
L 164.635136 259.863919 
L 171.092866 260.03321 
L 177.550597 262.171266 
L 184.008327 264.141373 
L 190.466058 262.39378 
L 196.923788 262.76852 
L 203.381519 263.742871 
L 209.839249 264.269662 
L 216.29698 263.079834 
L 222.75471 263.796059 
L 229.212441 266.119011 
L 235.670171 263.903964 
L 242.127902 264.541318 
L 248.585632 261.165437 
L 255.043363 262.719365 
L 261.501093 261.78772 
L 267.958824 264.246152 
L 274.416554 264.385054 
L 280.874285 264.158055 
L 287.332015 264.887354 
L 293.789746 264.782233 
L 300.247476 265.584346 
L 306.705207 265.961531 
L 313.162937 262.657057 
L 319.620668 266.394561 
L 326.078398 263.366307 
L 332.536129 264.231022 
L 338.993859 263.969097 
L 345.45159 263.561896 
L 351.90932 262.904539 
L 358.367051 263.552423 
L 364.824781 261.270397 
L 371.282512 262.739398 
L 377.740242 261.468986 
L 384.197973 262.047135 
L 390.655703 262.716095 
L 397.113433 262.736582 
" clip-path="url(#p58099b6266)" style="fill: none; stroke-dasharray: 20,10; stroke-dashoffset: 0; stroke: #a4c2c3; stroke-width: 2.5"/>
   </g>
   <g id="line2d_19">
    <path d="M 80.68464 238.279019 
L 87.14237 244.158217 
L 93.600101 248.787591 
L 100.057831 254.210897 
L 106.515562 255.643891 
L 112.973292 254.736761 
L 119.431023 256.903233 
L 125.888753 255.986259 
L 132.346484 259.338255 
L 138.804214 257.901621 
L 145.261945 257.354506 
L 151.719675 256.46924 
L 158.177406 254.885374 
L 164.635136 257.499041 
L 171.092866 257.822399 
L 177.550597 256.091185 
L 184.008327 255.732829 
L 190.466058 256.221047 
L 196.923788 256.168058 
L 203.381519 256.695471 
L 209.839249 257.312612 
L 216.29698 257.245893 
L 222.75471 258.747471 
L 229.212441 256.682889 
L 235.670171 255.01566 
L 242.127902 256.664912 
L 248.585632 256.527467 
L 255.043363 255.670542 
L 261.501093 255.32662 
L 267.958824 256.037169 
L 274.416554 256.388342 
L 280.874285 254.638367 
L 287.332015 256.918511 
L 293.789746 255.567793 
L 300.247476 256.859394 
L 306.705207 254.195976 
L 313.162937 256.832334 
L 319.620668 256.885752 
L 326.078398 255.851401 
L 332.536129 253.782191 
L 338.993859 255.148029 
L 345.45159 253.440975 
L 351.90932 253.982093 
L 358.367051 251.550356 
L 364.824781 251.976287 
L 371.282512 253.089131 
L 377.740242 254.860599 
L 384.197973 253.307885 
L 390.655703 254.306429 
L 397.113433 253.015899 
" clip-path="url(#p58099b6266)" style="fill: none; stroke-dasharray: 20,10; stroke-dashoffset: 0; stroke: #dde9e9; stroke-width: 2.5"/>
   </g>
   <g id="patch_3">
    <path d="M 64.8632 294.1738 
L 64.8632 7.2 
" style="fill: none; stroke: #000000; stroke-width: 1.5; stroke-linejoin: miter; stroke-linecap: square"/>
   </g>
   <g id="patch_4">
    <path d="M 64.8632 294.1738 
L 412.934873 294.1738 
" style="fill: none; stroke: #000000; stroke-width: 1.5; stroke-linejoin: miter; stroke-linecap: square"/>
   </g>
   <g id="legend_1">
    <g id="patch_5">
     <path d="M 198.584573 178.1405 
L 400.838873 178.1405 
Q 404.294873 178.1405 404.294873 174.6845 
L 404.294873 126.6893 
Q 404.294873 123.2333 400.838873 123.2333 
L 198.584573 123.2333 
Q 195.128573 123.2333 195.128573 126.6893 
L 195.128573 174.6845 
Q 195.128573 178.1405 198.584573 178.1405 
z
" style="fill: #ffffff; opacity: 0.8; stroke: #cccccc; stroke-width: 2.5; stroke-linejoin: miter"/>
    </g>
    <g id="line2d_20">
     <path d="M 202.040573 136.6874 
L 219.320573 136.6874 
L 236.600573 136.6874 
" style="fill: none; stroke: #000000; stroke-width: 2.5; stroke-linecap: square"/>
    </g>
    <g id="text_14">
     <!-- Output Alignment -->
     <g transform="translate(250.424573 142.7354)scale(0.1728 -0.1728)">
      <defs>
       <path id="ArialMT-4f" d="M 309 2231 
Q 309 3372 921 4017 
Q 1534 4663 2503 4663 
Q 3138 4663 3647 4359 
Q 4156 4056 4423 3514 
Q 4691 2972 4691 2284 
Q 4691 1588 4409 1038 
Q 4128 488 3612 205 
Q 3097 -78 2500 -78 
Q 1853 -78 1343 234 
Q 834 547 571 1087 
Q 309 1628 309 2231 
z
M 934 2222 
Q 934 1394 1379 917 
Q 1825 441 2497 441 
Q 3181 441 3623 922 
Q 4066 1403 4066 2288 
Q 4066 2847 3877 3264 
Q 3688 3681 3323 3911 
Q 2959 4141 2506 4141 
Q 1863 4141 1398 3698 
Q 934 3256 934 2222 
z
" transform="scale(0.015625)"/>
       <path id="ArialMT-75" d="M 2597 0 
L 2597 488 
Q 2209 -75 1544 -75 
Q 1250 -75 995 37 
Q 741 150 617 320 
Q 494 491 444 738 
Q 409 903 409 1263 
L 409 3319 
L 972 3319 
L 972 1478 
Q 972 1038 1006 884 
Q 1059 663 1231 536 
Q 1403 409 1656 409 
Q 1909 409 2131 539 
Q 2353 669 2445 892 
Q 2538 1116 2538 1541 
L 2538 3319 
L 3100 3319 
L 3100 0 
L 2597 0 
z
" transform="scale(0.015625)"/>
       <path id="ArialMT-41" d="M -9 0 
L 1750 4581 
L 2403 4581 
L 4278 0 
L 3588 0 
L 3053 1388 
L 1138 1388 
L 634 0 
L -9 0 
z
M 1313 1881 
L 2866 1881 
L 2388 3150 
Q 2169 3728 2063 4100 
Q 1975 3659 1816 3225 
L 1313 1881 
z
" transform="scale(0.015625)"/>
       <path id="ArialMT-67" d="M 319 -275 
L 866 -356 
Q 900 -609 1056 -725 
Q 1266 -881 1628 -881 
Q 2019 -881 2231 -725 
Q 2444 -569 2519 -288 
Q 2563 -116 2559 434 
Q 2191 0 1641 0 
Q 956 0 581 494 
Q 206 988 206 1678 
Q 206 2153 378 2554 
Q 550 2956 876 3175 
Q 1203 3394 1644 3394 
Q 2231 3394 2613 2919 
L 2613 3319 
L 3131 3319 
L 3131 450 
Q 3131 -325 2973 -648 
Q 2816 -972 2473 -1159 
Q 2131 -1347 1631 -1347 
Q 1038 -1347 672 -1080 
Q 306 -813 319 -275 
z
M 784 1719 
Q 784 1066 1043 766 
Q 1303 466 1694 466 
Q 2081 466 2343 764 
Q 2606 1063 2606 1700 
Q 2606 2309 2336 2618 
Q 2066 2928 1684 2928 
Q 1309 2928 1046 2623 
Q 784 2319 784 1719 
z
" transform="scale(0.015625)"/>
      </defs>
      <use xlink:href="#ArialMT-4f"/>
      <use xlink:href="#ArialMT-75" x="77.783203"/>
      <use xlink:href="#ArialMT-74" x="133.398438"/>
      <use xlink:href="#ArialMT-70" x="161.181641"/>
      <use xlink:href="#ArialMT-75" x="216.796875"/>
      <use xlink:href="#ArialMT-74" x="272.412109"/>
      <use xlink:href="#ArialMT-20" x="300.195312"/>
      <use xlink:href="#ArialMT-41" x="322.478516"/>
      <use xlink:href="#ArialMT-6c" x="389.177734"/>
      <use xlink:href="#ArialMT-69" x="411.394531"/>
      <use xlink:href="#ArialMT-67" x="433.611328"/>
      <use xlink:href="#ArialMT-6e" x="489.226562"/>
      <use xlink:href="#ArialMT-6d" x="544.841797"/>
      <use xlink:href="#ArialMT-65" x="628.142578"/>
      <use xlink:href="#ArialMT-6e" x="683.757812"/>
      <use xlink:href="#ArialMT-74" x="739.373047"/>
     </g>
    </g>
    <g id="line2d_21">
     <path d="M 202.040573 161.5436 
L 219.320573 161.5436 
L 236.600573 161.5436 
" style="fill: none; stroke-dasharray: 20,10; stroke-dashoffset: 0; stroke: #000000; stroke-width: 2.5"/>
    </g>
    <g id="text_15">
     <!-- Gradient Alignment -->
     <g transform="translate(250.424573 167.5916)scale(0.1728 -0.1728)">
      <defs>
       <path id="ArialMT-47" d="M 2638 1797 
L 2638 2334 
L 4578 2338 
L 4578 638 
Q 4131 281 3656 101 
Q 3181 -78 2681 -78 
Q 2006 -78 1454 211 
Q 903 500 622 1047 
Q 341 1594 341 2269 
Q 341 2938 620 3517 
Q 900 4097 1425 4378 
Q 1950 4659 2634 4659 
Q 3131 4659 3532 4498 
Q 3934 4338 4162 4050 
Q 4391 3763 4509 3300 
L 3963 3150 
Q 3859 3500 3706 3700 
Q 3553 3900 3268 4020 
Q 2984 4141 2638 4141 
Q 2222 4141 1919 4014 
Q 1616 3888 1430 3681 
Q 1244 3475 1141 3228 
Q 966 2803 966 2306 
Q 966 1694 1177 1281 
Q 1388 869 1791 669 
Q 2194 469 2647 469 
Q 3041 469 3416 620 
Q 3791 772 3984 944 
L 3984 1797 
L 2638 1797 
z
" transform="scale(0.015625)"/>
       <path id="ArialMT-64" d="M 2575 0 
L 2575 419 
Q 2259 -75 1647 -75 
Q 1250 -75 917 144 
Q 584 363 401 755 
Q 219 1147 219 1656 
Q 219 2153 384 2558 
Q 550 2963 881 3178 
Q 1213 3394 1622 3394 
Q 1922 3394 2156 3267 
Q 2391 3141 2538 2938 
L 2538 4581 
L 3097 4581 
L 3097 0 
L 2575 0 
z
M 797 1656 
Q 797 1019 1065 703 
Q 1334 388 1700 388 
Q 2069 388 2326 689 
Q 2584 991 2584 1609 
Q 2584 2291 2321 2609 
Q 2059 2928 1675 2928 
Q 1300 2928 1048 2622 
Q 797 2316 797 1656 
z
" transform="scale(0.015625)"/>
      </defs>
      <use xlink:href="#ArialMT-47"/>
      <use xlink:href="#ArialMT-72" x="77.783203"/>
      <use xlink:href="#ArialMT-61" x="111.083984"/>
      <use xlink:href="#ArialMT-64" x="166.699219"/>
      <use xlink:href="#ArialMT-69" x="222.314453"/>
      <use xlink:href="#ArialMT-65" x="244.53125"/>
      <use xlink:href="#ArialMT-6e" x="300.146484"/>
      <use xlink:href="#ArialMT-74" x="355.761719"/>
      <use xlink:href="#ArialMT-20" x="383.544922"/>
      <use xlink:href="#ArialMT-41" x="405.828125"/>
      <use xlink:href="#ArialMT-6c" x="472.527344"/>
      <use xlink:href="#ArialMT-69" x="494.744141"/>
      <use xlink:href="#ArialMT-67" x="516.960938"/>
      <use xlink:href="#ArialMT-6e" x="572.576172"/>
      <use xlink:href="#ArialMT-6d" x="628.191406"/>
      <use xlink:href="#ArialMT-65" x="711.492188"/>
      <use xlink:href="#ArialMT-6e" x="767.107422"/>
      <use xlink:href="#ArialMT-74" x="822.722656"/>
     </g>
    </g>
   </g>
  </g>
 </g>
 <defs>
  <clipPath id="p58099b6266">
   <rect x="64.8632" y="7.2" width="348.071673" height="286.9738"/>
  </clipPath>
 </defs>
</svg>
